<svg preserveAspectRatio="none" width="100%" height="100%" overflow="visible" style="display: block;" viewBox="0 0 19.8055 17.7763" fill="none" xmlns="http://www.w3.org/2000/svg">
<g id="Group">
<path id="Vector" d="M2.02919 8.88818C2.02919 4.64583 5.01228 1.10034 8.98567 0.207857V2.07126e-05H11.2474C16.0033 0.183408 19.8055 4.09566 19.8055 8.88818C19.8055 13.6807 16.0033 17.5929 11.2474 17.7641H8.98567V17.5563C5.00006 16.676 2.02919 13.1305 2.02919 8.87595V8.88818Z" fill="var(--fill-0, #FF9D00)"/>
<path id="Vector_2" d="M8.88816 17.7763C13.797 17.7763 17.7763 13.797 17.7763 8.88816C17.7763 3.97936 13.797 0 8.88816 0C3.97936 0 0 3.97936 0 8.88816C0 13.797 3.97936 17.7763 8.88816 17.7763Z" fill="var(--fill-0, #FFCC4D)"/>
<path id="Vector_3" d="M8.88757 1.93168C12.7142 1.93168 15.8318 5.04926 15.8318 8.87593C15.8318 12.7026 12.7142 15.8202 8.88757 15.8202C5.0609 15.8202 1.94332 12.7026 1.94332 8.87593C1.94332 5.04926 5.0609 1.93168 8.88757 1.93168M8.88757 1.32039C4.71857 1.32039 1.33203 4.70694 1.33203 8.87593C1.33203 13.0449 4.71857 16.4315 8.88757 16.4315C13.0566 16.4315 16.4431 13.0449 16.4431 8.87593C16.4431 4.70694 13.0566 1.32039 8.88757 1.32039Z" fill="var(--fill-0, #FF9D00)"/>
</g>
</svg>
