<svg preserveAspectRatio="none" width="100%" height="100%" overflow="visible" style="display: block;" viewBox="0 0 74.1032 64.0518" fill="none" xmlns="http://www.w3.org/2000/svg">
<g id="Group">
<path id="Vector" d="M50.2812 2.92088L6.44802 22.7768C2.88687 24.39 1.30772 28.5846 2.92088 32.1457L14.4531 57.6037C16.0662 61.1649 20.2608 62.744 23.822 61.1309L67.6552 41.2749C71.2163 39.6618 72.7955 35.4672 71.1823 31.906L59.6501 6.44802C58.037 2.88688 53.8423 1.30772 50.2812 2.92088Z" fill="var(--fill-0, #3395FF)"/>
<path id="Vector_2" d="M61.3659 28.4653L54.5838 31.5375C53.2675 32.1338 52.6839 33.6841 53.2801 35.0003L54.9852 38.7644C55.5815 40.0807 57.1318 40.6643 58.448 40.0681L65.2301 36.9959C66.5463 36.3996 67.13 34.8493 66.5337 33.5331L64.8286 29.769C64.2324 28.4528 62.6821 27.8691 61.3659 28.4653Z" fill="var(--fill-0, #FFCC4D)"/>
<path id="Vector_3" d="M60.883 9.17831L4.1538 34.876L7.74059 42.7941L64.4698 17.0963L60.883 9.17831Z" fill="var(--fill-0, #1C3FCA)"/>
</g>
</svg>
