<svg preserveAspectRatio="none" width="100%" height="100%" overflow="visible" style="display: block;" viewBox="0 0 41.0621 38.3174" fill="none" xmlns="http://www.w3.org/2000/svg">
<g id="Group">
<path id="Vector" d="M22.695 10.8757C21.4602 10.7779 20.6777 9.68982 20.9467 8.43056L22.3282 2.10983C22.5972 0.850568 23.832 -0.0908198 25.0668 0.00698657C26.3016 0.104793 27.084 1.19289 26.8151 2.45215L25.4336 8.77289C25.1646 10.0321 23.9298 10.9735 22.695 10.8757Z" fill="var(--fill-0, #10BB86)"/>
<path id="Vector_2" d="M16.7168 38.3105C15.4819 38.2126 14.6995 37.1245 14.9685 35.8653L15.6287 32.8088C15.8976 31.5496 17.1324 30.6082 18.3672 30.706C19.602 30.8038 20.3845 31.8919 20.1155 33.1512L19.4553 36.2076C19.1864 37.4669 17.9516 38.4083 16.7168 38.3105Z" fill="var(--fill-0, #5FF2C1)"/>
<path id="Vector_3" d="M30.2994 21.5244C30.5683 20.2652 31.8031 19.3238 33.0379 19.4216L39.2609 19.8862C40.4957 19.984 41.2781 21.0721 41.0092 22.3313C40.7402 23.5906 39.5054 24.532 38.2706 24.4342L32.0477 23.9696C30.8129 23.8718 30.0304 22.7837 30.2994 21.5244V21.5244Z" fill="var(--fill-0, #0B9F71)"/>
<path id="Vector_4" d="M0.0530762 19.2504C0.322044 17.9911 1.55685 17.0497 2.79166 17.1475L9.01459 17.6121C10.2494 17.7099 11.0318 18.798 10.7629 20.0573C10.4939 21.3165 9.2591 22.2579 8.0243 22.1601L1.80137 21.6955C0.56656 21.5977 -0.215891 20.5096 0.0530762 19.2504V19.2504Z" fill="var(--fill-0, #2BD19D)"/>
<path id="Vector_5" d="M9.2589 4.99511C10.3348 4.17598 11.753 4.27379 12.4376 5.23963L15.8608 10.0321C16.5455 10.9858 16.2276 12.4284 15.164 13.2475C14.0881 14.0667 12.6699 13.9688 11.9853 13.003L8.56202 8.2105C7.87738 7.25688 8.19525 5.81424 9.2589 4.99511Z" fill="var(--fill-0, #1FC994)"/>
<path id="Vector_6" d="M12.0955 27.2827C11.4109 26.3291 9.99267 26.2191 8.9168 27.0382L4.22209 30.6571C3.14622 31.4762 2.84058 32.9188 3.52522 33.8725C4.20986 34.8261 5.62806 34.9361 6.70393 34.117L11.3986 30.4981C12.4745 29.679 12.7802 28.2364 12.0955 27.2827Z" fill="var(--fill-0, #2FDFA8)"/>
<path id="Vector_7" d="M38.2103 7.18354C37.5257 6.22992 36.1075 6.11989 35.0316 6.93902L29.6645 11.0713C28.5886 11.8905 28.283 13.3331 28.9676 14.2867C29.6522 15.2403 31.0704 15.3504 32.1463 14.5312L37.5134 10.3989C38.5893 9.57979 38.8949 8.13715 38.2103 7.18354Z" fill="var(--fill-0, #0BA776)"/>
</g>
</svg>
