<svg preserveAspectRatio="none" width="100%" height="100%" overflow="visible" style="display: block;" viewBox="0 0 75.4855 106.969" fill="none" xmlns="http://www.w3.org/2000/svg">
<g id="Group">
<path id="Vector" d="M72.5165 6.40631L68.1519 3.26428L59.5449 3.90003L59.1659 4.53577L32.2325 2.89751C27.7456 2.64077 23.7233 5.64832 22.6964 10.0374L4.1376 95.7402C4.12537 95.8014 4.11315 95.8747 4.10092 95.9359L2.79276 100.154L6.54608 102.856C7.48747 103.626 8.64892 104.176 9.94485 104.384L46.8301 106.853C51.696 107.624 56.3051 104.457 57.3321 99.6403L75.3284 13.6562C75.9397 10.7709 74.7171 7.98344 72.5165 6.39409V6.40631Z" fill="var(--fill-0, #8262F9)"/>
<path id="Vector_2" d="M28.3329 0.476817L64.5335 2.64078C68.8492 2.8853 71.9301 6.91981 71.0376 11.1499L53.2246 96.3516C52.2099 101.12 47.6374 104.262 42.8205 103.504L6.2531 101.058C2.20636 100.411 -0.434411 96.4738 0.49475 92.4882L18.8946 7.54333C19.9093 3.20317 23.8949 0.220075 28.3451 0.464591L28.3329 0.476817Z" fill="var(--fill-0, white)"/>
<path id="Vector_3" d="M27.7458 0.61129C27.9048 0.61129 28.0759 0.61129 28.2349 0.623516L64.7656 2.81193C66.6606 2.92197 68.4088 3.85113 69.5703 5.3549C70.7195 6.8709 71.1597 8.80258 70.7684 10.6609L52.7965 96.6205C51.9529 100.582 48.4074 103.467 44.3607 103.467C43.9083 103.467 43.4438 103.43 42.9425 103.357L6.1184 100.887C4.3212 100.606 2.7563 99.6036 1.74156 98.0876C0.726817 96.5716 0.384495 94.7622 0.812398 92.9772L19.3345 7.28658C20.2514 3.34987 23.7113 0.61129 27.7458 0.61129ZM27.7458 0C23.4668 0 19.7257 2.94642 18.7476 7.15209L0.188882 92.855C-0.752505 96.8772 1.92495 100.851 5.99614 101.499L42.8814 103.968C43.3704 104.042 43.8594 104.078 44.3485 104.078C48.6397 104.078 52.4664 101.083 53.3833 96.755L71.3553 10.7832C72.26 6.51635 69.1546 2.44516 64.8022 2.20064L28.2715 0.0122258C28.1004 0.0122258 27.917 0 27.7458 0Z" fill="var(--fill-0, #8262F9)"/>
<path id="Vector_4" d="M49.1782 5.52606H49.166L39.532 4.9759C39.3609 4.9759 39.2386 4.81697 39.2386 4.65803C39.2386 4.48687 39.4342 4.35238 39.5565 4.36461L49.1904 4.91477C49.3616 4.91477 49.4838 5.07371 49.4838 5.23264C49.4838 5.39158 49.3371 5.52606 49.1782 5.52606Z" fill="var(--fill-0, #8262F9)"/>
</g>
</svg>
