<svg preserveAspectRatio="none" width="100%" height="100%" overflow="visible" style="display: block;" viewBox="0 0 21.098 22.2399" fill="none" xmlns="http://www.w3.org/2000/svg">
<g id="Group">
<path id="Vector" d="M17.8516 5.03723L16.03 3.64349L15.6509 4.14474C15.6509 4.14474 15.5654 4.13252 15.5165 4.12029C11.8243 3.74129 7.3374 7.12784 5.47908 11.6758C4.48879 14.0965 4.45212 16.3583 5.18566 17.9966L4.84334 18.4489L6.44492 19.6837L6.59163 19.7938C7.1907 20.2217 7.92425 20.5029 8.78005 20.5884C12.4722 20.9674 16.9591 17.5809 18.8174 13.0329C20.2112 9.6219 19.7221 6.52878 17.8394 5.025L17.8516 5.03723Z" fill="var(--fill-0, #FF9D00)"/>
<path id="Vector_2" d="M15.4452 14.881C18.5672 10.8168 18.9059 5.83826 16.2018 3.76108C13.4977 1.68389 8.77473 3.29467 5.65279 7.35887C2.53084 11.4231 2.19211 16.4016 4.89622 18.4788C7.60033 20.556 12.3233 18.9452 15.4452 14.881Z" fill="var(--fill-0, #FF9D00)"/>
<path id="Vector_3" d="M15.4452 14.881C18.5672 10.8168 18.9059 5.83826 16.2018 3.76108C13.4977 1.68389 8.77473 3.29467 5.65279 7.35887C2.53084 11.4231 2.19211 16.4016 4.89622 18.4788C7.60033 20.556 12.3233 18.9452 15.4452 14.881Z" fill="var(--fill-0, #FFCC4D)"/>
<path id="Vector_4" d="M13.3283 4.85382C13.3895 4.85382 13.4628 4.85382 13.5239 4.85382C14.4286 4.90273 15.1133 5.28173 15.5412 5.99082C16.2747 7.18895 16.1769 9.12063 15.2845 11.1746C13.7807 14.61 10.4064 17.3975 7.76559 17.3975C7.70446 17.3975 7.6311 17.3975 7.56997 17.3975C6.66526 17.3486 5.98062 16.9696 5.55271 16.2605C4.81916 15.0624 4.91698 13.1307 5.80946 11.0768C7.31324 7.64131 10.6875 4.85382 13.3283 4.85382ZM13.3283 4.24253C10.443 4.24253 6.86087 7.14005 5.24707 10.8322C3.58436 14.6345 4.61133 17.8376 7.54552 18.0088C7.61888 18.0088 7.70446 18.0088 7.77782 18.0088C10.6631 18.0088 14.2453 15.1113 15.8591 11.4191C17.5218 7.61686 16.4948 4.4137 13.5606 4.24253C13.4873 4.24253 13.4017 4.24253 13.3283 4.24253Z" fill="var(--fill-0, #FF9D00)"/>
</g>
</svg>
