<svg preserveAspectRatio="none" width="100%" height="100%" overflow="visible" style="display: block;" viewBox="0 0 28.3154 9.30386" fill="none" xmlns="http://www.w3.org/2000/svg">
<g id="Group">
<g id="Group_2">
<path id="Vector" d="M5.0981 0.220065L4.80469 1.5649L2.68962 1.43042L2.2495 3.53326L0.880203 3.44768L1.61375 0L5.0981 0.220065Z" fill="var(--fill-0, #FF0000)"/>
<path id="Vector_2" d="M3.76568 6.49191L3.48449 7.84897L0.000137289 7.62891L0.733684 4.169L2.09075 4.25459L1.65062 6.35742L3.76568 6.49191Z" fill="var(--fill-0, #FF0000)"/>
<path id="Vector_3" d="M8.4239 4.65801L7.70258 8.10569L4.21822 7.89785L4.49942 6.54079L6.62671 6.67527L7.06684 4.57243L8.4239 4.65801Z" fill="var(--fill-0, #FF0000)"/>
<path id="Vector_4" d="M9.31676 0.476799L8.58321 3.9367L7.22615 3.85112L7.66628 1.74828L5.53898 1.6138L5.83241 0.256734L9.31676 0.476799Z" fill="var(--fill-0, #FF0000)"/>
<path id="Vector_5" d="M5.56305 5.25708L3.2646 5.1226L3.75363 2.8486L6.03985 2.98308L5.56305 5.25708Z" fill="var(--fill-0, #00349F)"/>
</g>
<path id="Vector_6" d="M26.7016 9.30385L7.7027 8.10572L9.3165 0.476823L28.3154 1.67495L26.7016 9.30385Z" fill="var(--fill-0, #045B9B)"/>
</g>
</svg>
