<svg width="328" height="38" viewBox="0 0 328 38" fill="none" xmlns="http://www.w3.org/2000/svg">
<path d="M0.285511 14.2727H1.78125L4.06108 18.2401H4.15483L6.43466 14.2727H7.9304L4.7642 19.5739V23H3.4517V19.5739L0.285511 14.2727ZM16.3093 18.6364C16.3093 19.5682 16.1388 20.3693 15.7979 21.0398C15.457 21.7074 14.9897 22.2216 14.396 22.5824C13.805 22.9403 13.1332 23.1193 12.3803 23.1193C11.6246 23.1193 10.9499 22.9403 10.3562 22.5824C9.76527 22.2216 9.29936 21.706 8.95845 21.0355C8.61754 20.3651 8.44709 19.5653 8.44709 18.6364C8.44709 17.7045 8.61754 16.9048 8.95845 16.2372C9.29936 15.5668 9.76527 15.0526 10.3562 14.6946C10.9499 14.3338 11.6246 14.1534 12.3803 14.1534C13.1332 14.1534 13.805 14.3338 14.396 14.6946C14.9897 15.0526 15.457 15.5668 15.7979 16.2372C16.1388 16.9048 16.3093 17.7045 16.3093 18.6364ZM15.0053 18.6364C15.0053 17.9261 14.8903 17.3281 14.6602 16.8423C14.4329 16.3537 14.1204 15.9844 13.7227 15.7344C13.3278 15.4815 12.8803 15.3551 12.3803 15.3551C11.8775 15.3551 11.4286 15.4815 11.0337 15.7344C10.6388 15.9844 10.3263 16.3537 10.0962 16.8423C9.86896 17.3281 9.75533 17.9261 9.75533 18.6364C9.75533 19.3466 9.86896 19.946 10.0962 20.4347C10.3263 20.9205 10.6388 21.2898 11.0337 21.5426C11.4286 21.7926 11.8775 21.9176 12.3803 21.9176C12.8803 21.9176 13.3278 21.7926 13.7227 21.5426C14.1204 21.2898 14.4329 20.9205 14.6602 20.4347C14.8903 19.946 15.0053 19.3466 15.0053 18.6364ZM23.5632 14.2727H24.8842V20.0128C24.8842 20.6236 24.7408 21.1648 24.4538 21.6364C24.1669 22.1051 23.7635 22.4744 23.2436 22.7443C22.7237 23.0114 22.1143 23.1449 21.4155 23.1449C20.7195 23.1449 20.1115 23.0114 19.5916 22.7443C19.0717 22.4744 18.6683 22.1051 18.3814 21.6364C18.0945 21.1648 17.951 20.6236 17.951 20.0128V14.2727H19.2678V19.9062C19.2678 20.3011 19.3544 20.652 19.5277 20.9588C19.7038 21.2656 19.9524 21.5071 20.2734 21.6832C20.5945 21.8565 20.9751 21.9432 21.4155 21.9432C21.8587 21.9432 22.2408 21.8565 22.5618 21.6832C22.8857 21.5071 23.1328 21.2656 23.3033 20.9588C23.4766 20.652 23.5632 20.3011 23.5632 19.9062V14.2727ZM26.7987 23V14.2727H29.9094C30.5856 14.2727 31.1467 14.3892 31.5927 14.6222C32.0415 14.8551 32.3768 15.1776 32.5984 15.5895C32.82 15.9986 32.9308 16.4716 32.9308 17.0085C32.9308 17.5426 32.8185 18.0128 32.5941 18.419C32.3725 18.8224 32.0373 19.1364 31.5884 19.3608C31.1424 19.5852 30.5813 19.6974 29.9052 19.6974H27.5487V18.5639H29.7859C30.212 18.5639 30.5586 18.5028 30.8256 18.3807C31.0955 18.2585 31.293 18.081 31.418 17.848C31.543 17.6151 31.6055 17.3352 31.6055 17.0085C31.6055 16.679 31.5415 16.3935 31.4137 16.152C31.2887 15.9105 31.0913 15.7259 30.8214 15.598C30.5543 15.4673 30.2035 15.402 29.7688 15.402H28.1154V23H26.7987ZM31.1069 19.0625L33.2631 23H31.7631L29.6495 19.0625H31.1069ZM37.7088 23V14.2727H43.1804V15.4062H39.0256V18.0653H42.8949V19.1946H39.0256V21.8665H43.2315V23H37.7088ZM45.8555 14.2727L47.9435 17.6861H48.0117L50.0998 14.2727H51.6254L48.9066 18.6364L51.6424 23H50.1083L48.0117 19.6335H47.9435L45.8469 23H44.3129L47.0955 18.6364L44.3299 14.2727H45.8555ZM59.9457 17.1108H58.6161C58.565 16.8267 58.4698 16.5767 58.3306 16.3608C58.1914 16.1449 58.021 15.9616 57.8192 15.8111C57.6175 15.6605 57.3917 15.5469 57.1417 15.4702C56.8945 15.3935 56.6317 15.3551 56.3533 15.3551C55.8505 15.3551 55.4002 15.4815 55.0025 15.7344C54.6076 15.9872 54.2951 16.358 54.065 16.8466C53.8377 17.3352 53.7241 17.9318 53.7241 18.6364C53.7241 19.3466 53.8377 19.946 54.065 20.4347C54.2951 20.9233 54.609 21.2926 55.0067 21.5426C55.4045 21.7926 55.8519 21.9176 56.3491 21.9176C56.6246 21.9176 56.886 21.8807 57.1332 21.8068C57.3832 21.7301 57.609 21.6179 57.8107 21.4702C58.0124 21.3224 58.1829 21.142 58.3221 20.929C58.4641 20.7131 58.5621 20.4659 58.6161 20.1875L59.9457 20.1918C59.8746 20.6207 59.7369 21.0156 59.5323 21.3764C59.3306 21.7344 59.0707 22.044 58.7525 22.3054C58.4371 22.5639 58.0763 22.7642 57.6701 22.9062C57.2638 23.0483 56.8207 23.1193 56.3406 23.1193C55.5849 23.1193 54.9116 22.9403 54.3207 22.5824C53.7298 22.2216 53.2638 21.706 52.9229 21.0355C52.5849 20.3651 52.4158 19.5653 52.4158 18.6364C52.4158 17.7045 52.5863 16.9048 52.9272 16.2372C53.2681 15.5668 53.734 15.0526 54.3249 14.6946C54.9158 14.3338 55.5877 14.1534 56.3406 14.1534C56.8036 14.1534 57.2354 14.2202 57.636 14.3537C58.0394 14.4844 58.4016 14.6776 58.7227 14.9332C59.0437 15.1861 59.3093 15.4957 59.5195 15.8622C59.7298 16.2259 59.8718 16.642 59.9457 17.1108ZM61.5213 23V14.2727H62.8381V21.8665H66.7926V23H61.5213ZM73.907 14.2727H75.228V20.0128C75.228 20.6236 75.0845 21.1648 74.7976 21.6364C74.5107 22.1051 74.1072 22.4744 73.5874 22.7443C73.0675 23.0114 72.4581 23.1449 71.7592 23.1449C71.0632 23.1449 70.4553 23.0114 69.9354 22.7443C69.4155 22.4744 69.0121 22.1051 68.7251 21.6364C68.4382 21.1648 68.2947 20.6236 68.2947 20.0128V14.2727H69.6115V19.9062C69.6115 20.3011 69.6982 20.652 69.8714 20.9588C70.0476 21.2656 70.2962 21.5071 70.6172 21.6832C70.9382 21.8565 71.3189 21.9432 71.7592 21.9432C72.2024 21.9432 72.5845 21.8565 72.9055 21.6832C73.2294 21.5071 73.4766 21.2656 73.647 20.9588C73.8203 20.652 73.907 20.3011 73.907 19.9062V14.2727ZM81.9023 16.5653C81.8569 16.1619 81.6694 15.8494 81.3398 15.6278C81.0103 15.4034 80.5955 15.2912 80.0955 15.2912C79.7376 15.2912 79.4279 15.348 79.1665 15.4616C78.9052 15.5724 78.7021 15.7259 78.5572 15.9219C78.4151 16.1151 78.3441 16.3352 78.3441 16.5824C78.3441 16.7898 78.3924 16.9687 78.489 17.1193C78.5884 17.2699 78.7177 17.3963 78.8768 17.4986C79.0387 17.598 79.212 17.6818 79.3967 17.75C79.5813 17.8153 79.7589 17.8693 79.9293 17.9119L80.7816 18.1335C81.06 18.2017 81.3455 18.294 81.6381 18.4105C81.9308 18.527 82.2021 18.6804 82.4521 18.8707C82.7021 19.0611 82.9038 19.2969 83.0572 19.5781C83.2134 19.8594 83.2915 20.196 83.2915 20.5881C83.2915 21.0824 83.1637 21.5213 82.908 21.9048C82.6552 22.2884 82.2873 22.5909 81.8043 22.8125C81.3242 23.0341 80.7433 23.1449 80.0614 23.1449C79.408 23.1449 78.8427 23.0412 78.3654 22.8338C77.8881 22.6264 77.5146 22.3324 77.2447 21.9517C76.9748 21.5682 76.8256 21.1136 76.7972 20.5881H78.1183C78.1438 20.9034 78.2461 21.1662 78.4251 21.3764C78.6069 21.5838 78.8384 21.7386 79.1197 21.8409C79.4038 21.9403 79.7148 21.9901 80.0529 21.9901C80.4251 21.9901 80.756 21.9318 81.0458 21.8153C81.3384 21.696 81.5685 21.5312 81.7362 21.321C81.9038 21.108 81.9876 20.8594 81.9876 20.5753C81.9876 20.3168 81.9137 20.1051 81.766 19.9403C81.6211 19.7756 81.4237 19.6392 81.1737 19.5312C80.9265 19.4233 80.6467 19.3281 80.3342 19.2457L79.3029 18.9645C78.604 18.7741 78.0501 18.4943 77.641 18.125C77.2347 17.7557 77.0316 17.267 77.0316 16.6591C77.0316 16.1562 77.168 15.7173 77.4407 15.3423C77.7134 14.9673 78.0827 14.6761 78.5487 14.4688C79.0146 14.2585 79.5401 14.1534 80.1254 14.1534C80.7163 14.1534 81.2376 14.2571 81.6893 14.4645C82.1438 14.6719 82.5018 14.9574 82.7631 15.321C83.0245 15.6818 83.1609 16.0966 83.1722 16.5653H81.9023ZM86.1818 14.2727V23H84.8651V14.2727H86.1818ZM88.8622 14.2727L91.2912 21.3807H91.3892L93.8182 14.2727H95.2415L92.1009 23H90.5795L87.4389 14.2727H88.8622ZM96.5018 23V14.2727H101.973V15.4062H97.8185V18.0653H101.688V19.1946H97.8185V21.8665H102.025V23H96.5018ZM114.157 17.1108H112.827C112.776 16.8267 112.681 16.5767 112.542 16.3608C112.402 16.1449 112.232 15.9616 112.03 15.8111C111.828 15.6605 111.603 15.5469 111.353 15.4702C111.105 15.3935 110.843 15.3551 110.564 15.3551C110.061 15.3551 109.611 15.4815 109.213 15.7344C108.819 15.9872 108.506 16.358 108.276 16.8466C108.049 17.3352 107.935 17.9318 107.935 18.6364C107.935 19.3466 108.049 19.946 108.276 20.4347C108.506 20.9233 108.82 21.2926 109.218 21.5426C109.615 21.7926 110.063 21.9176 110.56 21.9176C110.836 21.9176 111.097 21.8807 111.344 21.8068C111.594 21.7301 111.82 21.6179 112.022 21.4702C112.223 21.3224 112.394 21.142 112.533 20.929C112.675 20.7131 112.773 20.4659 112.827 20.1875L114.157 20.1918C114.086 20.6207 113.948 21.0156 113.743 21.3764C113.542 21.7344 113.282 22.044 112.963 22.3054C112.648 22.5639 112.287 22.7642 111.881 22.9062C111.475 23.0483 111.032 23.1193 110.551 23.1193C109.796 23.1193 109.123 22.9403 108.532 22.5824C107.941 22.2216 107.475 21.706 107.134 21.0355C106.796 20.3651 106.627 19.5653 106.627 18.6364C106.627 17.7045 106.797 16.9048 107.138 16.2372C107.479 15.5668 107.945 15.0526 108.536 14.6946C109.127 14.3338 109.799 14.1534 110.551 14.1534C111.015 14.1534 111.446 14.2202 111.847 14.3537C112.25 14.4844 112.613 14.6776 112.934 14.9332C113.255 15.1861 113.52 15.4957 113.73 15.8622C113.941 16.2259 114.083 16.642 114.157 17.1108ZM116.411 23H115.013L118.154 14.2727H119.675L122.816 23H121.418L118.951 15.858H118.882L116.411 23ZM116.645 19.5824H121.179V20.6903H116.645V19.5824ZM124.076 23V14.2727H127.187C127.863 14.2727 128.424 14.3892 128.87 14.6222C129.319 14.8551 129.654 15.1776 129.876 15.5895C130.097 15.9986 130.208 16.4716 130.208 17.0085C130.208 17.5426 130.096 18.0128 129.871 18.419C129.65 18.8224 129.315 19.1364 128.866 19.3608C128.42 19.5852 127.859 19.6974 127.183 19.6974H124.826V18.5639H127.063C127.489 18.5639 127.836 18.5028 128.103 18.3807C128.373 18.2585 128.57 18.081 128.695 17.848C128.82 17.6151 128.883 17.3352 128.883 17.0085C128.883 16.679 128.819 16.3935 128.691 16.152C128.566 15.9105 128.369 15.7259 128.099 15.598C127.832 15.4673 127.481 15.402 127.046 15.402H125.393V23H124.076ZM128.384 19.0625L130.54 23H129.04L126.927 19.0625H128.384ZM134.636 23H131.81V14.2727H134.725C135.58 14.2727 136.315 14.4474 136.928 14.7969C137.542 15.1435 138.012 15.642 138.339 16.2926C138.668 16.9403 138.833 17.7173 138.833 18.6236C138.833 19.5327 138.667 20.3139 138.335 20.9673C138.005 21.6207 137.528 22.1236 136.903 22.4759C136.278 22.8253 135.522 23 134.636 23ZM133.127 21.8494H134.563C135.228 21.8494 135.781 21.7244 136.221 21.4744C136.661 21.2216 136.991 20.8565 137.21 20.3793C137.428 19.8991 137.538 19.3139 137.538 18.6236C137.538 17.9389 137.428 17.358 137.21 16.8807C136.994 16.4034 136.671 16.0412 136.242 15.794C135.813 15.5469 135.281 15.4233 134.644 15.4233H133.127V21.8494ZM143.646 23V14.2727H146.842C147.462 14.2727 147.974 14.375 148.381 14.5795C148.787 14.7812 149.091 15.0554 149.293 15.402C149.494 15.7457 149.595 16.1335 149.595 16.5653C149.595 16.929 149.528 17.2358 149.395 17.4858C149.261 17.733 149.082 17.9318 148.858 18.0824C148.636 18.2301 148.392 18.3381 148.125 18.4062V18.4915C148.415 18.5057 148.697 18.5994 148.973 18.7727C149.251 18.9432 149.482 19.1861 149.663 19.5014C149.845 19.8168 149.936 20.2003 149.936 20.652C149.936 21.098 149.831 21.4986 149.621 21.8537C149.413 22.206 149.092 22.4858 148.658 22.6932C148.223 22.8977 147.668 23 146.991 23H143.646ZM144.963 21.8707H146.864C147.494 21.8707 147.946 21.7486 148.219 21.5043C148.491 21.2599 148.628 20.9545 148.628 20.5881C148.628 20.3125 148.558 20.0597 148.419 19.8295C148.28 19.5994 148.081 19.4162 147.822 19.2798C147.567 19.1435 147.263 19.0753 146.911 19.0753H144.963V21.8707ZM144.963 18.0483H146.727C147.023 18.0483 147.288 17.9915 147.524 17.8778C147.763 17.7642 147.952 17.6051 148.091 17.4006C148.233 17.1932 148.304 16.9489 148.304 16.6676C148.304 16.3068 148.178 16.0043 147.925 15.7599C147.672 15.5156 147.284 15.3935 146.761 15.3935H144.963V18.0483ZM151.498 23V14.2727H156.969V15.4062H152.815V18.0653H156.684V19.1946H152.815V21.8665H157.021V23H151.498ZM165.772 14.2727V23H164.562L160.126 16.5994H160.045V23H158.728V14.2727H159.947L164.387 20.6818H164.468V14.2727H165.772ZM167.693 23V14.2727H173.165V15.4062H169.01V18.0653H172.879V19.1946H169.01V21.8665H173.216V23H167.693ZM174.924 23V14.2727H180.336V15.4062H176.24V18.0653H179.948V19.1946H176.24V23H174.924ZM183.272 14.2727V23H181.955V14.2727H183.272ZM184.759 15.4062V14.2727H191.513V15.4062H188.79V23H187.478V15.4062H184.759ZM197.766 16.5653C197.72 16.1619 197.533 15.8494 197.203 15.6278C196.874 15.4034 196.459 15.2912 195.959 15.2912C195.601 15.2912 195.291 15.348 195.03 15.4616C194.768 15.5724 194.565 15.7259 194.42 15.9219C194.278 16.1151 194.207 16.3352 194.207 16.5824C194.207 16.7898 194.256 16.9687 194.352 17.1193C194.452 17.2699 194.581 17.3963 194.74 17.4986C194.902 17.598 195.075 17.6818 195.26 17.75C195.445 17.8153 195.622 17.8693 195.793 17.9119L196.645 18.1335C196.923 18.2017 197.209 18.294 197.501 18.4105C197.794 18.527 198.065 18.6804 198.315 18.8707C198.565 19.0611 198.767 19.2969 198.92 19.5781C199.077 19.8594 199.155 20.196 199.155 20.5881C199.155 21.0824 199.027 21.5213 198.771 21.9048C198.518 22.2884 198.151 22.5909 197.668 22.8125C197.188 23.0341 196.607 23.1449 195.925 23.1449C195.271 23.1449 194.706 23.0412 194.229 22.8338C193.751 22.6264 193.378 22.3324 193.108 21.9517C192.838 21.5682 192.689 21.1136 192.661 20.5881H193.982C194.007 20.9034 194.109 21.1662 194.288 21.3764C194.47 21.5838 194.702 21.7386 194.983 21.8409C195.267 21.9403 195.578 21.9901 195.916 21.9901C196.288 21.9901 196.619 21.9318 196.909 21.8153C197.202 21.696 197.432 21.5312 197.599 21.321C197.767 21.108 197.851 20.8594 197.851 20.5753C197.851 20.3168 197.777 20.1051 197.629 19.9403C197.484 19.7756 197.287 19.6392 197.037 19.5312C196.79 19.4233 196.51 19.3281 196.197 19.2457L195.166 18.9645C194.467 18.7741 193.913 18.4943 193.504 18.125C193.098 17.7557 192.895 17.267 192.895 16.6591C192.895 16.1562 193.031 15.7173 193.304 15.3423C193.577 14.9673 193.946 14.6761 194.412 14.4688C194.878 14.2585 195.403 14.1534 195.989 14.1534C196.58 14.1534 197.101 14.2571 197.553 14.4645C198.007 14.6719 198.365 14.9574 198.626 15.321C198.888 15.6818 199.024 16.0966 199.036 16.5653H197.766Z" fill="#949A9F"/>
<path d="M276.455 24L273.335 15.06H275.111L277.391 21.936L279.659 15.06H281.435L278.327 24H276.455ZM282.434 24V15.06H284.066V24H282.434ZM285.786 24V15.06H291.726V16.5H287.418V18.792H291.486V20.232H287.418V22.56H291.726V24H285.786ZM294.591 24L292.191 15.06H293.943L295.599 21.78L297.339 15.06H299.031L300.759 21.78L302.415 15.06H304.167L301.767 24H299.895L298.179 17.568L296.463 24H294.591ZM306.558 24L309.642 15.06H311.754L314.838 24H313.062L312.426 22.08H308.97L308.322 24H306.558ZM309.438 20.64H311.958L310.698 16.872L309.438 20.64ZM315.833 24V15.06H317.465V22.56H321.293V24H315.833ZM322.348 24V15.06H323.98V22.56H327.808V24H322.348Z" fill="#1C3FCA"/>
</svg>
