<svg width="328" height="148" viewBox="0 0 328 148" fill="none" xmlns="http://www.w3.org/2000/svg">
<rect width="328" height="71" rx="12" fill="#F3F6F9"/>
<path d="M26.767 24.0625L26.2486 26.0369H16.7244L17.2358 24.0625H26.767ZM21.8168 35L16.9588 29.2188L16.9659 27.4432H19.3665C19.9015 27.4432 20.349 27.3438 20.7088 27.1449C21.0687 26.946 21.3385 26.6761 21.5185 26.3352C21.6984 25.9943 21.7907 25.6061 21.7955 25.1705C21.7907 24.517 21.599 23.9844 21.2202 23.5724C20.8461 23.1558 20.2282 22.9474 19.3665 22.9474H16.7244L17.3068 20.4545H19.3665C20.5739 20.4545 21.58 20.6368 22.3849 21.0014C23.1946 21.3613 23.8007 21.875 24.2031 22.5426C24.6103 23.2102 24.8163 24.0057 24.821 24.929C24.8163 25.7481 24.679 26.4631 24.4091 27.0739C24.1439 27.6847 23.7249 28.1937 23.152 28.6009C22.5838 29.008 21.8428 29.3111 20.929 29.5099L20.8153 29.5526L25.1619 34.8722V35H21.8168ZM26.7812 20.4545L26.2486 22.4574H18.4077L18.9403 20.4545H26.7812ZM28.4432 32.4432V30.0213L34.5156 20.4545H36.6037V23.8068H35.3679L31.5398 29.8651V29.9787H40.169V32.4432H28.4432ZM35.4247 35V31.7045L35.4815 30.6321V20.4545H38.3651V35H35.4247ZM47.8004 35.1989C47.0523 35.1941 46.3303 35.0687 45.6342 34.8224C44.9429 34.5762 44.3227 34.1761 43.7734 33.6222C43.2242 33.0682 42.7886 32.3343 42.4666 31.4205C42.1494 30.5066 41.9908 29.3845 41.9908 28.054C41.9955 26.8324 42.1352 25.741 42.4098 24.7798C42.6892 23.8139 43.0869 22.9948 43.603 22.3224C44.1238 21.6501 44.7464 21.1387 45.4709 20.7884C46.1953 20.4332 47.0073 20.2557 47.907 20.2557C48.8776 20.2557 49.7346 20.4451 50.478 20.8239C51.2214 21.1979 51.8179 21.7069 52.2678 22.3509C52.7223 22.9948 52.9969 23.7169 53.0916 24.517H50.0589C49.9406 24.0104 49.692 23.6127 49.3132 23.3239C48.9344 23.035 48.4657 22.8906 47.907 22.8906C46.96 22.8906 46.2403 23.3026 45.7479 24.1264C45.2602 24.9503 45.0116 26.0701 45.0021 27.4858H45.1016C45.3194 27.0549 45.6129 26.688 45.9822 26.3849C46.3563 26.0772 46.7801 25.8428 47.2536 25.6818C47.7318 25.5161 48.236 25.4332 48.7663 25.4332C49.6281 25.4332 50.3951 25.6368 51.0675 26.044C51.7398 26.4465 52.2701 27.0005 52.6584 27.706C53.0466 28.4115 53.2408 29.2187 53.2408 30.1278C53.2408 31.1127 53.0111 31.9886 52.5518 32.7557C52.0973 33.5227 51.4605 34.1241 50.6413 34.5597C49.8269 34.9905 48.88 35.2036 47.8004 35.1989ZM47.7862 32.7841C48.2597 32.7841 48.6835 32.6705 49.0575 32.4432C49.4316 32.2159 49.7251 31.9081 49.9382 31.5199C50.1513 31.1316 50.2578 30.696 50.2578 30.2131C50.2578 29.7301 50.1513 29.2969 49.9382 28.9134C49.7299 28.5298 49.4411 28.2244 49.0717 27.9972C48.7024 27.7699 48.281 27.6562 47.8075 27.6562C47.4524 27.6562 47.1233 27.7225 46.8203 27.8551C46.522 27.9877 46.2592 28.1723 46.032 28.4091C45.8094 28.6458 45.6342 28.9205 45.5064 29.233C45.3786 29.5407 45.3146 29.8698 45.3146 30.2202C45.3146 30.6889 45.4212 31.1174 45.6342 31.5057C45.852 31.8939 46.1456 32.2041 46.5149 32.4361C46.889 32.6681 47.3127 32.7841 47.7862 32.7841ZM58.1325 33.0114L58.0543 33.7926C57.9928 34.4176 57.8744 35.0402 57.6992 35.6605C57.5288 36.2855 57.3488 36.8513 57.1594 37.358C56.9748 37.8646 56.8256 38.2623 56.712 38.5511H54.7518C54.8228 38.2718 54.9199 37.8812 55.043 37.3793C55.1661 36.8821 55.2821 36.3234 55.391 35.7031C55.4999 35.0829 55.5685 34.4508 55.5969 33.8068L55.6325 33.0114H58.1325ZM66.0657 35.1989C65.0619 35.1989 64.167 35.0142 63.381 34.6449C62.5998 34.2756 61.9795 33.7666 61.5202 33.1179C61.061 32.4692 60.8219 31.7259 60.8029 30.8878H63.7859C63.819 31.4512 64.0558 31.9081 64.4961 32.2585C64.9364 32.6089 65.4596 32.7841 66.0657 32.7841C66.5487 32.7841 66.9748 32.6776 67.3441 32.4645C67.7182 32.2467 68.0094 31.946 68.2177 31.5625C68.4308 31.1742 68.5373 30.7292 68.5373 30.2273C68.5373 29.7159 68.4284 29.2661 68.2106 28.8778C67.9975 28.4896 67.7016 28.1866 67.3228 27.9688C66.944 27.7509 66.5108 27.6397 66.0231 27.6349C65.5969 27.6349 65.1826 27.7225 64.7802 27.8977C64.3825 28.0729 64.0723 28.312 63.8498 28.6151L61.1154 28.125L61.8043 20.4545H70.6964V22.9688H64.3398L63.9634 26.6122H64.0487C64.3043 26.2524 64.6902 25.9541 65.2063 25.7173C65.7224 25.4806 66.3001 25.3622 66.9393 25.3622C67.8152 25.3622 68.5965 25.5682 69.283 25.9801C69.9696 26.392 70.5117 26.9579 70.9094 27.6776C71.3072 28.3925 71.5037 29.2164 71.4989 30.1491C71.5037 31.1293 71.2764 32.0005 70.8171 32.7628C70.3626 33.5204 69.7257 34.117 68.9066 34.5526C68.0922 34.9834 67.1452 35.1989 66.0657 35.1989ZM74.2191 35L80.2489 23.0682V22.9688H73.2248V20.4545H83.4308V23.0043L77.3938 35H74.2191ZM90.6715 35.1989C89.5778 35.1989 88.6048 35.0213 87.7525 34.6662C86.9049 34.3063 86.2397 33.8163 85.7567 33.196C85.2738 32.5758 85.0323 31.8726 85.0323 31.0866C85.0323 30.4806 85.1696 29.9242 85.4442 29.4176C85.7236 28.9062 86.1024 28.4825 86.5806 28.1463C87.0588 27.8054 87.5939 27.5876 88.1857 27.4929V27.3935C87.4092 27.2372 86.7795 26.8608 86.2965 26.2642C85.8136 25.6629 85.5721 24.9645 85.5721 24.169C85.5721 23.4162 85.7923 22.7462 86.2326 22.1591C86.6729 21.5672 87.2766 21.1032 88.0437 20.767C88.8155 20.4261 89.6914 20.2557 90.6715 20.2557C91.6516 20.2557 92.5252 20.4261 93.2923 20.767C94.064 21.108 94.6701 21.5743 95.1104 22.1662C95.5508 22.7533 95.7733 23.4209 95.7781 24.169C95.7733 24.9692 95.5271 25.6676 95.0394 26.2642C94.5517 26.8608 93.9267 27.2372 93.1644 27.3935V27.4929C93.7468 27.5876 94.2747 27.8054 94.7482 28.1463C95.2264 28.4825 95.6052 28.9062 95.8846 29.4176C96.1687 29.9242 96.3131 30.4806 96.3178 31.0866C96.3131 31.8726 96.0692 32.5758 95.5863 33.196C95.1033 33.8163 94.4357 34.3063 93.5835 34.6662C92.7359 35.0213 91.7653 35.1989 90.6715 35.1989ZM90.6715 32.9403C91.1592 32.9403 91.5853 32.8527 91.9499 32.6776C92.3145 32.4976 92.5986 32.2514 92.8022 31.9389C93.0105 31.6217 93.1147 31.2571 93.1147 30.8452C93.1147 30.4238 93.0082 30.0521 92.7951 29.7301C92.582 29.4034 92.2932 29.1477 91.9286 28.9631C91.564 28.7737 91.145 28.679 90.6715 28.679C90.2028 28.679 89.7837 28.7737 89.4144 28.9631C89.0451 29.1477 88.7539 29.4034 88.5408 29.7301C88.3325 30.0521 88.2283 30.4238 88.2283 30.8452C88.2283 31.2571 88.3301 31.6217 88.5337 31.9389C88.7373 32.2514 89.0238 32.4976 89.3931 32.6776C89.7624 32.8527 90.1886 32.9403 90.6715 32.9403ZM90.6715 26.4418C91.0787 26.4418 91.4409 26.3589 91.7582 26.1932C92.0754 26.0275 92.324 25.7978 92.5039 25.5043C92.6838 25.2107 92.7738 24.8722 92.7738 24.4886C92.7738 24.1098 92.6838 23.7784 92.5039 23.4943C92.324 23.2055 92.0778 22.9806 91.7653 22.8196C91.4528 22.6539 91.0882 22.571 90.6715 22.571C90.2596 22.571 89.895 22.6539 89.5778 22.8196C89.2605 22.9806 89.012 23.2055 88.832 23.4943C88.6568 23.7784 88.5692 24.1098 88.5692 24.4886C88.5692 24.8722 88.6592 25.2107 88.8391 25.5043C89.0191 25.7978 89.2676 26.0275 89.5849 26.1932C89.9021 26.3589 90.2643 26.4418 90.6715 26.4418Z" fill="#333333"/>
<path d="M21.3438 46C21.2969 45.6042 21.1068 45.2969 20.7734 45.0781C20.4401 44.8594 20.0313 44.75 19.5469 44.75C19.1927 44.75 18.8828 44.8073 18.6172 44.9219C18.3542 45.0365 18.1484 45.194 18 45.3945C17.8542 45.5951 17.7813 45.8229 17.7813 46.0781C17.7813 46.2917 17.832 46.4753 17.9336 46.6289C18.0378 46.7799 18.1706 46.9062 18.332 47.0078C18.4935 47.1068 18.6628 47.1888 18.8398 47.2539C19.0169 47.3164 19.1797 47.3672 19.3281 47.4062L20.1406 47.625C20.349 47.6797 20.5807 47.7552 20.8359 47.8516C21.0938 47.9479 21.3398 48.0794 21.5742 48.2461C21.8112 48.4102 22.0065 48.6211 22.1602 48.8789C22.3138 49.1367 22.3906 49.4531 22.3906 49.8281C22.3906 50.2604 22.2773 50.651 22.0508 51C21.8268 51.349 21.4987 51.6263 21.0664 51.832C20.6367 52.0378 20.1146 52.1406 19.5 52.1406C18.9271 52.1406 18.431 52.0482 18.0117 51.8633C17.5951 51.6784 17.2669 51.4206 17.0273 51.0898C16.7904 50.7591 16.6563 50.375 16.625 49.9375H17.625C17.651 50.2396 17.7526 50.4896 17.9297 50.6875C18.1094 50.8828 18.3359 51.0286 18.6094 51.125C18.8854 51.2187 19.1823 51.2656 19.5 51.2656C19.8698 51.2656 20.2018 51.2057 20.4961 51.0859C20.7904 50.9635 21.0234 50.7943 21.1953 50.5781C21.3672 50.3594 21.4531 50.1042 21.4531 49.8125C21.4531 49.5469 21.3789 49.3307 21.2305 49.1641C21.082 48.9974 20.8867 48.862 20.6445 48.7578C20.4023 48.6536 20.1406 48.5625 19.8594 48.4844L18.875 48.2031C18.25 48.0234 17.7552 47.7669 17.3906 47.4336C17.026 47.1003 16.8438 46.6641 16.8438 46.125C16.8438 45.6771 16.9648 45.2865 17.207 44.9531C17.4518 44.6172 17.7799 44.3568 18.1914 44.1719C18.6055 43.9844 19.0677 43.8906 19.5781 43.8906C20.0938 43.8906 20.5521 43.9831 20.9531 44.168C21.3542 44.3503 21.6719 44.6003 21.9062 44.918C22.1432 45.2357 22.2682 45.5964 22.2813 46H21.3438ZM26.4678 46V46.7812H23.3584V46H26.4678ZM24.2646 44.5625H25.1865V50.2812C25.1865 50.5417 25.2243 50.737 25.2998 50.8672C25.3779 50.9948 25.4769 51.0807 25.5967 51.125C25.7191 51.1667 25.848 51.1875 25.9834 51.1875C26.085 51.1875 26.1683 51.1823 26.2334 51.1719C26.2985 51.1589 26.3506 51.1484 26.3896 51.1406L26.5771 51.9687C26.5146 51.9922 26.4274 52.0156 26.3154 52.0391C26.2035 52.0651 26.0615 52.0781 25.8896 52.0781C25.6292 52.0781 25.374 52.0221 25.124 51.9102C24.8766 51.7982 24.6709 51.6276 24.5068 51.3984C24.3454 51.1693 24.2646 50.8802 24.2646 50.5312V44.5625ZM29.6201 52.1406C29.2399 52.1406 28.8949 52.069 28.585 51.9258C28.2751 51.7799 28.029 51.5703 27.8467 51.2969C27.6644 51.0208 27.5732 50.6875 27.5732 50.2969C27.5732 49.9531 27.641 49.6745 27.7764 49.4609C27.9118 49.2448 28.0928 49.0755 28.3193 48.9531C28.5459 48.8307 28.7959 48.7396 29.0693 48.6797C29.3454 48.6172 29.6227 48.5677 29.9014 48.5313C30.266 48.4844 30.5615 48.4492 30.7881 48.4258C31.0173 48.3997 31.1839 48.3568 31.2881 48.2969C31.3949 48.237 31.4482 48.1328 31.4482 47.9844V47.9531C31.4482 47.5677 31.3428 47.2682 31.1318 47.0547C30.9235 46.8411 30.6071 46.7344 30.1826 46.7344C29.7425 46.7344 29.3975 46.8307 29.1475 47.0234C28.8975 47.2161 28.7217 47.4219 28.6201 47.6406L27.7451 47.3281C27.9014 46.9635 28.1097 46.6797 28.3701 46.4766C28.6331 46.2708 28.9196 46.1276 29.2295 46.0469C29.542 45.9635 29.8493 45.9219 30.1514 45.9219C30.3441 45.9219 30.5654 45.9453 30.8154 45.9922C31.068 46.0365 31.3115 46.1289 31.5459 46.2695C31.7829 46.4102 31.9795 46.6224 32.1357 46.9062C32.292 47.1901 32.3701 47.5703 32.3701 48.0469V52H31.4482V51.1875H31.4014C31.3389 51.3177 31.2347 51.457 31.0889 51.6055C30.943 51.7539 30.749 51.8802 30.5068 51.9844C30.2646 52.0885 29.9691 52.1406 29.6201 52.1406ZM29.7607 51.3125C30.1253 51.3125 30.4326 51.2409 30.6826 51.0977C30.9352 50.9544 31.1253 50.7695 31.2529 50.543C31.3831 50.3164 31.4482 50.0781 31.4482 49.8281V48.9844C31.4092 49.0312 31.3232 49.0742 31.1904 49.1133C31.0602 49.1497 30.9092 49.1823 30.7373 49.2109C30.568 49.237 30.4027 49.2604 30.2412 49.2812C30.0824 49.2995 29.9535 49.3151 29.8545 49.3281C29.6149 49.3594 29.391 49.4102 29.1826 49.4805C28.9769 49.5482 28.8102 49.651 28.6826 49.7891C28.5576 49.9245 28.4951 50.1094 28.4951 50.3437C28.4951 50.6641 28.6136 50.9062 28.8506 51.0703C29.0902 51.2318 29.3936 51.3125 29.7607 51.3125ZM36.6621 46V46.7812H33.5527V46H36.6621ZM34.459 44.5625H35.3809V50.2812C35.3809 50.5417 35.4186 50.737 35.4941 50.8672C35.5723 50.9948 35.6712 51.0807 35.791 51.125C35.9134 51.1667 36.0423 51.1875 36.1777 51.1875C36.2793 51.1875 36.3626 51.1823 36.4277 51.1719C36.4928 51.1589 36.5449 51.1484 36.584 51.1406L36.7715 51.9687C36.709 51.9922 36.6217 52.0156 36.5098 52.0391C36.3978 52.0651 36.2559 52.0781 36.084 52.0781C35.8236 52.0781 35.5684 52.0221 35.3184 51.9102C35.071 51.7982 34.8652 51.6276 34.7012 51.3984C34.5397 51.1693 34.459 50.8802 34.459 50.5312V44.5625ZM40.5 52.125C39.9219 52.125 39.4232 51.9974 39.0039 51.7422C38.5872 51.4844 38.2656 51.125 38.0391 50.6641C37.8151 50.2005 37.7031 49.6615 37.7031 49.0469C37.7031 48.4323 37.8151 47.8906 38.0391 47.4219C38.2656 46.9505 38.5807 46.5833 38.9844 46.3203C39.3906 46.0547 39.8646 45.9219 40.4062 45.9219C40.7188 45.9219 41.0273 45.974 41.332 46.0781C41.6367 46.1823 41.9141 46.3516 42.1641 46.5859C42.4141 46.8177 42.6133 47.125 42.7617 47.5078C42.9102 47.8906 42.9844 48.362 42.9844 48.9219V49.3125H38.3594V48.5156H42.0469C42.0469 48.1771 41.9792 47.875 41.8438 47.6094C41.7109 47.3437 41.5208 47.1341 41.2734 46.9805C41.0286 46.8268 40.7396 46.75 40.4062 46.75C40.0391 46.75 39.7214 46.8411 39.4531 47.0234C39.1875 47.2031 38.9831 47.4375 38.8398 47.7266C38.6966 48.0156 38.625 48.3255 38.625 48.6562V49.1875C38.625 49.6406 38.7031 50.0247 38.8594 50.3398C39.0182 50.6523 39.2383 50.8906 39.5195 51.0547C39.8008 51.2161 40.1276 51.2969 40.5 51.2969C40.7422 51.2969 40.9609 51.263 41.1563 51.1953C41.3542 51.125 41.5247 51.0208 41.668 50.8828C41.8112 50.7422 41.9219 50.5677 42 50.3594L42.8906 50.6094C42.7969 50.9115 42.6393 51.1771 42.418 51.4062C42.1966 51.6328 41.9232 51.8099 41.5977 51.9375C41.2721 52.0625 40.9063 52.125 40.5 52.125ZM44.3867 52V46H45.2773V46.9375H45.3555C45.4805 46.6172 45.6823 46.3685 45.9609 46.1914C46.2396 46.0117 46.5742 45.9219 46.9648 45.9219C47.3607 45.9219 47.6901 46.0117 47.9531 46.1914C48.2188 46.3685 48.4258 46.6172 48.5742 46.9375H48.6367C48.7904 46.6276 49.0208 46.3815 49.3281 46.1992C49.6354 46.0143 50.0039 45.9219 50.4336 45.9219C50.9701 45.9219 51.4089 46.0898 51.75 46.4258C52.0911 46.7591 52.2617 47.2786 52.2617 47.9844V52H51.3398V47.9844C51.3398 47.5417 51.2187 47.2253 50.9766 47.0352C50.7344 46.8451 50.4492 46.75 50.1211 46.75C49.6992 46.75 49.3724 46.8776 49.1406 47.1328C48.9089 47.3854 48.793 47.7057 48.793 48.0937V52H47.8555V47.8906C47.8555 47.5495 47.7448 47.2747 47.5234 47.0664C47.3021 46.8555 47.0169 46.75 46.668 46.75C46.4284 46.75 46.2044 46.8138 45.9961 46.9414C45.7904 47.069 45.6237 47.2461 45.4961 47.4727C45.3711 47.6966 45.3086 47.9557 45.3086 48.25V52H44.3867ZM56.4629 52.125C55.8848 52.125 55.3861 51.9974 54.9668 51.7422C54.5501 51.4844 54.2285 51.125 54.002 50.6641C53.778 50.2005 53.666 49.6615 53.666 49.0469C53.666 48.4323 53.778 47.8906 54.002 47.4219C54.2285 46.9505 54.5436 46.5833 54.9473 46.3203C55.3535 46.0547 55.8275 45.9219 56.3691 45.9219C56.6816 45.9219 56.9902 45.974 57.2949 46.0781C57.5996 46.1823 57.877 46.3516 58.127 46.5859C58.377 46.8177 58.5762 47.125 58.7246 47.5078C58.873 47.8906 58.9473 48.362 58.9473 48.9219V49.3125H54.3223V48.5156H58.0098C58.0098 48.1771 57.9421 47.875 57.8066 47.6094C57.6738 47.3437 57.4837 47.1341 57.2363 46.9805C56.9915 46.8268 56.7025 46.75 56.3691 46.75C56.002 46.75 55.6842 46.8411 55.416 47.0234C55.1504 47.2031 54.946 47.4375 54.8027 47.7266C54.6595 48.0156 54.5879 48.3255 54.5879 48.6562V49.1875C54.5879 49.6406 54.666 50.0247 54.8223 50.3398C54.9811 50.6523 55.2012 50.8906 55.4824 51.0547C55.7637 51.2161 56.0905 51.2969 56.4629 51.2969C56.7051 51.2969 56.9238 51.263 57.1191 51.1953C57.3171 51.125 57.4876 51.0208 57.6309 50.8828C57.7741 50.7422 57.8848 50.5677 57.9629 50.3594L58.8535 50.6094C58.7598 50.9115 58.6022 51.1771 58.3809 51.4062C58.1595 51.6328 57.8861 51.8099 57.5605 51.9375C57.235 52.0625 56.8691 52.125 56.4629 52.125ZM61.2715 48.3906V52H60.3496V46H61.2402V46.9375H61.3184C61.459 46.6328 61.6725 46.388 61.959 46.2031C62.2454 46.0156 62.6152 45.9219 63.0684 45.9219C63.4746 45.9219 63.8301 46.0052 64.1348 46.1719C64.4395 46.3359 64.6764 46.5859 64.8457 46.9219C65.015 47.2552 65.0996 47.6771 65.0996 48.1875V52H64.1777V48.25C64.1777 47.7786 64.0553 47.4115 63.8105 47.1484C63.5658 46.8828 63.2298 46.75 62.8027 46.75C62.5085 46.75 62.2454 46.8138 62.0137 46.9414C61.7845 47.069 61.6035 47.2552 61.4707 47.5C61.3379 47.7448 61.2715 48.0417 61.2715 48.3906ZM69.3936 46V46.7812H66.2842V46H69.3936ZM67.1904 44.5625H68.1123V50.2812C68.1123 50.5417 68.1501 50.737 68.2256 50.8672C68.3037 50.9948 68.4027 51.0807 68.5225 51.125C68.6449 51.1667 68.7738 51.1875 68.9092 51.1875C69.0107 51.1875 69.0941 51.1823 69.1592 51.1719C69.2243 51.1589 69.2764 51.1484 69.3154 51.1406L69.5029 51.9687C69.4404 51.9922 69.3532 52.0156 69.2412 52.0391C69.1292 52.0651 68.9873 52.0781 68.8154 52.0781C68.555 52.0781 68.2998 52.0221 68.0498 51.9102C67.8024 51.7982 67.5967 51.6276 67.4326 51.3984C67.2712 51.1693 67.1904 50.8802 67.1904 50.5312V44.5625ZM76.4678 52H73.999V44H76.5771C77.3532 44 78.0173 44.1602 78.5693 44.4805C79.1214 44.7982 79.5446 45.2552 79.8389 45.8516C80.1331 46.4453 80.2803 47.1562 80.2803 47.9844C80.2803 48.8177 80.1318 49.5352 79.835 50.1367C79.5381 50.7357 79.1058 51.1966 78.5381 51.5195C77.9704 51.8398 77.2803 52 76.4678 52ZM74.9678 51.1406H76.4053C77.0667 51.1406 77.6149 51.013 78.0498 50.7578C78.4847 50.5026 78.8089 50.1393 79.0225 49.668C79.236 49.1966 79.3428 48.6354 79.3428 47.9844C79.3428 47.3385 79.2373 46.7826 79.0264 46.3164C78.8154 45.8477 78.5003 45.4883 78.0811 45.2383C77.6618 44.9857 77.1396 44.8594 76.5146 44.8594H74.9678V51.1406ZM85.5615 49.5469V46H86.4834V52H85.5615V50.9844H85.499C85.3584 51.2891 85.1396 51.5482 84.8428 51.7617C84.5459 51.9727 84.1709 52.0781 83.7178 52.0781C83.3428 52.0781 83.0094 51.9961 82.7178 51.832C82.4261 51.6654 82.1969 51.4154 82.0303 51.082C81.8636 50.7461 81.7803 50.3229 81.7803 49.8125V46H82.7021V49.75C82.7021 50.1875 82.8245 50.5365 83.0693 50.7969C83.3167 51.0573 83.6318 51.1875 84.0146 51.1875C84.2438 51.1875 84.4769 51.1289 84.7139 51.0117C84.9535 50.8945 85.154 50.7148 85.3154 50.4727C85.4795 50.2305 85.5615 49.9219 85.5615 49.5469ZM90.6875 52.125C90.1094 52.125 89.6107 51.9974 89.1914 51.7422C88.7747 51.4844 88.4531 51.125 88.2266 50.6641C88.0026 50.2005 87.8906 49.6615 87.8906 49.0469C87.8906 48.4323 88.0026 47.8906 88.2266 47.4219C88.4531 46.9505 88.7682 46.5833 89.1719 46.3203C89.5781 46.0547 90.0521 45.9219 90.5938 45.9219C90.9063 45.9219 91.2148 45.974 91.5195 46.0781C91.8242 46.1823 92.1016 46.3516 92.3516 46.5859C92.6016 46.8177 92.8008 47.125 92.9492 47.5078C93.0977 47.8906 93.1719 48.362 93.1719 48.9219V49.3125H88.5469V48.5156H92.2344C92.2344 48.1771 92.1667 47.875 92.0313 47.6094C91.8984 47.3437 91.7083 47.1341 91.4609 46.9805C91.2161 46.8268 90.9271 46.75 90.5938 46.75C90.2266 46.75 89.9089 46.8411 89.6406 47.0234C89.375 47.2031 89.1706 47.4375 89.0273 47.7266C88.8841 48.0156 88.8125 48.3255 88.8125 48.6562V49.1875C88.8125 49.6406 88.8906 50.0247 89.0469 50.3398C89.2057 50.6523 89.4258 50.8906 89.707 51.0547C89.9883 51.2161 90.3151 51.2969 90.6875 51.2969C90.9297 51.2969 91.1484 51.263 91.3438 51.1953C91.5417 51.125 91.7122 51.0208 91.8555 50.8828C91.9987 50.7422 92.1094 50.5677 92.1875 50.3594L93.0781 50.6094C92.9844 50.9115 92.8268 51.1771 92.6055 51.4062C92.3841 51.6328 92.1107 51.8099 91.7852 51.9375C91.4596 52.0625 91.0938 52.125 90.6875 52.125ZM100.105 52.125C99.5638 52.125 99.0885 51.9961 98.6797 51.7383C98.2734 51.4805 97.9557 51.1198 97.7266 50.6562C97.5 50.1927 97.3867 49.651 97.3867 49.0312C97.3867 48.4062 97.5 47.8607 97.7266 47.3945C97.9557 46.9284 98.2734 46.5664 98.6797 46.3086C99.0885 46.0508 99.5638 45.9219 100.105 45.9219C100.647 45.9219 101.121 46.0508 101.527 46.3086C101.936 46.5664 102.254 46.9284 102.48 47.3945C102.71 47.8607 102.824 48.4062 102.824 49.0312C102.824 49.651 102.71 50.1927 102.48 50.6562C102.254 51.1198 101.936 51.4805 101.527 51.7383C101.121 51.9961 100.647 52.125 100.105 52.125ZM100.105 51.2969C100.517 51.2969 100.855 51.1914 101.121 50.9805C101.387 50.7695 101.583 50.4922 101.711 50.1484C101.839 49.8047 101.902 49.4323 101.902 49.0312C101.902 48.6302 101.839 48.2565 101.711 47.9102C101.583 47.5638 101.387 47.2839 101.121 47.0703C100.855 46.8568 100.517 46.75 100.105 46.75C99.694 46.75 99.3555 46.8568 99.0898 47.0703C98.8242 47.2839 98.6276 47.5638 98.5 47.9102C98.3724 48.2565 98.3086 48.6302 98.3086 49.0312C98.3086 49.4323 98.3724 49.8047 98.5 50.1484C98.6276 50.4922 98.8242 50.7695 99.0898 50.9805C99.3555 51.1914 99.694 51.2969 100.105 51.2969ZM105.153 48.3906V52H104.231V46H105.122V46.9375H105.2C105.341 46.6328 105.554 46.388 105.841 46.2031C106.127 46.0156 106.497 45.9219 106.95 45.9219C107.356 45.9219 107.712 46.0052 108.017 46.1719C108.321 46.3359 108.558 46.5859 108.728 46.9219C108.897 47.2552 108.981 47.6771 108.981 48.1875V52H108.06V48.25C108.06 47.7786 107.937 47.4115 107.692 47.1484C107.448 46.8828 107.112 46.75 106.685 46.75C106.39 46.75 106.127 46.8138 105.896 46.9414C105.666 47.069 105.485 47.2552 105.353 47.5C105.22 47.7448 105.153 48.0417 105.153 48.3906ZM116.557 44V52H115.588V45.0156H115.541L113.588 46.3125V45.3281L115.588 44H116.557ZM118.857 52V51.2969L121.498 48.4062C121.808 48.0677 122.063 47.7734 122.264 47.5234C122.464 47.2708 122.613 47.0339 122.709 46.8125C122.808 46.5885 122.857 46.3542 122.857 46.1094C122.857 45.8281 122.79 45.5846 122.654 45.3789C122.521 45.1732 122.339 45.0143 122.107 44.9023C121.876 44.7904 121.615 44.7344 121.326 44.7344C121.019 44.7344 120.751 44.7982 120.521 44.9258C120.295 45.0508 120.119 45.2266 119.994 45.4531C119.872 45.6797 119.811 45.9453 119.811 46.25H118.889C118.889 45.7812 118.997 45.3698 119.213 45.0156C119.429 44.6615 119.723 44.3854 120.096 44.1875C120.471 43.9896 120.891 43.8906 121.357 43.8906C121.826 43.8906 122.242 43.9896 122.604 44.1875C122.965 44.3854 123.249 44.6523 123.455 44.9883C123.661 45.3242 123.764 45.6979 123.764 46.1094C123.764 46.4036 123.71 46.6914 123.604 46.9727C123.499 47.2513 123.317 47.5625 123.057 47.9062C122.799 48.2474 122.441 48.6641 121.982 49.1562L120.186 51.0781V51.1406H123.904V52H118.857ZM128.752 52V44H133.549V44.8594H129.721V47.5625H133.189V48.4219H129.721V52H128.752ZM137.158 52.125C136.58 52.125 136.081 51.9974 135.662 51.7422C135.245 51.4844 134.924 51.125 134.697 50.6641C134.473 50.2005 134.361 49.6615 134.361 49.0469C134.361 48.4323 134.473 47.8906 134.697 47.4219C134.924 46.9505 135.239 46.5833 135.643 46.3203C136.049 46.0547 136.523 45.9219 137.064 45.9219C137.377 45.9219 137.686 45.974 137.99 46.0781C138.295 46.1823 138.572 46.3516 138.822 46.5859C139.072 46.8177 139.271 47.125 139.42 47.5078C139.568 47.8906 139.643 48.362 139.643 48.9219V49.3125H135.018V48.5156H138.705C138.705 48.1771 138.637 47.875 138.502 47.6094C138.369 47.3437 138.179 47.1341 137.932 46.9805C137.687 46.8268 137.398 46.75 137.064 46.75C136.697 46.75 136.38 46.8411 136.111 47.0234C135.846 47.2031 135.641 47.4375 135.498 47.7266C135.355 48.0156 135.283 48.3255 135.283 48.6562V49.1875C135.283 49.6406 135.361 50.0247 135.518 50.3398C135.676 50.6523 135.896 50.8906 136.178 51.0547C136.459 51.2161 136.786 51.2969 137.158 51.2969C137.4 51.2969 137.619 51.263 137.814 51.1953C138.012 51.125 138.183 51.0208 138.326 50.8828C138.469 50.7422 138.58 50.5677 138.658 50.3594L139.549 50.6094C139.455 50.9115 139.298 51.1771 139.076 51.4062C138.855 51.6328 138.581 51.8099 138.256 51.9375C137.93 52.0625 137.564 52.125 137.158 52.125ZM141.17 52V44H142.092V46.9531H142.17C142.238 46.849 142.331 46.7161 142.451 46.5547C142.574 46.3906 142.748 46.2448 142.975 46.1172C143.204 45.987 143.514 45.9219 143.904 45.9219C144.41 45.9219 144.855 46.0482 145.24 46.3008C145.626 46.5534 145.926 46.9115 146.143 47.375C146.359 47.8385 146.467 48.3854 146.467 49.0156C146.467 49.651 146.359 50.2018 146.143 50.668C145.926 51.1315 145.627 51.4909 145.244 51.7461C144.861 51.9987 144.42 52.125 143.92 52.125C143.535 52.125 143.226 52.0612 142.994 51.9336C142.762 51.8034 142.584 51.6562 142.459 51.4922C142.334 51.3255 142.238 51.1875 142.17 51.0781H142.061V52H141.17ZM142.076 49C142.076 49.4531 142.143 49.8529 142.275 50.1992C142.408 50.543 142.602 50.8125 142.857 51.0078C143.113 51.2005 143.425 51.2969 143.795 51.2969C144.18 51.2969 144.502 51.1953 144.76 50.9922C145.02 50.7865 145.215 50.5104 145.346 50.1641C145.479 49.8151 145.545 49.4271 145.545 49C145.545 48.5781 145.48 48.1979 145.35 47.8594C145.222 47.5182 145.028 47.2487 144.768 47.0508C144.51 46.8503 144.186 46.75 143.795 46.75C143.42 46.75 143.105 46.8451 142.85 47.0352C142.594 47.2227 142.402 47.4857 142.271 47.8242C142.141 48.1602 142.076 48.5521 142.076 49ZM150.955 52V51.2969L153.596 48.4062C153.906 48.0677 154.161 47.7734 154.361 47.5234C154.562 47.2708 154.71 47.0339 154.807 46.8125C154.906 46.5885 154.955 46.3542 154.955 46.1094C154.955 45.8281 154.887 45.5846 154.752 45.3789C154.619 45.1732 154.437 45.0143 154.205 44.9023C153.973 44.7904 153.713 44.7344 153.424 44.7344C153.117 44.7344 152.848 44.7982 152.619 44.9258C152.393 45.0508 152.217 45.2266 152.092 45.4531C151.969 45.6797 151.908 45.9453 151.908 46.25H150.986C150.986 45.7812 151.094 45.3698 151.311 45.0156C151.527 44.6615 151.821 44.3854 152.193 44.1875C152.568 43.9896 152.989 43.8906 153.455 43.8906C153.924 43.8906 154.339 43.9896 154.701 44.1875C155.063 44.3854 155.347 44.6523 155.553 44.9883C155.758 45.3242 155.861 45.6979 155.861 46.1094C155.861 46.4036 155.808 46.6914 155.701 46.9727C155.597 47.2513 155.415 47.5625 155.154 47.9062C154.896 48.2474 154.538 48.6641 154.08 49.1562L152.283 51.0781V51.1406H156.002V52H150.955ZM160.225 52.1094C159.636 52.1094 159.135 51.9492 158.721 51.6289C158.307 51.306 157.99 50.8385 157.771 50.2266C157.553 49.612 157.443 48.8698 157.443 48C157.443 47.1354 157.553 46.3971 157.771 45.7852C157.993 45.1706 158.311 44.7018 158.725 44.3789C159.141 44.0534 159.641 43.8906 160.225 43.8906C160.808 43.8906 161.307 44.0534 161.721 44.3789C162.137 44.7018 162.455 45.1706 162.674 45.7852C162.895 46.3971 163.006 47.1354 163.006 48C163.006 48.8698 162.896 49.612 162.678 50.2266C162.459 50.8385 162.143 51.306 161.729 51.6289C161.314 51.9492 160.813 52.1094 160.225 52.1094ZM160.225 51.25C160.808 51.25 161.261 50.9687 161.584 50.4062C161.907 49.8437 162.068 49.0417 162.068 48C162.068 47.3073 161.994 46.7174 161.846 46.2305C161.7 45.7435 161.489 45.3724 161.213 45.1172C160.939 44.862 160.61 44.7344 160.225 44.7344C159.646 44.7344 159.195 45.0195 158.869 45.5898C158.544 46.1576 158.381 46.9609 158.381 48C158.381 48.6927 158.454 49.2812 158.6 49.7656C158.745 50.25 158.955 50.6185 159.229 50.8711C159.505 51.1237 159.837 51.25 160.225 51.25ZM164.49 52V51.2969L167.131 48.4062C167.441 48.0677 167.696 47.7734 167.896 47.5234C168.097 47.2708 168.245 47.0339 168.342 46.8125C168.441 46.5885 168.49 46.3542 168.49 46.1094C168.49 45.8281 168.423 45.5846 168.287 45.3789C168.154 45.1732 167.972 45.0143 167.74 44.9023C167.508 44.7904 167.248 44.7344 166.959 44.7344C166.652 44.7344 166.383 44.7982 166.154 44.9258C165.928 45.0508 165.752 45.2266 165.627 45.4531C165.505 45.6797 165.443 45.9453 165.443 46.25H164.521C164.521 45.7812 164.63 45.3698 164.846 45.0156C165.062 44.6615 165.356 44.3854 165.729 44.1875C166.104 43.9896 166.524 43.8906 166.99 43.8906C167.459 43.8906 167.874 43.9896 168.236 44.1875C168.598 44.3854 168.882 44.6523 169.088 44.9883C169.294 45.3242 169.396 45.6979 169.396 46.1094C169.396 46.4036 169.343 46.6914 169.236 46.9727C169.132 47.2513 168.95 47.5625 168.689 47.9062C168.432 48.2474 168.074 48.6641 167.615 49.1562L165.818 51.0781V51.1406H169.537V52H164.49ZM171.15 52V51.2969L173.791 48.4062C174.101 48.0677 174.356 47.7734 174.557 47.5234C174.757 47.2708 174.906 47.0339 175.002 46.8125C175.101 46.5885 175.15 46.3542 175.15 46.1094C175.15 45.8281 175.083 45.5846 174.947 45.3789C174.814 45.1732 174.632 45.0143 174.4 44.9023C174.169 44.7904 173.908 44.7344 173.619 44.7344C173.312 44.7344 173.044 44.7982 172.814 44.9258C172.588 45.0508 172.412 45.2266 172.287 45.4531C172.165 45.6797 172.104 45.9453 172.104 46.25H171.182C171.182 45.7812 171.29 45.3698 171.506 45.0156C171.722 44.6615 172.016 44.3854 172.389 44.1875C172.764 43.9896 173.184 43.8906 173.65 43.8906C174.119 43.8906 174.535 43.9896 174.896 44.1875C175.258 44.3854 175.542 44.6523 175.748 44.9883C175.954 45.3242 176.057 45.6979 176.057 46.1094C176.057 46.4036 176.003 46.6914 175.896 46.9727C175.792 47.2513 175.61 47.5625 175.35 47.9062C175.092 48.2474 174.734 48.6641 174.275 49.1562L172.479 51.0781V51.1406H176.197V52H171.15Z" fill="#333333"/>
<rect x="223" y="21.5" width="89" height="28" rx="8" fill="#1C3FCA"/>
<path d="M239.94 39.5V30.7727H243.383C244.045 30.7727 244.609 30.8991 245.075 31.152C245.541 31.402 245.896 31.75 246.14 32.196C246.388 32.6392 246.511 33.1506 246.511 33.7301C246.511 34.3097 246.386 34.821 246.136 35.2642C245.886 35.7074 245.524 36.0526 245.05 36.2997C244.578 36.5469 244.007 36.6705 243.336 36.6705H241.142V35.1918H243.038C243.393 35.1918 243.686 35.1307 243.916 35.0085C244.149 34.8835 244.322 34.7116 244.436 34.4929C244.552 34.2713 244.611 34.017 244.611 33.7301C244.611 33.4403 244.552 33.1875 244.436 32.9716C244.322 32.7528 244.149 32.5838 243.916 32.4645C243.683 32.3423 243.388 32.2812 243.03 32.2812H241.785V39.5H239.94ZM248.206 39.5H246.229L249.242 30.7727H251.619L254.628 39.5H252.651L250.465 32.767H250.396L248.206 39.5ZM248.083 36.0696H252.753V37.5099H248.083V36.0696ZM254.276 30.7727H256.343L258.333 34.5312H258.419L260.409 30.7727H262.475L259.292 36.4148V39.5H257.46V36.4148L254.276 30.7727ZM273.56 30.7727V39.5H271.966L268.17 34.0071H268.106V39.5H266.26V30.7727H267.88L271.647 36.2614H271.724V30.7727H273.56ZM283.105 35.1364C283.105 36.0881 282.924 36.8977 282.563 37.5653C282.205 38.233 281.717 38.7429 281.097 39.0952C280.481 39.4446 279.788 39.6193 279.018 39.6193C278.242 39.6193 277.546 39.4432 276.93 39.0909C276.313 38.7386 275.826 38.2287 275.468 37.5611C275.11 36.8935 274.931 36.0852 274.931 35.1364C274.931 34.1847 275.11 33.375 275.468 32.7074C275.826 32.0398 276.313 31.5312 276.93 31.1818C277.546 30.8295 278.242 30.6534 279.018 30.6534C279.788 30.6534 280.481 30.8295 281.097 31.1818C281.717 31.5312 282.205 32.0398 282.563 32.7074C282.924 33.375 283.105 34.1847 283.105 35.1364ZM281.234 35.1364C281.234 34.5199 281.142 34 280.957 33.5767C280.775 33.1534 280.518 32.8324 280.186 32.6136C279.853 32.3949 279.464 32.2855 279.018 32.2855C278.572 32.2855 278.183 32.3949 277.85 32.6136C277.518 32.8324 277.259 33.1534 277.075 33.5767C276.893 34 276.802 34.5199 276.802 35.1364C276.802 35.7528 276.893 36.2727 277.075 36.696C277.259 37.1193 277.518 37.4403 277.85 37.6591C278.183 37.8778 278.572 37.9872 279.018 37.9872C279.464 37.9872 279.853 37.8778 280.186 37.6591C280.518 37.4403 280.775 37.1193 280.957 36.696C281.142 36.2727 281.234 35.7528 281.234 35.1364ZM286.108 39.5L283.611 30.7727H285.626L287.071 36.8366H287.143L288.737 30.7727H290.463L292.052 36.8494H292.129L293.574 30.7727H295.589L293.092 39.5H291.294L289.632 33.794H289.564L287.906 39.5H286.108Z" fill="white"/>
<rect x="0.5" y="79.5" width="327" height="68" rx="11.5" fill="white"/>
<rect x="0.5" y="79.5" width="327" height="68" rx="11.5" stroke="#E7EEF4"/>
<path d="M16.483 99.5085V98.7273H21.9375V99.5085H19.6506V106H18.7699V99.5085H16.483ZM29.1303 102.364C29.1303 103.131 28.9918 103.794 28.7148 104.352C28.4379 104.911 28.0579 105.342 27.5749 105.645C27.092 105.948 26.5404 106.099 25.9201 106.099C25.2998 106.099 24.7482 105.948 24.2653 105.645C23.7823 105.342 23.4023 104.911 23.1254 104.352C22.8484 103.794 22.7099 103.131 22.7099 102.364C22.7099 101.597 22.8484 100.934 23.1254 100.375C23.4023 99.8163 23.7823 99.3854 24.2653 99.0824C24.7482 98.7794 25.2998 98.6278 25.9201 98.6278C26.5404 98.6278 27.092 98.7794 27.5749 99.0824C28.0579 99.3854 28.4379 99.8163 28.7148 100.375C28.9918 100.934 29.1303 101.597 29.1303 102.364ZM28.2781 102.364C28.2781 101.734 28.1727 101.202 27.962 100.769C27.7537 100.336 27.4708 100.008 27.1133 99.7855C26.7582 99.563 26.3604 99.4517 25.9201 99.4517C25.4798 99.4517 25.0808 99.563 24.7234 99.7855C24.3683 100.008 24.0853 100.336 23.8746 100.769C23.6663 101.202 23.5621 101.734 23.5621 102.364C23.5621 102.993 23.6663 103.525 23.8746 103.958C24.0853 104.391 24.3683 104.719 24.7234 104.942C25.0808 105.164 25.4798 105.276 25.9201 105.276C26.3604 105.276 26.7582 105.164 27.1133 104.942C27.4708 104.719 27.7537 104.391 27.962 103.958C28.1727 103.525 28.2781 102.993 28.2781 102.364ZM29.9107 99.5085V98.7273H35.3652V99.5085H33.0783V106H32.1976V99.5085H29.9107ZM36.1731 106H35.2498L37.9203 98.7273H38.8294L41.4998 106H40.5765L38.4032 99.8778H38.3464L36.1731 106ZM36.514 103.159H40.2356V103.94H36.514V103.159ZM42.6326 106V98.7273H43.5133V105.219H46.894V106H42.6326ZM57.2065 102.364C57.2065 103.131 57.068 103.794 56.791 104.352C56.514 104.911 56.1341 105.342 55.6511 105.645C55.1681 105.948 54.6165 106.099 53.9963 106.099C53.376 106.099 52.8244 105.948 52.3414 105.645C51.8585 105.342 51.4785 104.911 51.2015 104.352C50.9245 103.794 50.786 103.131 50.786 102.364C50.786 101.597 50.9245 100.934 51.2015 100.375C51.4785 99.8163 51.8585 99.3854 52.3414 99.0824C52.8244 98.7794 53.376 98.6278 53.9963 98.6278C54.6165 98.6278 55.1681 98.7794 55.6511 99.0824C56.1341 99.3854 56.514 99.8163 56.791 100.375C57.068 100.934 57.2065 101.597 57.2065 102.364ZM56.3542 102.364C56.3542 101.734 56.2489 101.202 56.0382 100.769C55.8298 100.336 55.5469 100.008 55.1895 99.7855C54.8343 99.563 54.4366 99.4517 53.9963 99.4517C53.5559 99.4517 53.157 99.563 52.7995 99.7855C52.4444 100.008 52.1615 100.336 51.9508 100.769C51.7425 101.202 51.6383 101.734 51.6383 102.364C51.6383 102.993 51.7425 103.525 51.9508 103.958C52.1615 104.391 52.4444 104.719 52.7995 104.942C53.157 105.164 53.5559 105.276 53.9963 105.276C54.4366 105.276 54.8343 105.164 55.1895 104.942C55.5469 104.719 55.8298 104.391 56.0382 103.958C56.2489 103.525 56.3542 102.993 56.3542 102.364ZM63.46 98.7273H64.3407V103.543C64.3407 104.04 64.2235 104.484 63.9892 104.874C63.7572 105.263 63.4293 105.569 63.0055 105.794C62.5817 106.017 62.0846 106.128 61.514 106.128C60.9435 106.128 60.4463 106.017 60.0225 105.794C59.5988 105.569 59.2697 105.263 59.0353 104.874C58.8033 104.484 58.6873 104.04 58.6873 103.543V98.7273H59.568V103.472C59.568 103.827 59.6461 104.143 59.8024 104.42C59.9586 104.694 60.1812 104.911 60.47 105.07C60.7612 105.226 61.1092 105.304 61.514 105.304C61.9189 105.304 62.2669 105.226 62.5581 105.07C62.8493 104.911 63.0718 104.694 63.2257 104.42C63.3819 104.143 63.46 103.827 63.46 103.472V98.7273ZM65.7017 99.5085V98.7273H71.1562V99.5085H68.8693V106H67.9886V99.5085H65.7017ZM76.4927 100.545C76.4501 100.186 76.2773 99.9062 75.9743 99.7074C75.6712 99.5085 75.2995 99.4091 74.8592 99.4091C74.5372 99.4091 74.2555 99.4612 74.014 99.5653C73.7749 99.6695 73.5879 99.8127 73.4529 99.995C73.3204 100.177 73.2541 100.384 73.2541 100.616C73.2541 100.811 73.3002 100.978 73.3926 101.117C73.4873 101.254 73.608 101.369 73.7548 101.462C73.9016 101.552 74.0555 101.626 74.2164 101.685C74.3774 101.742 74.5254 101.788 74.6603 101.824L75.399 102.023C75.5884 102.072 75.7991 102.141 76.0311 102.229C76.2654 102.316 76.4892 102.436 76.7022 102.587C76.9177 102.737 77.0952 102.928 77.2349 103.163C77.3746 103.397 77.4444 103.685 77.4444 104.026C77.4444 104.419 77.3414 104.774 77.1355 105.091C76.9319 105.408 76.6336 105.66 76.2406 105.847C75.85 106.034 75.3753 106.128 74.8166 106.128C74.2958 106.128 73.8448 106.044 73.4636 105.876C73.0848 105.708 72.7865 105.473 72.5687 105.173C72.3533 104.872 72.2314 104.523 72.2029 104.125H73.112C73.1357 104.4 73.228 104.627 73.389 104.807C73.5524 104.984 73.7583 105.117 74.0069 105.205C74.2579 105.29 74.5278 105.332 74.8166 105.332C75.1528 105.332 75.4546 105.278 75.7221 105.169C75.9896 105.058 76.2015 104.904 76.3578 104.707C76.514 104.509 76.5922 104.277 76.5922 104.011C76.5922 103.77 76.5247 103.573 76.3897 103.422C76.2548 103.27 76.0772 103.147 75.8571 103.053C75.6369 102.958 75.399 102.875 75.1433 102.804L74.2484 102.548C73.6802 102.385 73.2304 102.152 72.899 101.849C72.5675 101.546 72.4018 101.149 72.4018 100.659C72.4018 100.252 72.5119 99.8968 72.7321 99.5938C72.9546 99.2884 73.2529 99.0516 73.627 98.8835C74.0034 98.7131 74.4236 98.6278 74.8876 98.6278C75.3564 98.6278 75.773 98.7119 76.1376 98.88C76.5022 99.0457 76.791 99.273 77.0041 99.5618C77.2195 99.8506 77.3332 100.179 77.345 100.545H76.4927ZM78.4947 99.5085V98.7273H83.9492V99.5085H81.6623V106H80.7816V99.5085H78.4947ZM84.7571 106H83.8338L86.5043 98.7273H87.4134L90.0838 106H89.1605L86.9872 99.8778H86.9304L84.7571 106ZM85.098 103.159H88.8196V103.94H85.098V103.159ZM96.9837 98.7273V106H96.1314L92.1683 100.29H92.0973V106H91.2166V98.7273H92.0689L96.0462 104.452H96.1172V98.7273H96.9837ZM100.99 106H98.7459V98.7273H101.09C101.795 98.7273 102.399 98.8729 102.901 99.1641C103.403 99.4529 103.787 99.8684 104.055 100.411C104.322 100.95 104.456 101.597 104.456 102.349C104.456 103.107 104.321 103.759 104.051 104.306C103.781 104.851 103.388 105.27 102.872 105.563C102.356 105.854 101.729 106 100.99 106ZM99.6266 105.219H100.933C101.535 105.219 102.033 105.103 102.428 104.871C102.824 104.639 103.119 104.308 103.313 103.88C103.507 103.451 103.604 102.941 103.604 102.349C103.604 101.762 103.508 101.257 103.316 100.833C103.124 100.407 102.838 100.08 102.457 99.853C102.076 99.6233 101.601 99.5085 101.033 99.5085H99.6266V105.219ZM106.814 98.7273V106H105.933V98.7273H106.814ZM114.347 98.7273V106H113.495L109.532 100.29H109.461V106H108.58V98.7273H109.432L113.409 104.452H113.48V98.7273H114.347ZM121.081 101C121.003 100.761 120.9 100.547 120.772 100.357C120.646 100.165 120.496 100.002 120.321 99.8672C120.148 99.7322 119.952 99.6293 119.731 99.5582C119.511 99.4872 119.27 99.4517 119.007 99.4517C118.576 99.4517 118.184 99.563 117.831 99.7855C117.479 100.008 117.198 100.336 116.99 100.769C116.782 101.202 116.677 101.734 116.677 102.364C116.677 102.993 116.783 103.525 116.993 103.958C117.204 104.391 117.489 104.719 117.849 104.942C118.209 105.164 118.614 105.276 119.064 105.276C119.48 105.276 119.847 105.187 120.165 105.009C120.484 104.829 120.733 104.576 120.91 104.249C121.09 103.92 121.18 103.533 121.18 103.088L121.45 103.145H119.263V102.364H122.032V103.145C122.032 103.744 121.905 104.265 121.649 104.707C121.396 105.15 121.045 105.493 120.598 105.737C120.153 105.979 119.641 106.099 119.064 106.099C118.42 106.099 117.854 105.948 117.366 105.645C116.881 105.342 116.502 104.911 116.23 104.352C115.96 103.794 115.825 103.131 115.825 102.364C115.825 101.788 115.902 101.271 116.056 100.812C116.212 100.35 116.432 99.9571 116.716 99.6328C117.001 99.3085 117.337 99.0599 117.725 98.8871C118.113 98.7143 118.541 98.6278 119.007 98.6278C119.39 98.6278 119.748 98.6858 120.079 98.8018C120.413 98.9155 120.71 99.0777 120.971 99.2884C121.233 99.4967 121.452 99.7464 121.628 100.038C121.803 100.326 121.924 100.647 121.99 101H121.081Z" fill="#333333"/>
<path d="M24.6136 119.25L24.1989 120.83H16.5795L16.9886 119.25H24.6136ZM20.6534 128L16.767 123.375L16.7727 121.955H18.6932C19.1212 121.955 19.4792 121.875 19.767 121.716C20.0549 121.557 20.2708 121.341 20.4148 121.068C20.5587 120.795 20.6326 120.485 20.6364 120.136C20.6326 119.614 20.4792 119.187 20.1761 118.858C19.8769 118.525 19.3826 118.358 18.6932 118.358H16.5795L17.0455 116.364H18.6932C19.6591 116.364 20.464 116.509 21.108 116.801C21.7557 117.089 22.2405 117.5 22.5625 118.034C22.8883 118.568 23.053 119.205 23.0568 119.943C23.053 120.598 22.9432 121.17 22.7273 121.659C22.5152 122.148 22.1799 122.555 21.7216 122.881C21.267 123.206 20.6742 123.449 19.9432 123.608L19.8523 123.642L23.3295 127.898V128H20.6534ZM24.625 116.364L24.1989 117.966H17.9261L18.3523 116.364H24.625ZM30.6932 128.256C29.7159 128.252 28.875 128.011 28.1705 127.534C27.4697 127.057 26.9299 126.366 26.5511 125.46C26.1761 124.555 25.9905 123.466 25.9943 122.193C25.9943 120.924 26.1818 119.843 26.5568 118.949C26.9356 118.055 27.4754 117.375 28.1761 116.909C28.8807 116.439 29.7197 116.205 30.6932 116.205C31.6667 116.205 32.5038 116.439 33.2045 116.909C33.9091 117.379 34.4508 118.061 34.8295 118.955C35.2083 119.845 35.3958 120.924 35.392 122.193C35.392 123.47 35.2027 124.561 34.8239 125.466C34.4489 126.371 33.911 127.062 33.2102 127.54C32.5095 128.017 31.6705 128.256 30.6932 128.256ZM30.6932 126.216C31.3598 126.216 31.892 125.881 32.2898 125.21C32.6875 124.54 32.8845 123.534 32.8807 122.193C32.8807 121.311 32.7898 120.576 32.608 119.989C32.4299 119.402 32.1761 118.96 31.8466 118.665C31.5208 118.369 31.1364 118.222 30.6932 118.222C30.0303 118.222 29.5 118.553 29.1023 119.216C28.7045 119.879 28.5038 120.871 28.5 122.193C28.5 123.087 28.589 123.833 28.767 124.432C28.9489 125.027 29.2045 125.473 29.5341 125.773C29.8636 126.068 30.25 126.216 30.6932 126.216ZM38.1151 128.148C37.7401 128.148 37.4181 128.015 37.1491 127.75C36.884 127.481 36.7514 127.159 36.7514 126.784C36.7514 126.413 36.884 126.095 37.1491 125.83C37.4181 125.564 37.7401 125.432 38.1151 125.432C38.4787 125.432 38.7969 125.564 39.0696 125.83C39.3423 126.095 39.4787 126.413 39.4787 126.784C39.4787 127.034 39.4143 127.263 39.2855 127.472C39.1605 127.676 38.9957 127.841 38.7912 127.966C38.5866 128.087 38.3613 128.148 38.1151 128.148ZM45.5369 128.256C44.5597 128.252 43.7188 128.011 43.0142 127.534C42.3134 127.057 41.7737 126.366 41.3949 125.46C41.0199 124.555 40.8343 123.466 40.8381 122.193C40.8381 120.924 41.0256 119.843 41.4006 118.949C41.7794 118.055 42.3191 117.375 43.0199 116.909C43.7244 116.439 44.5634 116.205 45.5369 116.205C46.5104 116.205 47.3475 116.439 48.0483 116.909C48.7528 117.379 49.2945 118.061 49.6733 118.955C50.0521 119.845 50.2396 120.924 50.2358 122.193C50.2358 123.47 50.0464 124.561 49.6676 125.466C49.2926 126.371 48.7547 127.062 48.054 127.54C47.3532 128.017 46.5142 128.256 45.5369 128.256ZM45.5369 126.216C46.2036 126.216 46.7358 125.881 47.1335 125.21C47.5313 124.54 47.7282 123.534 47.7244 122.193C47.7244 121.311 47.6335 120.576 47.4517 119.989C47.2737 119.402 47.0199 118.96 46.6903 118.665C46.3646 118.369 45.9801 118.222 45.5369 118.222C44.8741 118.222 44.3438 118.553 43.946 119.216C43.5483 119.879 43.3475 120.871 43.3438 122.193C43.3438 123.087 43.4328 123.833 43.6108 124.432C43.7926 125.027 44.0483 125.473 44.3778 125.773C44.7074 126.068 45.0938 126.216 45.5369 126.216ZM56.5526 128.256C55.5753 128.252 54.7344 128.011 54.0298 127.534C53.3291 127.057 52.7893 126.366 52.4105 125.46C52.0355 124.555 51.8499 123.466 51.8537 122.193C51.8537 120.924 52.0412 119.843 52.4162 118.949C52.795 118.055 53.3348 117.375 54.0355 116.909C54.7401 116.439 55.5791 116.205 56.5526 116.205C57.526 116.205 58.3632 116.439 59.0639 116.909C59.7685 117.379 60.3101 118.061 60.6889 118.955C61.0677 119.845 61.2552 120.924 61.2514 122.193C61.2514 123.47 61.062 124.561 60.6832 125.466C60.3082 126.371 59.7704 127.062 59.0696 127.54C58.3688 128.017 57.5298 128.256 56.5526 128.256ZM56.5526 126.216C57.2192 126.216 57.7514 125.881 58.1491 125.21C58.5469 124.54 58.7438 123.534 58.7401 122.193C58.7401 121.311 58.6491 120.576 58.4673 119.989C58.2893 119.402 58.0355 118.96 57.706 118.665C57.3802 118.369 56.9957 118.222 56.5526 118.222C55.8897 118.222 55.3594 118.553 54.9616 119.216C54.5639 119.879 54.3632 120.871 54.3594 122.193C54.3594 123.087 54.4484 123.833 54.6264 124.432C54.8082 125.027 55.0639 125.473 55.3935 125.773C55.723 126.068 56.1094 126.216 56.5526 126.216Z" fill="#333333"/>
<rect x="163.5" y="95" width="1" height="37" fill="#EBF4FF"/>
<path d="M180.983 99.5085V98.7273H186.438V99.5085H184.151V106H183.27V99.5085H180.983ZM193.63 102.364C193.63 103.131 193.492 103.794 193.215 104.352C192.938 104.911 192.558 105.342 192.075 105.645C191.592 105.948 191.04 106.099 190.42 106.099C189.8 106.099 189.248 105.948 188.765 105.645C188.282 105.342 187.902 104.911 187.625 104.352C187.348 103.794 187.21 103.131 187.21 102.364C187.21 101.597 187.348 100.934 187.625 100.375C187.902 99.8163 188.282 99.3854 188.765 99.0824C189.248 98.7794 189.8 98.6278 190.42 98.6278C191.04 98.6278 191.592 98.7794 192.075 99.0824C192.558 99.3854 192.938 99.8163 193.215 100.375C193.492 100.934 193.63 101.597 193.63 102.364ZM192.778 102.364C192.778 101.734 192.673 101.202 192.462 100.769C192.254 100.336 191.971 100.008 191.613 99.7855C191.258 99.563 190.86 99.4517 190.42 99.4517C189.98 99.4517 189.581 99.563 189.223 99.7855C188.868 100.008 188.585 100.336 188.375 100.769C188.166 101.202 188.062 101.734 188.062 102.364C188.062 102.993 188.166 103.525 188.375 103.958C188.585 104.391 188.868 104.719 189.223 104.942C189.581 105.164 189.98 105.276 190.42 105.276C190.86 105.276 191.258 105.164 191.613 104.942C191.971 104.719 192.254 104.391 192.462 103.958C192.673 103.525 192.778 102.993 192.778 102.364ZM194.411 99.5085V98.7273H199.865V99.5085H197.578V106H196.698V99.5085H194.411ZM200.673 106H199.75L202.42 98.7273H203.329L206 106H205.077L202.903 99.8778H202.846L200.673 106ZM201.014 103.159H204.736V103.94H201.014V103.159ZM207.133 106V98.7273H208.013V105.219H211.394V106H207.133ZM220.343 98.7273H221.224V103.543C221.224 104.04 221.106 104.484 220.872 104.874C220.64 105.263 220.312 105.569 219.888 105.794C219.465 106.017 218.967 106.128 218.397 106.128C217.826 106.128 217.329 106.017 216.905 105.794C216.482 105.569 216.153 105.263 215.918 104.874C215.686 104.484 215.57 104.04 215.57 103.543V98.7273H216.451V103.472C216.451 103.827 216.529 104.143 216.685 104.42C216.841 104.694 217.064 104.911 217.353 105.07C217.644 105.226 217.992 105.304 218.397 105.304C218.802 105.304 219.15 105.226 219.441 105.07C219.732 104.911 219.955 104.694 220.108 104.42C220.265 104.143 220.343 103.827 220.343 103.472V98.7273ZM228.749 98.7273V106H227.897L223.934 100.29H223.863V106H222.982V98.7273H223.835L227.812 104.452H227.883V98.7273H228.749ZM230.512 106V98.7273H233.054C233.561 98.7273 233.979 98.8149 234.308 98.9901C234.637 99.1629 234.882 99.3961 235.043 99.6896C235.204 99.9808 235.284 100.304 235.284 100.659C235.284 100.972 235.229 101.23 235.117 101.433C235.008 101.637 234.864 101.798 234.684 101.916C234.507 102.035 234.314 102.122 234.105 102.179V102.25C234.328 102.264 234.552 102.342 234.776 102.484C235.001 102.626 235.19 102.83 235.341 103.095C235.493 103.36 235.568 103.685 235.568 104.068C235.568 104.433 235.485 104.761 235.32 105.052C235.154 105.343 234.892 105.574 234.535 105.744C234.177 105.915 233.712 106 233.139 106H230.512ZM231.392 105.219H233.139C233.715 105.219 234.123 105.107 234.365 104.885C234.608 104.66 234.73 104.388 234.73 104.068C234.73 103.822 234.668 103.595 234.542 103.386C234.417 103.176 234.238 103.008 234.006 102.882C233.774 102.754 233.499 102.69 233.182 102.69H231.392V105.219ZM231.392 101.923H233.026C233.291 101.923 233.53 101.871 233.743 101.767C233.959 101.663 234.129 101.516 234.254 101.327C234.382 101.137 234.446 100.915 234.446 100.659C234.446 100.339 234.335 100.068 234.112 99.8459C233.89 99.621 233.537 99.5085 233.054 99.5085H231.392V101.923ZM237.896 98.7273V106H237.015V98.7273H237.896ZM239.662 106V98.7273H240.543V105.219H243.923V106H239.662ZM245.287 106V98.7273H246.168V105.219H249.548V106H245.287ZM250.912 106V98.7273H255.301V99.5085H251.793V101.966H255.074V102.747H251.793V105.219H255.358V106H250.912ZM259.133 106H256.888V98.7273H259.232C259.938 98.7273 260.541 98.8729 261.043 99.1641C261.545 99.4529 261.93 99.8684 262.197 100.411C262.465 100.95 262.599 101.597 262.599 102.349C262.599 103.107 262.464 103.759 262.194 104.306C261.924 104.851 261.531 105.27 261.015 105.563C260.499 105.854 259.871 106 259.133 106ZM257.769 105.219H259.076C259.677 105.219 260.176 105.103 260.571 104.871C260.966 104.639 261.261 104.308 261.455 103.88C261.649 103.451 261.746 102.941 261.746 102.349C261.746 101.762 261.651 101.257 261.459 100.833C261.267 100.407 260.981 100.08 260.599 99.853C260.218 99.6233 259.744 99.5085 259.175 99.5085H257.769V105.219Z" fill="#333333"/>
<path d="M189.114 119.25L188.699 120.83H181.08L181.489 119.25H189.114ZM185.153 128L181.267 123.375L181.273 121.955H183.193C183.621 121.955 183.979 121.875 184.267 121.716C184.555 121.557 184.771 121.341 184.915 121.068C185.059 120.795 185.133 120.485 185.136 120.136C185.133 119.614 184.979 119.187 184.676 118.858C184.377 118.525 183.883 118.358 183.193 118.358H181.08L181.545 116.364H183.193C184.159 116.364 184.964 116.509 185.608 116.801C186.256 117.089 186.741 117.5 187.062 118.034C187.388 118.568 187.553 119.205 187.557 119.943C187.553 120.598 187.443 121.17 187.227 121.659C187.015 122.148 186.68 122.555 186.222 122.881C185.767 123.206 185.174 123.449 184.443 123.608L184.352 123.642L187.83 127.898V128H185.153ZM189.125 116.364L188.699 117.966H182.426L182.852 116.364H189.125ZM195.193 128.256C194.216 128.252 193.375 128.011 192.67 127.534C191.97 127.057 191.43 126.366 191.051 125.46C190.676 124.555 190.491 123.466 190.494 122.193C190.494 120.924 190.682 119.843 191.057 118.949C191.436 118.055 191.975 117.375 192.676 116.909C193.381 116.439 194.22 116.205 195.193 116.205C196.167 116.205 197.004 116.439 197.705 116.909C198.409 117.379 198.951 118.061 199.33 118.955C199.708 119.845 199.896 120.924 199.892 122.193C199.892 123.47 199.703 124.561 199.324 125.466C198.949 126.371 198.411 127.062 197.71 127.54C197.009 128.017 196.17 128.256 195.193 128.256ZM195.193 126.216C195.86 126.216 196.392 125.881 196.79 125.21C197.188 124.54 197.384 123.534 197.381 122.193C197.381 121.311 197.29 120.576 197.108 119.989C196.93 119.402 196.676 118.96 196.347 118.665C196.021 118.369 195.636 118.222 195.193 118.222C194.53 118.222 194 118.553 193.602 119.216C193.205 119.879 193.004 120.871 193 122.193C193 123.087 193.089 123.833 193.267 124.432C193.449 125.027 193.705 125.473 194.034 125.773C194.364 126.068 194.75 126.216 195.193 126.216Z" fill="#333333"/>
<path d="M306.448 123.167H298.333V121.834H306.448L302.872 118.258L303.815 117.315L309 122.5L303.815 127.686L302.872 126.743L306.448 123.167Z" fill="#1C3FCA"/>
</svg>