<svg width="352" height="87" viewBox="0 0 352 87" fill="none" xmlns="http://www.w3.org/2000/svg">
<g filter="url(#filter0_d_2051_30022)">
<rect x="31" y="8" width="44" height="44" rx="22" fill="#E6DDFE"/>
<path d="M45.9167 34.9993V25.8327C45.9167 22.4993 46.75 21.666 50.0834 21.666H55.9167C59.25 21.666 60.0834 22.4993 60.0834 25.8327V34.166C60.0834 34.2827 60.0834 34.3993 60.075 34.516" stroke="#7454F2" stroke-width="1.3" stroke-linecap="round" stroke-linejoin="round"/>
<path d="M48.2917 32.5H60.0834V35.4167C60.0834 37.025 58.775 38.3333 57.1667 38.3333H48.8334C47.225 38.3333 45.9167 37.025 45.9167 35.4167V34.875C45.9167 33.5667 46.9834 32.5 48.2917 32.5Z" stroke="#7454F2" stroke-width="1.3" stroke-linecap="round" stroke-linejoin="round"/>
<path d="M49.6667 25.834H56.3334" stroke="#7454F2" stroke-width="1.3" stroke-linecap="round" stroke-linejoin="round"/>
<path d="M49.6667 28.75H53.8334" stroke="#7454F2" stroke-width="1.3" stroke-linecap="round" stroke-linejoin="round"/>
<path d="M30.7422 62.1016C30.7005 61.7318 30.5286 61.4453 30.2266 61.2422C29.9245 61.0365 29.5443 60.9336 29.0859 60.9336C28.7578 60.9336 28.474 60.9857 28.2344 61.0898C27.9948 61.1914 27.8086 61.332 27.6758 61.5117C27.5456 61.6888 27.4805 61.8906 27.4805 62.1172C27.4805 62.3073 27.5247 62.4714 27.6133 62.6094C27.7044 62.7474 27.8229 62.8633 27.9688 62.957C28.1172 63.0482 28.276 63.125 28.4453 63.1875C28.6146 63.2474 28.7773 63.2969 28.9336 63.3359L29.7148 63.5391C29.9701 63.6016 30.2318 63.6862 30.5 63.793C30.7682 63.8997 31.0169 64.0404 31.2461 64.2148C31.4753 64.3893 31.6602 64.6055 31.8008 64.8633C31.944 65.1211 32.0156 65.4297 32.0156 65.7891C32.0156 66.2422 31.8984 66.6445 31.6641 66.9961C31.4323 67.3477 31.0951 67.625 30.6523 67.8281C30.2122 68.0313 29.6797 68.1328 29.0547 68.1328C28.4557 68.1328 27.9375 68.0378 27.5 67.8477C27.0625 67.6576 26.7201 67.388 26.4727 67.0391C26.2253 66.6875 26.0885 66.2708 26.0625 65.7891H27.2734C27.2969 66.0781 27.3906 66.319 27.5547 66.5117C27.7214 66.7018 27.9336 66.8437 28.1914 66.9375C28.4518 67.0286 28.737 67.0742 29.0469 67.0742C29.388 67.0742 29.6914 67.0208 29.957 66.9141C30.2253 66.8047 30.4362 66.6536 30.5898 66.4609C30.7435 66.2656 30.8203 66.0378 30.8203 65.7773C30.8203 65.5404 30.7526 65.3464 30.6172 65.1953C30.4844 65.0443 30.3034 64.9193 30.0742 64.8203C29.8477 64.7214 29.5911 64.6341 29.3047 64.5586L28.3594 64.3008C27.7188 64.1263 27.2109 63.8698 26.8359 63.5312C26.4635 63.1927 26.2773 62.7448 26.2773 62.1875C26.2773 61.7266 26.4023 61.3242 26.6523 60.9805C26.9023 60.6367 27.2409 60.3698 27.668 60.1797C28.0951 59.987 28.5768 59.8906 29.1133 59.8906C29.6549 59.8906 30.1328 59.9857 30.5469 60.1758C30.9635 60.3659 31.2917 60.6276 31.5313 60.9609C31.7708 61.2917 31.8958 61.6719 31.9063 62.1016H30.7422ZM36.165 62V62.9375H32.8877V62H36.165ZM33.7666 60.5625H34.9346V66.2383C34.9346 66.4648 34.9684 66.6354 35.0361 66.75C35.1038 66.862 35.1911 66.9388 35.2979 66.9805C35.4072 67.0195 35.5257 67.0391 35.6533 67.0391C35.7471 67.0391 35.8291 67.0326 35.8994 67.0195C35.9697 67.0065 36.0244 66.9961 36.0635 66.9883L36.2744 67.9531C36.2067 67.9792 36.1104 68.0052 35.9854 68.0313C35.8604 68.0599 35.7041 68.0755 35.5166 68.0781C35.2093 68.0833 34.9229 68.0286 34.6572 67.9141C34.3916 67.7995 34.1768 67.6224 34.0127 67.3828C33.8486 67.1432 33.7666 66.8424 33.7666 66.4805V60.5625ZM39.2031 68.1328C38.8229 68.1328 38.4792 68.0625 38.1719 67.9219C37.8646 67.7786 37.6211 67.5716 37.4414 67.3008C37.2643 67.0299 37.1758 66.6979 37.1758 66.3047C37.1758 65.9661 37.2409 65.6875 37.3711 65.4687C37.5013 65.25 37.6771 65.0768 37.8984 64.9492C38.1198 64.8216 38.3672 64.7253 38.6406 64.6602C38.9141 64.5951 39.1927 64.5456 39.4766 64.5117C39.8359 64.4701 40.1276 64.4362 40.3516 64.4102C40.5755 64.3815 40.7383 64.3359 40.8398 64.2734C40.9414 64.2109 40.9922 64.1094 40.9922 63.9687V63.9414C40.9922 63.6003 40.8958 63.3359 40.7031 63.1484C40.513 62.9609 40.2292 62.8672 39.8516 62.8672C39.4583 62.8672 39.1484 62.9544 38.9219 63.1289C38.6979 63.3008 38.543 63.4922 38.457 63.7031L37.3594 63.4531C37.4896 63.0885 37.6797 62.7943 37.9297 62.5703C38.1823 62.3437 38.4727 62.1797 38.8008 62.0781C39.1289 61.974 39.474 61.9219 39.8359 61.9219C40.0755 61.9219 40.3294 61.9505 40.5977 62.0078C40.8685 62.0625 41.1211 62.1641 41.3555 62.3125C41.5924 62.4609 41.7865 62.6732 41.9375 62.9492C42.0885 63.2227 42.1641 63.5781 42.1641 64.0156V68H41.0234V67.1797H40.9766C40.901 67.3307 40.7878 67.4792 40.6367 67.625C40.4857 67.7708 40.2917 67.8919 40.0547 67.9883C39.8177 68.0846 39.5339 68.1328 39.2031 68.1328ZM39.457 67.1953C39.7799 67.1953 40.056 67.1315 40.2852 67.0039C40.5169 66.8763 40.6927 66.7096 40.8125 66.5039C40.9349 66.2956 40.9961 66.0729 40.9961 65.8359V65.0625C40.9544 65.1042 40.8737 65.1432 40.7539 65.1797C40.6367 65.2135 40.5026 65.2435 40.3516 65.2695C40.2005 65.293 40.0534 65.3151 39.9102 65.3359C39.7669 65.3542 39.6471 65.3698 39.5508 65.3828C39.3242 65.4115 39.1172 65.4596 38.9297 65.5273C38.7448 65.5951 38.5964 65.6927 38.4844 65.8203C38.375 65.9453 38.3203 66.112 38.3203 66.3203C38.3203 66.6094 38.4271 66.8281 38.6406 66.9766C38.8542 67.1224 39.1263 67.1953 39.457 67.1953ZM46.5205 62V62.9375H43.2432V62H46.5205ZM44.1221 60.5625H45.29V66.2383C45.29 66.4648 45.3239 66.6354 45.3916 66.75C45.4593 66.862 45.5465 66.9388 45.6533 66.9805C45.7627 67.0195 45.8812 67.0391 46.0088 67.0391C46.1025 67.0391 46.1846 67.0326 46.2549 67.0195C46.3252 67.0065 46.3799 66.9961 46.4189 66.9883L46.6299 67.9531C46.5622 67.9792 46.4658 68.0052 46.3408 68.0313C46.2158 68.0599 46.0596 68.0755 45.8721 68.0781C45.5648 68.0833 45.2783 68.0286 45.0127 67.9141C44.7471 67.7995 44.5322 67.6224 44.3682 67.3828C44.2041 67.1432 44.1221 66.8424 44.1221 66.4805V60.5625ZM50.334 68.1211C49.7428 68.1211 49.2337 67.9948 48.8066 67.7422C48.3822 67.487 48.054 67.1289 47.8223 66.668C47.5931 66.2044 47.4785 65.6615 47.4785 65.0391C47.4785 64.4245 47.5931 63.8828 47.8223 63.4141C48.054 62.9453 48.377 62.5794 48.791 62.3164C49.2077 62.0534 49.6947 61.9219 50.252 61.9219C50.5905 61.9219 50.9186 61.9779 51.2363 62.0898C51.554 62.2018 51.8392 62.3776 52.0918 62.6172C52.3444 62.8568 52.5436 63.168 52.6895 63.5508C52.8353 63.931 52.9082 64.3932 52.9082 64.9375V65.3516H48.1387V64.4766H51.7637C51.7637 64.1693 51.7012 63.8971 51.5762 63.6602C51.4512 63.4206 51.2754 63.2318 51.0488 63.0937C50.8249 62.9557 50.5618 62.8867 50.2598 62.8867C49.9316 62.8867 49.6452 62.9674 49.4004 63.1289C49.1582 63.2878 48.9707 63.4961 48.8379 63.7539C48.7077 64.0091 48.6426 64.2865 48.6426 64.5859V65.2695C48.6426 65.6706 48.7129 66.0117 48.8535 66.293C48.9967 66.5742 49.196 66.7891 49.4512 66.9375C49.7064 67.0833 50.0046 67.1562 50.3457 67.1562C50.5671 67.1562 50.7689 67.125 50.9512 67.0625C51.1335 66.9974 51.291 66.901 51.4238 66.7734C51.5566 66.6458 51.6582 66.4883 51.7285 66.3008L52.834 66.5C52.7454 66.8255 52.5866 67.1107 52.3574 67.3555C52.1309 67.5977 51.8457 67.7865 51.502 67.9219C51.1608 68.0547 50.7715 68.1211 50.334 68.1211ZM54.2041 68V62H55.3252V62.9766H55.3994C55.5244 62.6458 55.7288 62.388 56.0127 62.2031C56.2965 62.0156 56.6364 61.9219 57.0322 61.9219C57.4333 61.9219 57.7692 62.0156 58.04 62.2031C58.3135 62.3906 58.5153 62.6484 58.6455 62.9766H58.708C58.8512 62.6562 59.0791 62.401 59.3916 62.2109C59.7041 62.0182 60.0765 61.9219 60.5088 61.9219C61.0531 61.9219 61.4971 62.0924 61.8408 62.4336C62.1872 62.7747 62.3604 63.2891 62.3604 63.9766V68H61.1924V64.0859C61.1924 63.6797 61.0817 63.3854 60.8604 63.2031C60.639 63.0208 60.3747 62.9297 60.0674 62.9297C59.6872 62.9297 59.3916 63.0469 59.1807 63.2812C58.9697 63.513 58.8643 63.8112 58.8643 64.1758V68H57.7002V64.0117C57.7002 63.6862 57.5986 63.4245 57.3955 63.2266C57.1924 63.0286 56.9281 62.9297 56.6025 62.9297C56.3812 62.9297 56.1768 62.9883 55.9893 63.1055C55.8044 63.2201 55.6546 63.3802 55.54 63.5859C55.4281 63.7917 55.3721 64.0299 55.3721 64.3008V68H54.2041ZM66.5117 68.1211C65.9206 68.1211 65.4115 67.9948 64.9844 67.7422C64.5599 67.487 64.2318 67.1289 64 66.668C63.7708 66.2044 63.6562 65.6615 63.6562 65.0391C63.6562 64.4245 63.7708 63.8828 64 63.4141C64.2318 62.9453 64.5547 62.5794 64.9688 62.3164C65.3854 62.0534 65.8724 61.9219 66.4297 61.9219C66.7682 61.9219 67.0964 61.9779 67.4141 62.0898C67.7318 62.2018 68.0169 62.3776 68.2695 62.6172C68.5221 62.8568 68.7214 63.168 68.8672 63.5508C69.013 63.931 69.0859 64.3932 69.0859 64.9375V65.3516H64.3164V64.4766H67.9414C67.9414 64.1693 67.8789 63.8971 67.7539 63.6602C67.6289 63.4206 67.4531 63.2318 67.2266 63.0937C67.0026 62.9557 66.7396 62.8867 66.4375 62.8867C66.1094 62.8867 65.8229 62.9674 65.5781 63.1289C65.3359 63.2878 65.1484 63.4961 65.0156 63.7539C64.8854 64.0091 64.8203 64.2865 64.8203 64.5859V65.2695C64.8203 65.6706 64.8906 66.0117 65.0312 66.293C65.1745 66.5742 65.3737 66.7891 65.6289 66.9375C65.8841 67.0833 66.1823 67.1562 66.5234 67.1562C66.7448 67.1562 66.9466 67.125 67.1289 67.0625C67.3112 66.9974 67.4688 66.901 67.6016 66.7734C67.7344 66.6458 67.8359 66.4883 67.9063 66.3008L69.0117 66.5C68.9232 66.8255 68.7643 67.1107 68.5352 67.3555C68.3086 67.5977 68.0234 67.7865 67.6797 67.9219C67.3385 68.0547 66.9492 68.1211 66.5117 68.1211ZM71.5498 64.4375V68H70.3818V62H71.5029V62.9766H71.5771C71.7152 62.6589 71.9313 62.4036 72.2256 62.2109C72.5225 62.0182 72.8962 61.9219 73.3467 61.9219C73.7555 61.9219 74.1136 62.0078 74.4209 62.1797C74.7282 62.349 74.9665 62.6016 75.1357 62.9375C75.305 63.2734 75.3896 63.6888 75.3896 64.1836V68H74.2217V64.3242C74.2217 63.8893 74.1084 63.5495 73.8818 63.3047C73.6553 63.0573 73.3441 62.9336 72.9482 62.9336C72.6774 62.9336 72.4365 62.9922 72.2256 63.1094C72.0173 63.2266 71.8519 63.3984 71.7295 63.625C71.6097 63.849 71.5498 64.1198 71.5498 64.4375ZM79.7568 62V62.9375H76.4795V62H79.7568ZM77.3584 60.5625H78.5264V66.2383C78.5264 66.4648 78.5602 66.6354 78.6279 66.75C78.6956 66.862 78.7829 66.9388 78.8896 66.9805C78.999 67.0195 79.1175 67.0391 79.2451 67.0391C79.3389 67.0391 79.4209 67.0326 79.4912 67.0195C79.5615 67.0065 79.6162 66.9961 79.6553 66.9883L79.8662 67.9531C79.7985 67.9792 79.7021 68.0052 79.5771 68.0313C79.4521 68.0599 79.2959 68.0755 79.1084 68.0781C78.8011 68.0833 78.5146 68.0286 78.249 67.9141C77.9834 67.7995 77.7686 67.6224 77.6045 67.3828C77.4404 67.1432 77.3584 66.8424 77.3584 66.4805V60.5625Z" fill="#030612"/>
<rect x="113" y="8" width="44" height="44" rx="22" fill="#FEF0B0"/>
<path d="M128.324 32.2167L127.057 30.95C126.541 30.4334 126.541 29.5833 127.057 29.0667L128.324 27.8C128.541 27.5833 128.716 27.1583 128.716 26.8583V25.0666C128.716 24.3333 129.316 23.7333 130.049 23.7333H131.841C132.141 23.7333 132.566 23.5583 132.782 23.3417L134.049 22.075C134.566 21.5583 135.416 21.5583 135.932 22.075L137.199 23.3417C137.416 23.5583 137.841 23.7333 138.141 23.7333H139.932C140.666 23.7333 141.266 24.3333 141.266 25.0666V26.8583C141.266 27.1583 141.441 27.5833 141.657 27.8L142.924 29.0667C143.441 29.5833 143.441 30.4334 142.924 30.95L141.657 32.2167C141.441 32.4334 141.266 32.8584 141.266 33.1584V34.95C141.266 35.6833 140.666 36.2834 139.932 36.2834H138.141C137.841 36.2834 137.416 36.4583 137.199 36.675L135.932 37.9417C135.416 38.4584 134.566 38.4584 134.049 37.9417L132.782 36.675C132.566 36.4583 132.141 36.2834 131.841 36.2834H130.049C129.316 36.2834 128.716 35.6833 128.716 34.95V33.1584C128.716 32.85 128.541 32.425 128.324 32.2167Z" stroke="#B6841D" stroke-width="1.3" stroke-linecap="round" stroke-linejoin="round"/>
<path d="M132.5 32.5L137.5 27.5" stroke="#B6841D" stroke-width="1.3" stroke-linecap="round" stroke-linejoin="round"/>
<path d="M137.079 32.0827H137.086" stroke="#B6841D" stroke-width="1.3" stroke-linecap="round" stroke-linejoin="round"/>
<path d="M132.912 27.9167H132.92" stroke="#B6841D" stroke-width="1.3" stroke-linecap="round" stroke-linejoin="round"/>
<path d="M112.879 68V60H115.73C116.35 60 116.865 60.1068 117.273 60.3203C117.685 60.5339 117.992 60.8294 118.195 61.207C118.398 61.582 118.5 62.0156 118.5 62.5078C118.5 62.9974 118.397 63.4284 118.191 63.8008C117.988 64.1706 117.681 64.4583 117.27 64.6641C116.861 64.8698 116.346 64.9727 115.727 64.9727H113.566V63.9336H115.617C116.008 63.9336 116.326 63.8776 116.57 63.7656C116.818 63.6536 116.999 63.4909 117.113 63.2773C117.228 63.0638 117.285 62.8073 117.285 62.5078C117.285 62.2057 117.227 61.944 117.109 61.7227C116.995 61.5013 116.814 61.332 116.566 61.2148C116.322 61.0951 116 61.0352 115.602 61.0352H114.086V68H112.879ZM116.828 64.3906L118.805 68H117.43L115.492 64.3906H116.828ZM122.386 68.1211C121.795 68.1211 121.285 67.9948 120.858 67.7422C120.434 67.487 120.106 67.1289 119.874 66.668C119.645 66.2044 119.53 65.6615 119.53 65.0391C119.53 64.4245 119.645 63.8828 119.874 63.4141C120.106 62.9453 120.429 62.5794 120.843 62.3164C121.259 62.0534 121.746 61.9219 122.304 61.9219C122.642 61.9219 122.97 61.9779 123.288 62.0898C123.606 62.2018 123.891 62.3776 124.144 62.6172C124.396 62.8568 124.595 63.168 124.741 63.5508C124.887 63.931 124.96 64.3932 124.96 64.9375V65.3516H120.19V64.4766H123.815C123.815 64.1693 123.753 63.8971 123.628 63.6602C123.503 63.4206 123.327 63.2318 123.101 63.0937C122.877 62.9557 122.614 62.8867 122.312 62.8867C121.983 62.8867 121.697 62.9674 121.452 63.1289C121.21 63.2878 121.022 63.4961 120.89 63.7539C120.759 64.0091 120.694 64.2865 120.694 64.5859V65.2695C120.694 65.6706 120.765 66.0117 120.905 66.293C121.049 66.5742 121.248 66.7891 121.503 66.9375C121.758 67.0833 122.056 67.1562 122.397 67.1562C122.619 67.1562 122.821 67.125 123.003 67.0625C123.185 66.9974 123.343 66.901 123.476 66.7734C123.608 66.6458 123.71 66.4883 123.78 66.3008L124.886 66.5C124.797 66.8255 124.638 67.1107 124.409 67.3555C124.183 67.5977 123.897 67.7865 123.554 67.9219C123.213 68.0547 122.823 68.1211 122.386 68.1211ZM127.546 68L125.78 62H126.987L128.163 66.4062H128.222L129.401 62H130.608L131.78 66.3867H131.839L133.007 62H134.214L132.452 68H131.261L130.042 63.668H129.952L128.733 68H127.546ZM137.068 68.1328C136.688 68.1328 136.344 68.0625 136.037 67.9219C135.73 67.7786 135.486 67.5716 135.307 67.3008C135.13 67.0299 135.041 66.6979 135.041 66.3047C135.041 65.9661 135.106 65.6875 135.236 65.4687C135.367 65.25 135.542 65.0768 135.764 64.9492C135.985 64.8216 136.232 64.7253 136.506 64.6602C136.779 64.5951 137.058 64.5456 137.342 64.5117C137.701 64.4701 137.993 64.4362 138.217 64.4102C138.441 64.3815 138.604 64.3359 138.705 64.2734C138.807 64.2109 138.857 64.1094 138.857 63.9687V63.9414C138.857 63.6003 138.761 63.3359 138.568 63.1484C138.378 62.9609 138.094 62.8672 137.717 62.8672C137.324 62.8672 137.014 62.9544 136.787 63.1289C136.563 63.3008 136.408 63.4922 136.322 63.7031L135.225 63.4531C135.355 63.0885 135.545 62.7943 135.795 62.5703C136.048 62.3437 136.338 62.1797 136.666 62.0781C136.994 61.974 137.339 61.9219 137.701 61.9219C137.941 61.9219 138.195 61.9505 138.463 62.0078C138.734 62.0625 138.986 62.1641 139.221 62.3125C139.458 62.4609 139.652 62.6732 139.803 62.9492C139.954 63.2227 140.029 63.5781 140.029 64.0156V68H138.889V67.1797H138.842C138.766 67.3307 138.653 67.4792 138.502 67.625C138.351 67.7708 138.157 67.8919 137.92 67.9883C137.683 68.0846 137.399 68.1328 137.068 68.1328ZM137.322 67.1953C137.645 67.1953 137.921 67.1315 138.15 67.0039C138.382 66.8763 138.558 66.7096 138.678 66.5039C138.8 66.2956 138.861 66.0729 138.861 65.8359V65.0625C138.82 65.1042 138.739 65.1432 138.619 65.1797C138.502 65.2135 138.368 65.2435 138.217 65.2695C138.066 65.293 137.919 65.3151 137.775 65.3359C137.632 65.3542 137.512 65.3698 137.416 65.3828C137.189 65.4115 136.982 65.4596 136.795 65.5273C136.61 65.5951 136.462 65.6927 136.35 65.8203C136.24 65.9453 136.186 66.112 136.186 66.3203C136.186 66.6094 136.292 66.8281 136.506 66.9766C136.719 67.1224 136.992 67.1953 137.322 67.1953ZM141.585 68V62H142.714V62.9531H142.776C142.886 62.6302 143.078 62.3763 143.354 62.1914C143.633 62.0039 143.948 61.9102 144.3 61.9102C144.373 61.9102 144.459 61.9128 144.558 61.918C144.659 61.9232 144.739 61.9297 144.796 61.9375V63.0547C144.749 63.0417 144.666 63.0273 144.546 63.0117C144.426 62.9935 144.306 62.9844 144.187 62.9844C143.91 62.9844 143.664 63.043 143.448 63.1602C143.235 63.2747 143.065 63.4349 142.94 63.6406C142.815 63.8437 142.753 64.0755 142.753 64.3359V68H141.585ZM147.838 68.1172C147.354 68.1172 146.921 67.9935 146.541 67.7461C146.163 67.4961 145.867 67.1406 145.65 66.6797C145.437 66.2161 145.33 65.6602 145.33 65.0117C145.33 64.3633 145.438 63.8086 145.654 63.3477C145.873 62.8867 146.173 62.5339 146.553 62.2891C146.933 62.0443 147.364 61.9219 147.846 61.9219C148.218 61.9219 148.518 61.9844 148.744 62.1094C148.973 62.2318 149.15 62.375 149.275 62.5391C149.403 62.7031 149.502 62.8477 149.572 62.9727H149.643V60H150.811V68H149.67V67.0664H149.572C149.502 67.194 149.4 67.3398 149.268 67.5039C149.137 67.668 148.958 67.8112 148.729 67.9336C148.499 68.056 148.202 68.1172 147.838 68.1172ZM148.033 67.1211C148.432 67.1211 148.715 67.0326 148.947 66.8555C149.182 66.6758 149.359 66.4271 149.479 66.1094C149.601 65.7917 149.662 65.4219 149.662 65C149.662 64.5833 149.602 64.2187 149.482 63.9062C149.363 63.5937 149.187 63.3503 148.955 63.1758C148.723 63.0013 148.437 62.9141 148.096 62.9141C147.744 62.9141 147.451 63.0052 147.217 63.1875C146.982 63.3698 146.805 63.6185 146.686 63.9336C146.568 64.2487 146.51 64.6042 146.51 65C146.51 65.401 146.57 65.7617 146.689 66.082C146.809 66.4023 146.986 66.6562 147.221 66.8437C147.458 67.0286 147.749 67.1211 148.096 67.1211ZM156.974 63.4648L155.915 63.6523C155.871 63.5169 155.8 63.388 155.704 63.2656C155.61 63.1432 155.483 63.043 155.321 62.9648C155.16 62.8867 154.958 62.8477 154.716 62.8477C154.385 62.8477 154.109 62.9219 153.888 63.0703C153.666 63.2161 153.556 63.4049 153.556 63.6367C153.556 63.8372 153.63 63.9987 153.778 64.1211C153.927 64.2435 154.166 64.3437 154.497 64.4219L155.45 64.6406C156.002 64.7682 156.414 64.9648 156.685 65.2305C156.955 65.4961 157.091 65.8411 157.091 66.2656C157.091 66.625 156.987 66.9453 156.778 67.2266C156.573 67.5052 156.285 67.724 155.915 67.8828C155.548 68.0417 155.122 68.1211 154.638 68.1211C153.966 68.1211 153.418 67.9779 152.993 67.6914C152.569 67.4023 152.308 66.9922 152.212 66.4609L153.341 66.2891C153.411 66.5833 153.556 66.806 153.774 66.957C153.993 67.1055 154.278 67.1797 154.63 67.1797C155.013 67.1797 155.319 67.1003 155.548 66.9414C155.777 66.7799 155.892 66.5833 155.892 66.3516C155.892 66.1641 155.821 66.0065 155.681 65.8789C155.543 65.7513 155.33 65.6549 155.044 65.5898L154.028 65.3672C153.468 65.2396 153.054 65.0365 152.786 64.7578C152.521 64.4792 152.388 64.1263 152.388 63.6992C152.388 63.3451 152.487 63.0352 152.685 62.7695C152.882 62.5039 153.156 62.2969 153.505 62.1484C153.854 61.9974 154.254 61.9219 154.704 61.9219C155.353 61.9219 155.863 62.0625 156.235 62.3437C156.608 62.6224 156.854 62.9961 156.974 63.4648Z" fill="#030612"/>
<rect x="195" y="8" width="44" height="44" rx="22" fill="#FBDCF6"/>
<path d="M213.55 21.2246V23.7246" stroke="#AB47BC" stroke-width="1.3" stroke-miterlimit="10" stroke-linecap="round" stroke-linejoin="round"/>
<path d="M220.217 21.2246V23.7246" stroke="#AB47BC" stroke-width="1.3" stroke-miterlimit="10" stroke-linecap="round" stroke-linejoin="round"/>
<path d="M209.8 27.1328H223.967" stroke="#AB47BC" stroke-width="1.3" stroke-miterlimit="10" stroke-linecap="round" stroke-linejoin="round"/>
<path d="M225.868 34.9737C225.868 35.677 225.671 36.3428 225.324 36.9055C224.677 37.9933 223.486 38.7247 222.117 38.7247C221.17 38.7247 220.307 38.3778 219.651 37.787C219.36 37.5432 219.107 37.2431 218.91 36.9055C218.563 36.3428 218.366 35.677 218.366 34.9737C218.366 32.9012 220.045 31.2227 222.117 31.2227C223.242 31.2227 224.246 31.7197 224.93 32.498C225.512 33.1638 225.868 34.0266 225.868 34.9737Z" stroke="#AB47BC" stroke-width="1.3" stroke-miterlimit="10" stroke-linecap="round" stroke-linejoin="round"/>
<path d="M220.654 34.9737L221.582 35.9021L223.58 34.0547" stroke="#AB47BC" stroke-width="1.3" stroke-linecap="round" stroke-linejoin="round"/>
<path d="M224.384 31.7275V26.6413C224.384 24.1413 223.134 22.4746 220.217 22.4746H213.55C210.634 22.4746 209.384 24.1413 209.384 26.6413V33.7246C209.384 36.2246 210.634 37.8913 213.55 37.8913H219.692" stroke="#AB47BC" stroke-width="1.3" stroke-miterlimit="10" stroke-linecap="round" stroke-linejoin="round"/>
<path d="M216.88 30.9753H216.887" stroke="#AB47BC" stroke-width="1.8" stroke-linecap="round" stroke-linejoin="round"/>
<path d="M213.796 30.9753H213.803" stroke="#AB47BC" stroke-width="1.8" stroke-linecap="round" stroke-linejoin="round"/>
<path d="M213.796 33.6706H213.803" stroke="#AB47BC" stroke-width="1.8" stroke-linecap="round" stroke-linejoin="round"/>
<path d="M204.879 68V60H209.895V61.0391H206.086V63.4766H209.633V64.5117H206.086V66.9609H209.941V68H204.879ZM211.507 60H212.972L215.519 66.2187H215.612L218.159 60H219.624V68H218.476V62.2109H218.401L216.042 67.9883H215.089L212.729 62.207H212.655V68H211.507V60ZM222.586 60V68H221.379V60H222.586ZM228.746 63.4648L227.688 63.6523C227.643 63.5169 227.573 63.388 227.477 63.2656C227.383 63.1432 227.255 63.043 227.094 62.9648C226.932 62.8867 226.73 62.8477 226.488 62.8477C226.158 62.8477 225.882 62.9219 225.66 63.0703C225.439 63.2161 225.328 63.4049 225.328 63.6367C225.328 63.8372 225.402 63.9987 225.551 64.1211C225.699 64.2435 225.939 64.3437 226.27 64.4219L227.223 64.6406C227.775 64.7682 228.186 64.9648 228.457 65.2305C228.728 65.4961 228.863 65.8411 228.863 66.2656C228.863 66.625 228.759 66.9453 228.551 67.2266C228.345 67.5052 228.057 67.724 227.688 67.8828C227.32 68.0417 226.895 68.1211 226.41 68.1211C225.738 68.1211 225.19 67.9779 224.766 67.6914C224.341 67.4023 224.081 66.9922 223.984 66.4609L225.113 66.2891C225.184 66.5833 225.328 66.806 225.547 66.957C225.766 67.1055 226.051 67.1797 226.402 67.1797C226.785 67.1797 227.091 67.1003 227.32 66.9414C227.549 66.7799 227.664 66.5833 227.664 66.3516C227.664 66.1641 227.594 66.0065 227.453 65.8789C227.315 65.7513 227.103 65.6549 226.816 65.5898L225.801 65.3672C225.241 65.2396 224.827 65.0365 224.559 64.7578C224.293 64.4792 224.16 64.1263 224.16 63.6992C224.16 63.3451 224.259 63.0352 224.457 62.7695C224.655 62.5039 224.928 62.2969 225.277 62.1484C225.626 61.9974 226.026 61.9219 226.477 61.9219C227.125 61.9219 227.635 62.0625 228.008 62.3437C228.38 62.6224 228.626 62.9961 228.746 63.4648Z" fill="#030612"/>
<rect x="277" y="8" width="44" height="44" rx="22" fill="#C7F9D6"/>
<path d="M302.771 23.0841L302.402 23.295C302.111 23.462 301.98 23.8224 302.094 24.1388L302.226 24.5168C302.331 24.8068 302.147 25.1233 301.839 25.176L301.461 25.2463C301.127 25.3079 300.881 25.5979 300.881 25.9407V26.3714C300.881 26.7142 301.127 27.0043 301.461 27.0658L301.839 27.1361C302.147 27.1888 302.331 27.5053 302.226 27.8041L302.094 28.1733C301.98 28.4897 302.103 28.8501 302.402 29.0171L302.771 29.228C303.07 29.395 303.439 29.3335 303.658 29.0698L303.913 28.771C304.116 28.5337 304.485 28.5337 304.678 28.771L304.933 29.0698C305.153 29.3335 305.531 29.395 305.821 29.228L306.19 29.0171C306.489 28.8501 306.612 28.4897 306.498 28.1733L306.366 27.8041C306.26 27.5141 306.445 27.1888 306.752 27.1361L307.139 27.0658C307.473 27.0043 307.719 26.7142 307.719 26.3714V25.9495C307.719 25.6067 307.473 25.3166 307.139 25.2551L306.752 25.1848C306.445 25.1321 306.26 24.8156 306.366 24.5168L306.498 24.1476C306.612 23.8312 306.48 23.4708 306.19 23.3038L305.821 23.0929C305.522 22.9259 305.153 22.9874 304.933 23.2511L304.678 23.5499C304.476 23.7872 304.107 23.7872 303.905 23.5499L303.667 23.2599C303.448 22.9962 303.07 22.9259 302.771 23.1016V23.0841Z" stroke="#00875F" stroke-width="1.25" stroke-linecap="round" stroke-linejoin="round"/>
<path fill-rule="evenodd" clip-rule="evenodd" d="M304.288 26.1527H304.296H304.288Z" fill="#00875F"/>
<path d="M304.288 26.1527H304.296" stroke="#00875F" stroke-width="1.66667" stroke-linecap="round" stroke-linejoin="round"/>
<path d="M307.433 31.1955V34C307.433 35.6583 306.092 37 304.433 37H293.433C291.775 37 290.433 35.6583 290.433 34V26C290.433 24.3417 291.775 23 293.433 23H298.933" stroke="#00875F" stroke-width="1.25" stroke-linecap="round" stroke-linejoin="round"/>
<path d="M290.433 27H298.378" stroke="#00875F" stroke-width="1.25" stroke-linecap="round" stroke-linejoin="round"/>
<path d="M293.933 33.666H295.433" stroke="#00875F" stroke-width="1.25" stroke-linecap="round" stroke-linejoin="round"/>
<path d="M297.933 33.666H300.933" stroke="#00875F" stroke-width="1.25" stroke-linecap="round" stroke-linejoin="round"/>
<path d="M281.242 62.1016C281.201 61.7318 281.029 61.4453 280.727 61.2422C280.424 61.0365 280.044 60.9336 279.586 60.9336C279.258 60.9336 278.974 60.9857 278.734 61.0898C278.495 61.1914 278.309 61.332 278.176 61.5117C278.046 61.6888 277.98 61.8906 277.98 62.1172C277.98 62.3073 278.025 62.4714 278.113 62.6094C278.204 62.7474 278.323 62.8633 278.469 62.957C278.617 63.0482 278.776 63.125 278.945 63.1875C279.115 63.2474 279.277 63.2969 279.434 63.3359L280.215 63.5391C280.47 63.6016 280.732 63.6862 281 63.793C281.268 63.8997 281.517 64.0404 281.746 64.2148C281.975 64.3893 282.16 64.6055 282.301 64.8633C282.444 65.1211 282.516 65.4297 282.516 65.7891C282.516 66.2422 282.398 66.6445 282.164 66.9961C281.932 67.3477 281.595 67.625 281.152 67.8281C280.712 68.0313 280.18 68.1328 279.555 68.1328C278.956 68.1328 278.438 68.0378 278 67.8477C277.563 67.6576 277.22 67.388 276.973 67.0391C276.725 66.6875 276.589 66.2708 276.563 65.7891H277.773C277.797 66.0781 277.891 66.319 278.055 66.5117C278.221 66.7018 278.434 66.8437 278.691 66.9375C278.952 67.0286 279.237 67.0742 279.547 67.0742C279.888 67.0742 280.191 67.0208 280.457 66.9141C280.725 66.8047 280.936 66.6536 281.09 66.4609C281.243 66.2656 281.32 66.0378 281.32 65.7773C281.32 65.5404 281.253 65.3464 281.117 65.1953C280.984 65.0443 280.803 64.9193 280.574 64.8203C280.348 64.7214 280.091 64.6341 279.805 64.5586L278.859 64.3008C278.219 64.1263 277.711 63.8698 277.336 63.5312C276.964 63.1927 276.777 62.7448 276.777 62.1875C276.777 61.7266 276.902 61.3242 277.152 60.9805C277.402 60.6367 277.741 60.3698 278.168 60.1797C278.595 59.987 279.077 59.8906 279.613 59.8906C280.155 59.8906 280.633 59.9857 281.047 60.1758C281.464 60.3659 281.792 60.6276 282.031 60.9609C282.271 61.2917 282.396 61.6719 282.406 62.1016H281.242ZM286.45 68.1211C285.859 68.1211 285.35 67.9948 284.923 67.7422C284.498 67.487 284.17 67.1289 283.938 66.668C283.709 66.2044 283.595 65.6615 283.595 65.0391C283.595 64.4245 283.709 63.8828 283.938 63.4141C284.17 62.9453 284.493 62.5794 284.907 62.3164C285.324 62.0534 285.811 61.9219 286.368 61.9219C286.707 61.9219 287.035 61.9779 287.353 62.0898C287.67 62.2018 287.955 62.3776 288.208 62.6172C288.461 62.8568 288.66 63.168 288.806 63.5508C288.951 63.931 289.024 64.3932 289.024 64.9375V65.3516H284.255V64.4766H287.88C287.88 64.1693 287.817 63.8971 287.692 63.6602C287.567 63.4206 287.392 63.2318 287.165 63.0937C286.941 62.9557 286.678 62.8867 286.376 62.8867C286.048 62.8867 285.761 62.9674 285.517 63.1289C285.274 63.2878 285.087 63.4961 284.954 63.7539C284.824 64.0091 284.759 64.2865 284.759 64.5859V65.2695C284.759 65.6706 284.829 66.0117 284.97 66.293C285.113 66.5742 285.312 66.7891 285.567 66.9375C285.823 67.0833 286.121 67.1562 286.462 67.1562C286.683 67.1562 286.885 67.125 287.067 67.0625C287.25 66.9974 287.407 66.901 287.54 66.7734C287.673 66.6458 287.774 66.4883 287.845 66.3008L288.95 66.5C288.862 66.8255 288.703 67.1107 288.474 67.3555C288.247 67.5977 287.962 67.7865 287.618 67.9219C287.277 68.0547 286.888 68.1211 286.45 68.1211ZM290.32 68V62H291.449V62.9531H291.512C291.621 62.6302 291.814 62.3763 292.09 62.1914C292.368 62.0039 292.684 61.9102 293.035 61.9102C293.108 61.9102 293.194 61.9128 293.293 61.918C293.395 61.9232 293.474 61.9297 293.531 61.9375V63.0547C293.484 63.0417 293.401 63.0273 293.281 63.0117C293.161 62.9935 293.042 62.9844 292.922 62.9844C292.646 62.9844 292.4 63.043 292.184 63.1602C291.97 63.2747 291.801 63.4349 291.676 63.6406C291.551 63.8437 291.488 64.0755 291.488 64.3359V68H290.32ZM299.857 62L297.682 68H296.432L294.252 62H295.506L297.025 66.6172H297.088L298.604 62H299.857ZM300.955 68V62H302.123V68H300.955ZM301.545 61.0742C301.342 61.0742 301.167 61.0065 301.021 60.8711C300.878 60.7331 300.807 60.569 300.807 60.3789C300.807 60.1862 300.878 60.0221 301.021 59.8867C301.167 59.7487 301.342 59.6797 301.545 59.6797C301.748 59.6797 301.921 59.7487 302.064 59.8867C302.21 60.0221 302.283 60.1862 302.283 60.3789C302.283 60.569 302.21 60.7331 302.064 60.8711C301.921 61.0065 301.748 61.0742 301.545 61.0742ZM306.222 68.1211C305.641 68.1211 305.141 67.9896 304.722 67.7266C304.305 67.4609 303.985 67.0951 303.761 66.6289C303.537 66.1628 303.425 65.6289 303.425 65.0273C303.425 64.418 303.539 63.8802 303.769 63.4141C303.998 62.9453 304.321 62.5794 304.737 62.3164C305.154 62.0534 305.645 61.9219 306.21 61.9219C306.666 61.9219 307.072 62.0065 307.429 62.1758C307.785 62.3424 308.073 62.5768 308.292 62.8789C308.513 63.181 308.645 63.5339 308.687 63.9375H307.55C307.487 63.6562 307.344 63.4141 307.12 63.2109C306.899 63.0078 306.602 62.9062 306.229 62.9062C305.904 62.9062 305.619 62.9922 305.374 63.1641C305.132 63.3333 304.943 63.5755 304.808 63.8906C304.672 64.2031 304.604 64.5729 304.604 65C304.604 65.4375 304.671 65.8151 304.804 66.1328C304.937 66.4505 305.124 66.6966 305.366 66.8711C305.611 67.0456 305.899 67.1328 306.229 67.1328C306.451 67.1328 306.651 67.0924 306.831 67.0117C307.013 66.9284 307.166 66.8099 307.288 66.6562C307.413 66.5026 307.5 66.3177 307.55 66.1016H308.687C308.645 66.4896 308.519 66.8359 308.308 67.1406C308.097 67.4453 307.814 67.6849 307.46 67.8594C307.108 68.0339 306.696 68.1211 306.222 68.1211ZM312.521 68.1211C311.93 68.1211 311.421 67.9948 310.994 67.7422C310.57 67.487 310.242 67.1289 310.01 66.668C309.781 66.2044 309.666 65.6615 309.666 65.0391C309.666 64.4245 309.781 63.8828 310.01 63.4141C310.242 62.9453 310.564 62.5794 310.979 62.3164C311.395 62.0534 311.882 61.9219 312.439 61.9219C312.778 61.9219 313.106 61.9779 313.424 62.0898C313.742 62.2018 314.027 62.3776 314.279 62.6172C314.532 62.8568 314.731 63.168 314.877 63.5508C315.023 63.931 315.096 64.3932 315.096 64.9375V65.3516H310.326V64.4766H313.951C313.951 64.1693 313.889 63.8971 313.764 63.6602C313.639 63.4206 313.463 63.2318 313.236 63.0937C313.012 62.9557 312.749 62.8867 312.447 62.8867C312.119 62.8867 311.833 62.9674 311.588 63.1289C311.346 63.2878 311.158 63.4961 311.025 63.7539C310.895 64.0091 310.83 64.2865 310.83 64.5859V65.2695C310.83 65.6706 310.9 66.0117 311.041 66.293C311.184 66.5742 311.383 66.7891 311.639 66.9375C311.894 67.0833 312.192 67.1562 312.533 67.1562C312.755 67.1562 312.956 67.125 313.139 67.0625C313.321 66.9974 313.479 66.901 313.611 66.7734C313.744 66.6458 313.846 66.4883 313.916 66.3008L315.021 66.5C314.933 66.8255 314.774 67.1107 314.545 67.3555C314.318 67.5977 314.033 67.7865 313.689 67.9219C313.348 68.0547 312.959 68.1211 312.521 68.1211ZM320.888 63.4648L319.829 63.6523C319.785 63.5169 319.715 63.388 319.618 63.2656C319.524 63.1432 319.397 63.043 319.235 62.9648C319.074 62.8867 318.872 62.8477 318.63 62.8477C318.299 62.8477 318.023 62.9219 317.802 63.0703C317.58 63.2161 317.47 63.4049 317.47 63.6367C317.47 63.8372 317.544 63.9987 317.692 64.1211C317.841 64.2435 318.08 64.3437 318.411 64.4219L319.364 64.6406C319.916 64.7682 320.328 64.9648 320.599 65.2305C320.869 65.4961 321.005 65.8411 321.005 66.2656C321.005 66.625 320.901 66.9453 320.692 67.2266C320.487 67.5052 320.199 67.724 319.829 67.8828C319.462 68.0417 319.036 68.1211 318.552 68.1211C317.88 68.1211 317.332 67.9779 316.907 67.6914C316.483 67.4023 316.222 66.9922 316.126 66.4609L317.255 66.2891C317.325 66.5833 317.47 66.806 317.688 66.957C317.907 67.1055 318.192 67.1797 318.544 67.1797C318.927 67.1797 319.233 67.1003 319.462 66.9414C319.691 66.7799 319.806 66.5833 319.806 66.3516C319.806 66.1641 319.735 66.0065 319.595 65.8789C319.457 65.7513 319.244 65.6549 318.958 65.5898L317.942 65.3672C317.382 65.2396 316.968 65.0365 316.7 64.7578C316.435 64.4792 316.302 64.1263 316.302 63.6992C316.302 63.3451 316.401 63.0352 316.599 62.7695C316.797 62.5039 317.07 62.2969 317.419 62.1484C317.768 61.9974 318.168 61.9219 318.618 61.9219C319.267 61.9219 319.777 62.0625 320.149 62.3437C320.522 62.6224 320.768 62.9961 320.888 63.4648Z" fill="#030612"/>
</g>
<defs>
<filter id="filter0_d_2051_30022" x="0" y="0" width="352" height="87" filterUnits="userSpaceOnUse" color-interpolation-filters="sRGB">
<feFlood flood-opacity="0" result="BackgroundImageFix"/>
<feColorMatrix in="SourceAlpha" type="matrix" values="0 0 0 0 0 0 0 0 0 0 0 0 0 0 0 0 0 0 127 0" result="hardAlpha"/>
<feOffset dy="4"/>
<feGaussianBlur stdDeviation="6"/>
<feComposite in2="hardAlpha" operator="out"/>
<feColorMatrix type="matrix" values="0 0 0 0 0.2 0 0 0 0 0.576471 0 0 0 0 1 0 0 0 0.3 0"/>
<feBlend mode="normal" in2="BackgroundImageFix" result="effect1_dropShadow_2051_30022"/>
<feBlend mode="normal" in="SourceGraphic" in2="effect1_dropShadow_2051_30022" result="shape"/>
</filter>
</defs>
</svg>
