<svg width="427" height="22" viewBox="0 0 427 22" fill="none" xmlns="http://www.w3.org/2000/svg" xmlns:xlink="http://www.w3.org/1999/xlink">
<path d="M3.95881 11V2.27273H9.4304V3.40625H5.27557V6.06534H9.14489V7.1946H5.27557V9.86648H9.48153V11H3.95881ZM12.1055 2.27273L14.1935 5.68608H14.2617L16.3498 2.27273H17.8754L15.1566 6.63636L17.8924 11H16.3583L14.2617 7.63352H14.1935L12.0969 11H10.5629L13.3455 6.63636L10.5799 2.27273H12.1055ZM19.1815 11V2.27273H22.2923C22.9712 2.27273 23.5337 2.39631 23.9798 2.64347C24.4258 2.89062 24.7596 3.22869 24.9812 3.65767C25.2028 4.08381 25.3136 4.56392 25.3136 5.09801C25.3136 5.63494 25.2013 6.1179 24.9769 6.54688C24.7553 6.97301 24.4201 7.31108 23.9712 7.56108C23.5252 7.80824 22.9641 7.93182 22.288 7.93182H20.1488V6.81534H22.1687C22.5977 6.81534 22.9457 6.74148 23.2127 6.59375C23.4798 6.44318 23.6758 6.23864 23.8008 5.98011C23.9258 5.72159 23.9883 5.42756 23.9883 5.09801C23.9883 4.76847 23.9258 4.47585 23.8008 4.22017C23.6758 3.96449 23.4783 3.7642 23.2085 3.61932C22.9414 3.47443 22.5891 3.40199 22.1516 3.40199H20.4982V11H19.1815ZM26.8572 11V2.27273H28.174V9.86648H32.1286V11H26.8572ZM40.8718 6.63636C40.8718 7.56818 40.7013 8.36932 40.3604 9.03977C40.0195 9.70739 39.5522 10.2216 38.9585 10.5824C38.3675 10.9403 37.6957 11.1193 36.9428 11.1193C36.1871 11.1193 35.5124 10.9403 34.9187 10.5824C34.3278 10.2216 33.8619 9.70597 33.521 9.03551C33.18 8.36506 33.0096 7.56534 33.0096 6.63636C33.0096 5.70455 33.18 4.90483 33.521 4.23722C33.8619 3.56676 34.3278 3.05256 34.9187 2.6946C35.5124 2.33381 36.1871 2.15341 36.9428 2.15341C37.6957 2.15341 38.3675 2.33381 38.9585 2.6946C39.5522 3.05256 40.0195 3.56676 40.3604 4.23722C40.7013 4.90483 40.8718 5.70455 40.8718 6.63636ZM39.5678 6.63636C39.5678 5.92614 39.4528 5.32812 39.2227 4.84233C38.9954 4.35369 38.6829 3.98438 38.2852 3.73438C37.8903 3.48153 37.4428 3.35511 36.9428 3.35511C36.44 3.35511 35.9911 3.48153 35.5962 3.73438C35.2013 3.98438 34.8888 4.35369 34.6587 4.84233C34.4315 5.32812 34.3178 5.92614 34.3178 6.63636C34.3178 7.34659 34.4315 7.94602 34.6587 8.43466C34.8888 8.92045 35.2013 9.28977 35.5962 9.54261C35.9911 9.79261 36.44 9.91761 36.9428 9.91761C37.4428 9.91761 37.8903 9.79261 38.2852 9.54261C38.6829 9.28977 38.9954 8.92045 39.2227 8.43466C39.4528 7.94602 39.5678 7.34659 39.5678 6.63636ZM42.5135 11V2.27273H45.6243C46.3004 2.27273 46.8615 2.3892 47.3075 2.62216C47.7564 2.85511 48.0916 3.17756 48.3132 3.58949C48.5348 3.99858 48.6456 4.47159 48.6456 5.00852C48.6456 5.54261 48.5334 6.01278 48.3089 6.41903C48.0874 6.82244 47.7521 7.13636 47.3033 7.3608C46.8572 7.58523 46.2962 7.69744 45.62 7.69744H43.2635V6.56392H45.5007C45.9268 6.56392 46.2734 6.50284 46.5405 6.38068C46.8104 6.25852 47.0078 6.08097 47.1328 5.84801C47.2578 5.61506 47.3203 5.33523 47.3203 5.00852C47.3203 4.67898 47.2564 4.39347 47.1286 4.15199C47.0036 3.91051 46.8061 3.72585 46.5362 3.59801C46.2692 3.46733 45.9183 3.40199 45.4837 3.40199H43.8303V11H42.5135ZM46.8217 7.0625L48.978 11H47.478L45.3643 7.0625H46.8217ZM50.2479 11V2.27273H55.7195V3.40625H51.5646V6.06534H55.4339V7.1946H51.5646V9.86648H55.7706V11H50.2479ZM60.6541 11V2.27273H63.7649C64.4439 2.27273 65.0064 2.39631 65.4524 2.64347C65.8984 2.89062 66.2322 3.22869 66.4538 3.65767C66.6754 4.08381 66.7862 4.56392 66.7862 5.09801C66.7862 5.63494 66.674 6.1179 66.4496 6.54688C66.228 6.97301 65.8928 7.31108 65.4439 7.56108C64.9979 7.80824 64.4368 7.93182 63.7607 7.93182H61.6214V6.81534H63.6413C64.0703 6.81534 64.4183 6.74148 64.6854 6.59375C64.9524 6.44318 65.1484 6.23864 65.2734 5.98011C65.3984 5.72159 65.4609 5.42756 65.4609 5.09801C65.4609 4.76847 65.3984 4.47585 65.2734 4.22017C65.1484 3.96449 64.951 3.7642 64.6811 3.61932C64.4141 3.47443 64.0618 3.40199 63.6243 3.40199H61.9709V11H60.6541ZM68.3299 11V2.27273H71.4407C72.1168 2.27273 72.6779 2.3892 73.1239 2.62216C73.5728 2.85511 73.908 3.17756 74.1296 3.58949C74.3512 3.99858 74.462 4.47159 74.462 5.00852C74.462 5.54261 74.3498 6.01278 74.1254 6.41903C73.9038 6.82244 73.5685 7.13636 73.1197 7.3608C72.6737 7.58523 72.1126 7.69744 71.4364 7.69744H69.0799V6.56392H71.3171C71.7433 6.56392 72.0898 6.50284 72.3569 6.38068C72.6268 6.25852 72.8242 6.08097 72.9492 5.84801C73.0742 5.61506 73.1367 5.33523 73.1367 5.00852C73.1367 4.67898 73.0728 4.39347 72.945 4.15199C72.82 3.91051 72.6225 3.72585 72.3526 3.59801C72.0856 3.46733 71.7347 3.40199 71.3001 3.40199H69.6467V11H68.3299ZM72.6381 7.0625L74.7944 11H73.2944L71.1808 7.0625H72.6381ZM83.6452 6.63636C83.6452 7.56818 83.4748 8.36932 83.1339 9.03977C82.793 9.70739 82.3256 10.2216 81.7319 10.5824C81.141 10.9403 80.4691 11.1193 79.7163 11.1193C78.9606 11.1193 78.2859 10.9403 77.6921 10.5824C77.1012 10.2216 76.6353 9.70597 76.2944 9.03551C75.9535 8.36506 75.783 7.56534 75.783 6.63636C75.783 5.70455 75.9535 4.90483 76.2944 4.23722C76.6353 3.56676 77.1012 3.05256 77.6921 2.6946C78.2859 2.33381 78.9606 2.15341 79.7163 2.15341C80.4691 2.15341 81.141 2.33381 81.7319 2.6946C82.3256 3.05256 82.793 3.56676 83.1339 4.23722C83.4748 4.90483 83.6452 5.70455 83.6452 6.63636ZM82.3413 6.63636C82.3413 5.92614 82.2262 5.32812 81.9961 4.84233C81.7688 4.35369 81.4563 3.98438 81.0586 3.73438C80.6637 3.48153 80.2163 3.35511 79.7163 3.35511C79.2134 3.35511 78.7646 3.48153 78.3697 3.73438C77.9748 3.98438 77.6623 4.35369 77.4322 4.84233C77.2049 5.32812 77.0913 5.92614 77.0913 6.63636C77.0913 7.34659 77.2049 7.94602 77.4322 8.43466C77.6623 8.92045 77.9748 9.28977 78.3697 9.54261C78.7646 9.79261 79.2134 9.91761 79.7163 9.91761C80.2163 9.91761 80.6637 9.79261 81.0586 9.54261C81.4563 9.28977 81.7688 8.92045 81.9961 8.43466C82.2262 7.94602 82.3413 7.34659 82.3413 6.63636ZM88.1122 11H85.2869V2.27273H88.2017C89.0568 2.27273 89.7912 2.44744 90.4048 2.79688C91.0185 3.14347 91.4886 3.64205 91.8153 4.29261C92.1449 4.94034 92.3097 5.71733 92.3097 6.62358C92.3097 7.53267 92.1435 8.31392 91.8111 8.96733C91.4815 9.62074 91.0043 10.1236 90.3793 10.4759C89.7543 10.8253 88.9986 11 88.1122 11ZM86.6037 9.84943H88.0398C88.7045 9.84943 89.2571 9.72443 89.6974 9.47443C90.1378 9.22159 90.4673 8.85653 90.6861 8.37926C90.9048 7.89915 91.0142 7.31392 91.0142 6.62358C91.0142 5.93892 90.9048 5.35795 90.6861 4.88068C90.4702 4.40341 90.1477 4.04119 89.7188 3.79403C89.2898 3.54687 88.7571 3.4233 88.1207 3.4233H86.6037V9.84943ZM99.5593 2.27273H100.88V8.01278C100.88 8.62358 100.737 9.16477 100.45 9.63636C100.163 10.1051 99.7596 10.4744 99.2397 10.7443C98.7198 11.0114 98.1104 11.1449 97.4116 11.1449C96.7156 11.1449 96.1076 11.0114 95.5877 10.7443C95.0678 10.4744 94.6644 10.1051 94.3775 9.63636C94.0906 9.16477 93.9471 8.62358 93.9471 8.01278V2.27273H95.2638V7.90625C95.2638 8.30114 95.3505 8.65199 95.5238 8.95881C95.6999 9.26562 95.9485 9.5071 96.2695 9.68324C96.5906 9.85653 96.9712 9.94318 97.4116 9.94318C97.8548 9.94318 98.2369 9.85653 98.5579 9.68324C98.8817 9.5071 99.1289 9.26562 99.2994 8.95881C99.4727 8.65199 99.5593 8.30114 99.5593 7.90625V2.27273ZM110.043 5.1108H108.714C108.663 4.8267 108.567 4.5767 108.428 4.3608C108.289 4.14489 108.119 3.96165 107.917 3.81108C107.715 3.66051 107.489 3.54687 107.239 3.47017C106.992 3.39347 106.729 3.35511 106.451 3.35511C105.948 3.35511 105.498 3.48153 105.1 3.73438C104.705 3.98722 104.393 4.35795 104.163 4.84659C103.935 5.33523 103.822 5.93182 103.822 6.63636C103.822 7.34659 103.935 7.94602 104.163 8.43466C104.393 8.9233 104.707 9.29261 105.104 9.54261C105.502 9.79261 105.95 9.91761 106.447 9.91761C106.722 9.91761 106.984 9.88068 107.231 9.80682C107.481 9.73011 107.707 9.6179 107.908 9.47017C108.11 9.32244 108.281 9.14205 108.42 8.92898C108.562 8.71307 108.66 8.46591 108.714 8.1875L110.043 8.19176C109.972 8.62074 109.835 9.01562 109.63 9.37642C109.428 9.73438 109.168 10.044 108.85 10.3054C108.535 10.5639 108.174 10.7642 107.768 10.9062C107.362 11.0483 106.918 11.1193 106.438 11.1193C105.683 11.1193 105.009 10.9403 104.418 10.5824C103.827 10.2216 103.362 9.70597 103.021 9.03551C102.683 8.36506 102.513 7.56534 102.513 6.63636C102.513 5.70455 102.684 4.90483 103.025 4.23722C103.366 3.56676 103.832 3.05256 104.423 2.6946C105.013 2.33381 105.685 2.15341 106.438 2.15341C106.901 2.15341 107.333 2.22017 107.734 2.35369C108.137 2.48437 108.499 2.67756 108.82 2.93324C109.141 3.18608 109.407 3.49574 109.617 3.86222C109.827 4.22585 109.969 4.64205 110.043 5.1108ZM111.189 3.40625V2.27273H117.943V3.40625H115.22V11H113.907V3.40625H111.189ZM124.195 4.56534C124.15 4.16193 123.962 3.84943 123.633 3.62784C123.303 3.40341 122.888 3.29119 122.388 3.29119C122.031 3.29119 121.721 3.34801 121.46 3.46165C121.198 3.57244 120.995 3.72585 120.85 3.92188C120.708 4.11506 120.637 4.33523 120.637 4.58239C120.637 4.78977 120.685 4.96875 120.782 5.11932C120.881 5.26989 121.011 5.39631 121.17 5.49858C121.332 5.59801 121.505 5.68182 121.69 5.75C121.874 5.81534 122.052 5.86932 122.222 5.91193L123.075 6.13352C123.353 6.2017 123.638 6.29403 123.931 6.41051C124.224 6.52699 124.495 6.6804 124.745 6.87074C124.995 7.06108 125.197 7.29688 125.35 7.57812C125.506 7.85938 125.585 8.19602 125.585 8.58807C125.585 9.08239 125.457 9.52131 125.201 9.90483C124.948 10.2884 124.58 10.5909 124.097 10.8125C123.617 11.0341 123.036 11.1449 122.354 11.1449C121.701 11.1449 121.136 11.0412 120.658 10.8338C120.181 10.6264 119.808 10.3324 119.538 9.9517C119.268 9.56818 119.119 9.11364 119.09 8.58807H120.411C120.437 8.90341 120.539 9.16619 120.718 9.37642C120.9 9.58381 121.131 9.73864 121.413 9.84091C121.697 9.94034 122.008 9.99006 122.346 9.99006C122.718 9.99006 123.049 9.93182 123.339 9.81534C123.631 9.69602 123.862 9.53125 124.029 9.32102C124.197 9.10795 124.281 8.85937 124.281 8.57528C124.281 8.31676 124.207 8.10511 124.059 7.94034C123.914 7.77557 123.717 7.6392 123.467 7.53125C123.219 7.4233 122.94 7.32812 122.627 7.24574L121.596 6.96449C120.897 6.77415 120.343 6.49432 119.934 6.125C119.528 5.75568 119.325 5.26705 119.325 4.65909C119.325 4.15625 119.461 3.71733 119.734 3.34233C120.006 2.96733 120.376 2.67614 120.842 2.46875C121.308 2.25852 121.833 2.15341 122.418 2.15341C123.009 2.15341 123.531 2.2571 123.982 2.46449C124.437 2.67188 124.795 2.95739 125.056 3.32102C125.317 3.68182 125.454 4.09659 125.465 4.56534H124.195Z" fill="#949A9F"/>
</svg>
