<svg width="360" height="140" viewBox="24 0 360 140" fill="none" xmlns="http://www.w3.org/2000/svg">
<g filter="url(#filter0_d_4662_33197)">
<rect width="360" height="68" transform="translate(24 40)" fill="white"/>
<mask id="path-1-inside-1_4662_33197" fill="white">
<path d="M24 40H96V108H24V40Z"/>
</mask>
<path d="M24 40V41H96V40V39H24V40Z" fill="#D0DDFC" mask="url(#path-1-inside-1_4662_33197)"/>
<path d="M57.5167 54.3671L53.0251 57.8671C52.2751 58.4505 51.6667 59.6921 51.6667 60.6338V66.8088C51.6667 68.7421 53.2417 70.3255 55.1751 70.3255H64.8251C66.7584 70.3255 68.3334 68.7421 68.3334 66.8171V60.7505C68.3334 59.7421 67.6584 58.4505 66.8334 57.8755L61.6834 54.2671C60.5167 53.4505 58.6417 53.4921 57.5167 54.3671Z" stroke="#1C3FCA" stroke-width="1.5" stroke-linecap="round" stroke-linejoin="round"/>
<path d="M60 66.9922V64.4922" stroke="#1C3FCA" stroke-width="1.5" stroke-linecap="round" stroke-linejoin="round"/>
<rect x="24" y="40" width="72" height="1" fill="#EAEBF0"/>
<mask id="path-7-inside-2_4662_33197" fill="white">
<path d="M96 40H168V108H96V40Z"/>
</mask>
<path d="M96 40V41H168V40V39H96V40Z" fill="#D0DDFC" mask="url(#path-7-inside-2_4662_33197)"/>
<rect width="20" height="20" transform="translate(122 52)" fill="white"/>
<circle cx="126" cy="56" r="1.5" stroke="#5C6172"/>
<circle cx="132" cy="56" r="1.5" stroke="#5C6172"/>
<circle cx="138" cy="56" r="1.5" stroke="#5C6172"/>
<circle cx="126" cy="62" r="1.5" stroke="#5C6172"/>
<circle cx="132" cy="62" r="1.5" stroke="#5C6172"/>
<circle cx="138" cy="62" r="1.5" stroke="#5C6172"/>
<circle cx="126" cy="68" r="1.5" stroke="#5C6172"/>
<circle cx="132" cy="68" r="1.5" stroke="#5C6172"/>
<circle cx="138" cy="68" r="1.5" stroke="#5C6172"/>
<rect x="96" y="40" width="72" height="1" fill="#EAEBF0"/>
<path d="M217.06 32.7853C213.269 30.3894 208.767 29 204.001 29C199.234 29 194.731 30.3895 190.94 32.7855C184.906 36.6 178.603 41 171.464 41H168V109H240V41H236.538C229.399 41 223.095 36.5999 217.06 32.7853Z" fill="white"/>
<path d="M240 40.5C240 40.5 238.548 40.5 236.538 40.5C229.399 40.5 223.095 36.0999 217.06 32.2853C213.269 29.8894 208.767 28.5 204.001 28.5C199.234 28.5 194.731 29.8895 190.94 32.2855C184.906 36.1 178.603 40.5 171.464 40.5H168" stroke="#EAEBF0"/>
<rect width="52" height="52" transform="translate(178.5 41.5)" fill="white"/>
<g opacity="0.7" filter="url(#filter1_f_4662_33197)">
<ellipse cx="211.5" cy="58.5" rx="12.5" ry="17.5" fill="#A057E8"/>
</g>
<g opacity="0.7" filter="url(#filter2_f_4662_33197)">
<circle cx="197" cy="70" r="11" fill="#051060"/>
</g>
<g filter="url(#filter3_d_4662_33197)">
<mask id="path-24-inside-3_4662_33197" fill="white">
<path d="M178.5 67.5C178.5 53.1406 190.141 41.5 204.5 41.5V41.5C218.859 41.5 230.5 53.1406 230.5 67.5V67.5C230.5 81.8594 218.859 93.5 204.5 93.5V93.5C190.141 93.5 178.5 81.8594 178.5 67.5V67.5Z"/>
</mask>
<path d="M178.5 67.5C178.5 53.1406 190.141 41.5 204.5 41.5V41.5C218.859 41.5 230.5 53.1406 230.5 67.5V67.5C230.5 81.8594 218.859 93.5 204.5 93.5V93.5C190.141 93.5 178.5 81.8594 178.5 67.5V67.5Z" fill="url(#paint0_linear_4662_33197)"/>
<path d="M177 66.75C177 51.9764 188.976 40 203.75 40C218.524 40 230.5 51.9764 230.5 66.75V67.5C230.5 53.969 218.859 43 204.5 43H204.5C190.969 43 180 53.969 180 67.5L177 66.75ZM180 67.5M230.5 93.5H178.5H230.5M203.75 93.5C188.976 93.5 177 81.5236 177 66.75C177 51.9764 188.976 40 203.75 40L204.5 43C190.969 43 180 53.969 180 67.5V67.5C180 81.8594 190.969 93.5 204.5 93.5H203.75ZM204.5 93.5M230.5 41.5V93.5V41.5" fill="white" fill-opacity="0.2" mask="url(#path-24-inside-3_4662_33197)"/>
<g clip-path="url(#clip0_4662_33197)">
<path d="M211.343 57.2344C216.46 57.2344 220.609 61.3854 220.609 66.5029C220.609 70.8601 217.6 74.5134 213.548 75.5029V81.2363L205.947 75.7695H197.056C194.886 75.7695 192.892 75.0214 191.313 73.7725L193.508 71.5771C194.569 72.3555 195.877 72.8163 197.294 72.8164L197.624 72.8086C200.901 72.6425 203.528 70.0145 203.694 66.7373L203.703 66.4082C203.703 62.8687 200.833 59.999 197.294 59.999L196.965 60.0078C193.578 60.1793 190.886 62.9791 190.886 66.4082L190.894 66.7373C190.959 68.0266 191.406 69.2145 192.123 70.1924L189.911 72.4033C188.586 70.8006 187.789 68.7448 187.789 66.5029C187.789 61.3854 191.938 57.2344 197.056 57.2344H211.343ZM190.59 73.1113L190.94 73.4619C190.64 73.1976 190.357 72.914 190.093 72.6133L190.59 73.1113ZM197.294 61.958C199.751 61.958 201.744 63.9508 201.744 66.4082C201.744 68.8655 199.751 70.8574 197.294 70.8574C194.837 70.8573 192.845 68.8654 192.845 66.4082C192.845 63.9509 194.837 61.9582 197.294 61.958ZM196.724 64.2949C196.459 65.0099 195.896 65.5742 195.181 65.8389L193.744 66.3701L195.181 66.9014C195.895 67.166 196.459 67.7296 196.724 68.4443L197.255 69.8809L197.786 68.4443C198.051 67.7294 198.615 67.1659 199.33 66.9014L200.766 66.3701L199.33 65.8389C198.615 65.5743 198.051 65.01 197.786 64.2949L197.255 62.8594L196.724 64.2949ZM207.335 64.3174C207.001 65.2188 206.291 65.9301 205.39 66.2637L204.932 66.4326L205.39 66.6025C206.291 66.9362 207.001 67.6466 207.335 68.5479L207.505 69.0059L207.674 68.5479C208.007 67.6464 208.719 66.9362 209.62 66.6025L210.078 66.4326L209.62 66.2637C208.719 65.9301 208.007 65.219 207.674 64.3174L207.505 63.8594L207.335 64.3174ZM214.761 64.3174C214.427 65.2188 213.717 65.9301 212.815 66.2637L212.357 66.4326L212.815 66.6025C213.717 66.9362 214.427 67.6466 214.761 68.5479L214.931 69.0059L215.1 68.5479C215.433 67.6464 216.144 66.9362 217.046 66.6025L217.504 66.4326L217.046 66.2637C216.144 65.9301 215.433 65.219 215.1 64.3174L214.931 63.8594L214.761 64.3174Z" fill="white"/>
</g>
</g>
<path d="M204.001 28.5C208.669 28.5001 213.08 29.8609 216.793 32.208C219.795 34.1056 222.911 36.1803 226.165 37.7725C229.426 39.3679 232.865 40.4999 236.538 40.5H235.536C232.076 40.5 228.808 39.3614 225.572 37.8203C223.955 37.05 222.356 36.1848 220.748 35.3164C219.144 34.4503 217.53 33.5809 215.899 32.8154C212.463 31.2019 208.454 30.5 204.001 30.5C199.548 30.5 195.537 31.2017 192.101 32.8154C190.47 33.5809 188.856 34.4503 187.252 35.3164C185.644 36.1848 184.045 37.05 182.428 37.8203C179.192 39.3614 175.924 40.5 172.464 40.5H171.464C175.137 40.5 178.576 39.3678 181.836 37.7725C185.09 36.1803 188.206 34.1056 191.208 32.208C194.922 29.8609 199.332 28.5 204.001 28.5Z" fill="url(#paint1_linear_4662_33197)" stroke="url(#paint2_linear_4662_33197)"/>
<mask id="path-28-inside-4_4662_33197" fill="white">
<path d="M240 40H312V108H240V40Z"/>
</mask>
<path d="M240 40V41H312V40V39H240V40Z" fill="#D0DDFC" mask="url(#path-28-inside-4_4662_33197)"/>
<path d="M280.167 67.3588H276.833L273.125 69.8254C272.575 70.1921 271.833 69.8004 271.833 69.1338V67.3588C269.333 67.3588 267.667 65.6921 267.667 63.1921V58.1921C267.667 55.6921 269.333 54.0254 271.833 54.0254H280.167C282.667 54.0254 284.333 55.6921 284.333 58.1921V63.1921C284.333 65.6921 282.667 67.3588 280.167 67.3588Z" stroke="#5C6172" stroke-width="1.25" stroke-miterlimit="10" stroke-linecap="round" stroke-linejoin="round"/>
<path d="M276 61.8358V61.7073C276 60.9896 276.443 60.6097 276.886 60.3036C277.319 60.0081 277.752 59.6282 277.752 58.9316C277.752 57.9607 276.971 57.1797 276 57.1797C275.029 57.1797 274.248 57.9607 274.248 58.9316" stroke="#5C6172" stroke-width="1.25" stroke-linecap="round" stroke-linejoin="round"/>
<path d="M276 64.0254H276.007" stroke="#5C6172" stroke-width="1.66667" stroke-linecap="round" stroke-linejoin="round"/>
<mask id="path-34-inside-5_4662_33197" fill="white">
<path d="M312 40H384V108H312V40Z"/>
</mask>
<path d="M312 40V41H384V40V39H312V40Z" fill="#D0DDFC" mask="url(#path-34-inside-5_4662_33197)"/>
<path d="M347.083 68.4991C351.179 68.4991 354.5 65.1787 354.5 61.0826C354.5 56.9866 351.179 53.666 347.083 53.666C342.987 53.666 339.667 56.9866 339.667 61.0826C339.667 65.1787 342.987 68.4991 347.083 68.4991Z" stroke="#5C6172" stroke-width="1.25" stroke-linecap="round" stroke-linejoin="round"/>
<path d="M356.333 70.3335L352.355 66.3555" stroke="#5C6172" stroke-width="1.25" stroke-linecap="round" stroke-linejoin="round"/>
<path d="M348.681 64.3179H346.016C345.176 64.3179 344.494 63.636 344.494 62.7955V59.3701C344.494 58.5296 344.755 57.8477 345.596 57.8477H347.602C347.805 57.8477 347.999 57.9269 348.141 58.0697L349.981 59.9092C350.124 60.052 350.203 60.2454 350.203 60.4484V62.7955C350.203 63.636 349.521 64.3179 348.681 64.3179Z" stroke="#5C6172" stroke-width="1.25" stroke-linecap="round" stroke-linejoin="round"/>
<path d="M347.919 58.0312V59.2917C347.919 59.741 348.284 60.1059 348.733 60.1059H350.027" stroke="#5C6172" stroke-width="1.25" stroke-linecap="round" stroke-linejoin="round"/>
<text x="60" y="91.5" text-anchor="middle" fill="#1C3FCA" font-family="Inter, system-ui, -apple-system, BlinkMacSystemFont, sans-serif" font-size="10" font-weight="600">Home</text>
<text x="132" y="91.5" text-anchor="middle" fill="#5C6172" font-family="Inter, system-ui, -apple-system, BlinkMacSystemFont, sans-serif" font-size="10" font-weight="500">Services</text>
<text x="276" y="91.5" text-anchor="middle" fill="#5C6172" font-family="Inter, system-ui, -apple-system, BlinkMacSystemFont, sans-serif" font-size="10" font-weight="500">Help</text>
<text x="348" y="91.5" text-anchor="middle" fill="#5C6172" font-family="Inter, system-ui, -apple-system, BlinkMacSystemFont, sans-serif" font-size="10" font-weight="500">Tracks</text>
</g>
<defs>
<filter id="filter0_d_4662_33197" x="0" y="0" width="408" height="129" filterUnits="userSpaceOnUse" color-interpolation-filters="sRGB">
<feFlood flood-opacity="0" result="BackgroundImageFix"/>
<feColorMatrix in="SourceAlpha" type="matrix" values="0 0 0 0 0 0 0 0 0 0 0 0 0 0 0 0 0 0 127 0" result="hardAlpha"/>
<feOffset dy="-4"/>
<feGaussianBlur stdDeviation="12"/>
<feComposite in2="hardAlpha" operator="out"/>
<feColorMatrix type="matrix" values="0 0 0 0 0 0 0 0 0 0 0 0 0 0 0 0 0 0 0.1 0"/>
<feBlend mode="normal" in2="BackgroundImageFix" result="effect1_dropShadow_4662_33197"/>
<feBlend mode="normal" in="SourceGraphic" in2="effect1_dropShadow_4662_33197" result="shape"/>
</filter>
<filter id="filter1_f_4662_33197" x="170" y="12" width="83" height="93" filterUnits="userSpaceOnUse" color-interpolation-filters="sRGB">
<feFlood flood-opacity="0" result="BackgroundImageFix"/>
<feBlend mode="normal" in="SourceGraphic" in2="BackgroundImageFix" result="shape"/>
<feGaussianBlur stdDeviation="14.5" result="effect1_foregroundBlur_4662_33197"/>
</filter>
<filter id="filter2_f_4662_33197" x="157" y="30" width="80" height="80" filterUnits="userSpaceOnUse" color-interpolation-filters="sRGB">
<feFlood flood-opacity="0" result="BackgroundImageFix"/>
<feBlend mode="normal" in="SourceGraphic" in2="BackgroundImageFix" result="shape"/>
<feGaussianBlur stdDeviation="14.5" result="effect1_foregroundBlur_4662_33197"/>
</filter>
<filter id="filter3_d_4662_33197" x="134.697" y="0.299999" width="139.607" height="139.607" filterUnits="userSpaceOnUse" color-interpolation-filters="sRGB">
<feFlood flood-opacity="0" result="BackgroundImageFix"/>
<feColorMatrix in="SourceAlpha" type="matrix" values="0 0 0 0 0 0 0 0 0 0 0 0 0 0 0 0 0 0 127 0" result="hardAlpha"/>
<feOffset dy="2.60339"/>
<feGaussianBlur stdDeviation="21.9017"/>
<feComposite in2="hardAlpha" operator="out"/>
<feColorMatrix type="matrix" values="0 0 0 0 0.2 0 0 0 0 0.584314 0 0 0 0 1 0 0 0 0.25 0"/>
<feBlend mode="normal" in2="BackgroundImageFix" result="effect1_dropShadow_4662_33197"/>
<feBlend mode="normal" in="SourceGraphic" in2="effect1_dropShadow_4662_33197" result="shape"/>
</filter>
<linearGradient id="paint0_linear_4662_33197" x1="178.5" y1="41.5" x2="235.573" y2="47.8415" gradientUnits="userSpaceOnUse">
<stop stop-color="#10183A"/>
<stop offset="1" stop-color="#112266"/>
</linearGradient>
<linearGradient id="paint1_linear_4662_33197" x1="168" y1="34.5" x2="240" y2="34.5" gradientUnits="userSpaceOnUse">
<stop stop-color="#E6DDFE"/>
<stop offset="0.274038" stop-color="#7454F2"/>
<stop offset="0.778846" stop-color="#B098FB"/>
<stop offset="1" stop-color="#E6DDFE"/>
</linearGradient>
<linearGradient id="paint2_linear_4662_33197" x1="168" y1="34.5" x2="240" y2="34.5" gradientUnits="userSpaceOnUse">
<stop stop-color="#E6DDFE"/>
<stop offset="0.274038" stop-color="#7454F2"/>
<stop offset="0.778846" stop-color="#B098FB"/>
<stop offset="1" stop-color="#E6DDFE"/>
</linearGradient>
<clipPath id="clip0_4662_33197">
<rect width="38" height="37" fill="white" transform="translate(185.5 49)"/>
</clipPath>
</defs>
</svg>
