<svg width="360" height="109" viewBox="0 0 360 109" fill="none" xmlns="http://www.w3.org/2000/svg">
<g filter="url(#filter0_d_4654_17429)">
<rect width="360" height="68" transform="translate(0 40)" fill="white"/>
<mask id="path-1-inside-1_4654_17429" fill="white">
<path d="M0 40H72V108H0V40Z"/>
</mask>
<path d="M0 40V41H72V40V39H0V40Z" fill="#D0DDFC" mask="url(#path-1-inside-1_4654_17429)"/>
<path d="M33.5167 54.3671L29.0251 57.8671C28.2751 58.4505 27.6667 59.6921 27.6667 60.6338V66.8088C27.6667 68.7421 29.2417 70.3255 31.1751 70.3255H40.8251C42.7584 70.3255 44.3334 68.7421 44.3334 66.8171V60.7505C44.3334 59.7421 43.6584 58.4505 42.8334 57.8755L37.6834 54.2671C36.5167 53.4505 34.6417 53.4921 33.5167 54.3671Z" stroke="#1C3FCA" stroke-width="1.5" stroke-linecap="round" stroke-linejoin="round"/>
<path d="M36 66.9922V64.4922" stroke="#1C3FCA" stroke-width="1.5" stroke-linecap="round" stroke-linejoin="round"/>
<path d="M19.9842 92V83.2727H21.5651V86.9673H25.6092V83.2727H27.1944V92H25.6092V88.2926H21.5651V92H19.9842ZM31.5808 92.1278C30.9416 92.1278 30.3876 91.9872 29.9188 91.706C29.4501 91.4247 29.0865 91.0312 28.8279 90.5256C28.5723 90.0199 28.4444 89.429 28.4444 88.7528C28.4444 88.0767 28.5723 87.4844 28.8279 86.9759C29.0865 86.4673 29.4501 86.0724 29.9188 85.7912C30.3876 85.5099 30.9416 85.3693 31.5808 85.3693C32.22 85.3693 32.774 85.5099 33.2427 85.7912C33.7115 86.0724 34.0737 86.4673 34.3294 86.9759C34.5879 87.4844 34.7171 88.0767 34.7171 88.7528C34.7171 89.429 34.5879 90.0199 34.3294 90.5256C34.0737 91.0312 33.7115 91.4247 33.2427 91.706C32.774 91.9872 32.22 92.1278 31.5808 92.1278ZM31.5893 90.892C31.9359 90.892 32.2257 90.7969 32.4586 90.6065C32.6916 90.4134 32.8649 90.1548 32.9785 89.831C33.095 89.5071 33.1532 89.1463 33.1532 88.7486C33.1532 88.348 33.095 87.9858 32.9785 87.6619C32.8649 87.3352 32.6916 87.0753 32.4586 86.8821C32.2257 86.6889 31.9359 86.5923 31.5893 86.5923C31.2342 86.5923 30.9387 86.6889 30.7029 86.8821C30.47 87.0753 30.2953 87.3352 30.1788 87.6619C30.0652 87.9858 30.0083 88.348 30.0083 88.7486C30.0083 89.1463 30.0652 89.5071 30.1788 89.831C30.2953 90.1548 30.47 90.4134 30.7029 90.6065C30.9387 90.7969 31.2342 90.892 31.5893 90.892ZM35.9064 92V85.4545H37.3809V86.5668H37.4576C37.5939 86.1918 37.8198 85.8991 38.1351 85.6889C38.4505 85.4759 38.8269 85.3693 39.2644 85.3693C39.7076 85.3693 40.0812 85.4773 40.3851 85.6932C40.692 85.9062 40.9079 86.1974 41.0329 86.5668H41.101C41.2459 86.2031 41.4903 85.9134 41.834 85.6974C42.1806 85.4787 42.5911 85.3693 43.0655 85.3693C43.6678 85.3693 44.1593 85.5597 44.54 85.9403C44.9206 86.321 45.111 86.8764 45.111 87.6065V92H43.5641V87.8452C43.5641 87.4389 43.4562 87.142 43.2403 86.9545C43.0243 86.7642 42.7601 86.669 42.4476 86.669C42.0755 86.669 41.7843 86.7855 41.5741 87.0185C41.3667 87.2486 41.263 87.5483 41.263 87.9176V92H39.7502V87.7812C39.7502 87.4432 39.6479 87.1733 39.4434 86.9716C39.2417 86.7699 38.9775 86.669 38.6508 86.669C38.4292 86.669 38.2275 86.7259 38.0456 86.8395C37.8638 86.9503 37.7189 87.108 37.611 87.3125C37.503 87.5142 37.4491 87.75 37.4491 88.0199V92H35.9064ZM49.4537 92.1278C48.7975 92.1278 48.2307 91.9915 47.7534 91.7188C47.279 91.4432 46.9139 91.054 46.6582 90.5511C46.4026 90.0455 46.2747 89.4503 46.2747 88.7656C46.2747 88.0923 46.4026 87.5014 46.6582 86.9929C46.9168 86.4815 47.2776 86.0838 47.7406 85.7997C48.2037 85.5128 48.7477 85.3693 49.3727 85.3693C49.7761 85.3693 50.1568 85.4347 50.5148 85.5653C50.8756 85.6932 51.1938 85.892 51.4693 86.1619C51.7477 86.4318 51.9665 86.7756 52.1256 87.1932C52.2847 87.608 52.3642 88.1023 52.3642 88.6761V89.1491H46.9992V88.1094H50.8855C50.8827 87.8139 50.8188 87.5511 50.6938 87.321C50.5688 87.0881 50.394 86.9048 50.1696 86.7713C49.948 86.6378 49.6895 86.571 49.394 86.571C49.0787 86.571 48.8017 86.6477 48.5631 86.8011C48.3244 86.9517 48.1384 87.1506 48.0048 87.3977C47.8742 87.642 47.8074 87.9105 47.8046 88.2031V89.1108C47.8046 89.4915 47.8742 89.8182 48.0134 90.0909C48.1526 90.3608 48.3472 90.5682 48.5972 90.7131C48.8472 90.8551 49.1398 90.9261 49.475 90.9261C49.6994 90.9261 49.9026 90.8949 50.0844 90.8324C50.2662 90.767 50.4239 90.6719 50.5574 90.5469C50.6909 90.4219 50.7918 90.267 50.86 90.0824L52.3003 90.2443C52.2094 90.625 52.0361 90.9574 51.7804 91.2415C51.5276 91.5227 51.2037 91.7415 50.8088 91.8977C50.4139 92.0511 49.9622 92.1278 49.4537 92.1278Z" fill="#1C3FCA"/>
<rect y="40" width="72" height="1" fill="#EAEBF0"/>
<mask id="path-7-inside-2_4654_17429" fill="white">
<path d="M72 40H144V108H72V40Z"/>
</mask>
<path d="M72 40V41H144V40V39H72V40Z" fill="#D0DDFC" mask="url(#path-7-inside-2_4654_17429)"/>
<rect width="20" height="20" transform="translate(98 52)" fill="white"/>
<circle cx="102" cy="56" r="1.5" stroke="#5C6172"/>
<circle cx="108" cy="56" r="1.5" stroke="#5C6172"/>
<circle cx="114" cy="56" r="1.5" stroke="#5C6172"/>
<circle cx="102" cy="62" r="1.5" stroke="#5C6172"/>
<circle cx="108" cy="62" r="1.5" stroke="#5C6172"/>
<circle cx="114" cy="62" r="1.5" stroke="#5C6172"/>
<circle cx="102" cy="68" r="1.5" stroke="#5C6172"/>
<circle cx="108" cy="68" r="1.5" stroke="#5C6172"/>
<circle cx="114" cy="68" r="1.5" stroke="#5C6172"/>
<path d="M89.437 85.4545C89.3858 85.0227 89.1784 84.6875 88.8148 84.4489C88.4512 84.2102 88.0051 84.0909 87.4767 84.0909C87.0904 84.0909 86.7523 84.1534 86.4625 84.2784C86.1756 84.4034 85.9512 84.5753 85.7892 84.794C85.6301 85.0128 85.5506 85.2614 85.5506 85.5398C85.5506 85.7727 85.606 85.973 85.7168 86.1406C85.8304 86.3054 85.9753 86.4432 86.1515 86.554C86.3276 86.6619 86.5123 86.7514 86.7054 86.8224C86.8986 86.8906 87.0762 86.946 87.2381 86.9886L88.1245 87.2273C88.3517 87.2869 88.6046 87.3693 88.883 87.4744C89.1642 87.5795 89.4327 87.723 89.6884 87.9048C89.9469 88.0838 90.16 88.3139 90.3276 88.5952C90.4952 88.8764 90.579 89.2216 90.579 89.6307C90.579 90.1023 90.4554 90.5284 90.2083 90.9091C89.964 91.2898 89.606 91.5923 89.1344 91.8168C88.6657 92.0412 88.0961 92.1534 87.4256 92.1534C86.8006 92.1534 86.2594 92.0526 85.802 91.8509C85.3475 91.6491 84.9895 91.3679 84.7282 91.0071C84.4696 90.6463 84.3233 90.2273 84.2892 89.75H85.3801C85.4086 90.0795 85.5194 90.3523 85.7125 90.5682C85.9086 90.7812 86.1557 90.9403 86.454 91.0455C86.7551 91.1477 87.079 91.1989 87.4256 91.1989C87.829 91.1989 88.1912 91.1335 88.5123 91.0028C88.8333 90.8693 89.0875 90.6847 89.275 90.4489C89.4625 90.2102 89.5563 89.9318 89.5563 89.6136C89.5563 89.3239 89.4753 89.0881 89.3134 88.9062C89.1515 88.7244 88.9384 88.5767 88.6742 88.4631C88.41 88.3494 88.1245 88.25 87.8176 88.1648L86.7438 87.858C86.062 87.6619 85.5222 87.3821 85.1245 87.0185C84.7267 86.6548 84.5279 86.179 84.5279 85.5909C84.5279 85.1023 84.66 84.6761 84.9242 84.3125C85.1912 83.946 85.5492 83.6619 85.998 83.4602C86.4498 83.2557 86.954 83.1534 87.5108 83.1534C88.0733 83.1534 88.5733 83.2543 89.0108 83.456C89.4483 83.6548 89.7949 83.9276 90.0506 84.2741C90.3091 84.6207 90.4455 85.0142 90.4597 85.4545H89.437ZM94.9245 92.1364C94.2939 92.1364 93.7498 91.9972 93.2924 91.7188C92.8379 91.4375 92.487 91.0455 92.2399 90.5426C91.9956 90.0369 91.8734 89.4489 91.8734 88.7784C91.8734 88.108 91.9956 87.517 92.2399 87.0057C92.487 86.4915 92.8308 86.0909 93.2711 85.804C93.7143 85.5142 94.2314 85.3693 94.8223 85.3693C95.1632 85.3693 95.4998 85.4261 95.8322 85.5398C96.1646 85.6534 96.4672 85.8381 96.7399 86.0938C97.0126 86.3466 97.2299 86.6818 97.3919 87.0994C97.5538 87.517 97.6348 88.0312 97.6348 88.642V89.0682H92.5893V88.1989H96.612C96.612 87.8295 96.5382 87.5 96.3904 87.2102C96.2456 86.9205 96.0382 86.6918 95.7683 86.5241C95.5012 86.3565 95.1859 86.2727 94.8223 86.2727C94.4217 86.2727 94.0751 86.3722 93.7825 86.571C93.4927 86.767 93.2697 87.0227 93.1135 87.3381C92.9572 87.6534 92.8791 87.9915 92.8791 88.3523V88.9318C92.8791 89.4261 92.9643 89.8452 93.1348 90.1889C93.3081 90.5298 93.5481 90.7898 93.8549 90.9688C94.1618 91.1449 94.5183 91.233 94.9245 91.233C95.1887 91.233 95.4274 91.196 95.6404 91.1222C95.8564 91.0455 96.0424 90.9318 96.1987 90.7812C96.3549 90.6278 96.4757 90.4375 96.5609 90.2102L97.5325 90.483C97.4302 90.8125 97.2583 91.1023 97.0169 91.3523C96.7754 91.5994 96.4771 91.7926 96.122 91.9318C95.7669 92.0682 95.3677 92.1364 94.9245 92.1364ZM99.1646 92V85.4545H100.136V86.4432H100.204C100.324 86.1193 100.54 85.8565 100.852 85.6548C101.165 85.4531 101.517 85.3523 101.909 85.3523C101.983 85.3523 102.075 85.3537 102.186 85.3565C102.297 85.3594 102.381 85.3636 102.437 85.3693V86.392C102.403 86.3835 102.325 86.3707 102.203 86.3537C102.084 86.3338 101.957 86.3239 101.824 86.3239C101.506 86.3239 101.221 86.3906 100.971 86.5241C100.724 86.6548 100.528 86.8366 100.383 87.0696C100.241 87.2997 100.17 87.5625 100.17 87.858V92H99.1646ZM109.181 85.4545L106.76 92H105.738L103.317 85.4545H104.408L106.215 90.6705H106.283L108.09 85.4545H109.181ZM110.508 92V85.4545H111.514V92H110.508ZM111.02 84.3636C110.824 84.3636 110.655 84.2969 110.513 84.1634C110.373 84.0298 110.304 83.8693 110.304 83.6818C110.304 83.4943 110.373 83.3338 110.513 83.2003C110.655 83.0668 110.824 83 111.02 83C111.216 83 111.383 83.0668 111.523 83.2003C111.665 83.3338 111.736 83.4943 111.736 83.6818C111.736 83.8693 111.665 84.0298 111.523 84.1634C111.383 84.2969 111.216 84.3636 111.02 84.3636ZM116.015 92.1364C115.401 92.1364 114.873 91.9915 114.43 91.7017C113.987 91.4119 113.646 91.0128 113.407 90.5043C113.169 89.9957 113.049 89.4148 113.049 88.7614C113.049 88.0966 113.171 87.5099 113.416 87.0014C113.663 86.4901 114.007 86.0909 114.447 85.804C114.89 85.5142 115.407 85.3693 115.998 85.3693C116.458 85.3693 116.873 85.4545 117.242 85.625C117.612 85.7955 117.914 86.0341 118.15 86.3409C118.386 86.6477 118.532 87.0057 118.589 87.4148H117.583C117.507 87.1165 117.336 86.8523 117.072 86.6222C116.811 86.3892 116.458 86.2727 116.015 86.2727C115.623 86.2727 115.279 86.375 114.984 86.5795C114.691 86.7812 114.463 87.0668 114.298 87.4361C114.136 87.8026 114.055 88.233 114.055 88.7273C114.055 89.233 114.134 89.6733 114.294 90.0483C114.455 90.4233 114.683 90.7145 114.975 90.9219C115.271 91.1293 115.617 91.233 116.015 91.233C116.276 91.233 116.514 91.1875 116.727 91.0966C116.94 91.0057 117.12 90.875 117.268 90.7045C117.416 90.5341 117.521 90.3295 117.583 90.0909H118.589C118.532 90.4773 118.392 90.8253 118.167 91.1349C117.945 91.4418 117.651 91.6861 117.285 91.8679C116.921 92.0469 116.498 92.1364 116.015 92.1364ZM122.803 92.1364C122.173 92.1364 121.629 91.9972 121.171 91.7188C120.717 91.4375 120.366 91.0455 120.119 90.5426C119.874 90.0369 119.752 89.4489 119.752 88.7784C119.752 88.108 119.874 87.517 120.119 87.0057C120.366 86.4915 120.71 86.0909 121.15 85.804C121.593 85.5142 122.11 85.3693 122.701 85.3693C123.042 85.3693 123.379 85.4261 123.711 85.5398C124.044 85.6534 124.346 85.8381 124.619 86.0938C124.892 86.3466 125.109 86.6818 125.271 87.0994C125.433 87.517 125.514 88.0312 125.514 88.642V89.0682H120.468V88.1989H124.491C124.491 87.8295 124.417 87.5 124.269 87.2102C124.124 86.9205 123.917 86.6918 123.647 86.5241C123.38 86.3565 123.065 86.2727 122.701 86.2727C122.301 86.2727 121.954 86.3722 121.661 86.571C121.372 86.767 121.149 87.0227 120.992 87.3381C120.836 87.6534 120.758 87.9915 120.758 88.3523V88.9318C120.758 89.4261 120.843 89.8452 121.014 90.1889C121.187 90.5298 121.427 90.7898 121.734 90.9688C122.041 91.1449 122.397 91.233 122.803 91.233C123.068 91.233 123.306 91.196 123.519 91.1222C123.735 91.0455 123.921 90.9318 124.078 90.7812C124.234 90.6278 124.355 90.4375 124.44 90.2102L125.411 90.483C125.309 90.8125 125.137 91.1023 124.896 91.3523C124.654 91.5994 124.356 91.7926 124.001 91.9318C123.646 92.0682 123.247 92.1364 122.803 92.1364ZM131.68 86.9205L130.776 87.1761C130.72 87.0256 130.636 86.8793 130.525 86.7372C130.417 86.5923 130.269 86.473 130.082 86.3793C129.894 86.2855 129.654 86.2386 129.362 86.2386C128.961 86.2386 128.627 86.331 128.36 86.5156C128.096 86.6974 127.964 86.929 127.964 87.2102C127.964 87.4602 128.055 87.6577 128.237 87.8026C128.419 87.9474 128.703 88.0682 129.089 88.1648L130.061 88.4034C130.646 88.5455 131.082 88.7628 131.369 89.0554C131.656 89.3452 131.799 89.7187 131.799 90.1761C131.799 90.5511 131.691 90.8864 131.475 91.1818C131.262 91.4773 130.964 91.7102 130.58 91.8807C130.197 92.0511 129.751 92.1364 129.242 92.1364C128.575 92.1364 128.022 91.9915 127.585 91.7017C127.147 91.4119 126.87 90.9886 126.754 90.4318L127.708 90.1932C127.799 90.5455 127.971 90.8097 128.224 90.9858C128.48 91.1619 128.813 91.25 129.225 91.25C129.694 91.25 130.066 91.1506 130.342 90.9517C130.62 90.75 130.759 90.5085 130.759 90.2273C130.759 90 130.68 89.8097 130.521 89.6562C130.362 89.5 130.117 89.3835 129.788 89.3068L128.697 89.0511C128.097 88.9091 127.657 88.6889 127.376 88.3906C127.097 88.0895 126.958 87.7131 126.958 87.2614C126.958 86.892 127.062 86.5653 127.269 86.2812C127.48 85.9972 127.765 85.7741 128.126 85.6122C128.49 85.4503 128.901 85.3693 129.362 85.3693C130.009 85.3693 130.518 85.5114 130.887 85.7955C131.259 86.0795 131.524 86.4545 131.68 86.9205Z" fill="#5C6172"/>
<rect x="72" y="40" width="72" height="1" fill="#EAEBF0"/>
<path d="M193.06 32.7853C189.269 30.3894 184.767 29 180.001 29C175.234 29 170.731 30.3895 166.94 32.7855C160.906 36.6 154.603 41 147.464 41H144V109H216V41H212.538C205.399 41 199.095 36.5999 193.06 32.7853Z" fill="white"/>
<path d="M216 40.5C216 40.5 214.548 40.5 212.538 40.5C205.399 40.5 199.095 36.0999 193.06 32.2853C189.269 29.8894 184.767 28.5 180.001 28.5C175.234 28.5 170.731 29.8895 166.94 32.2855C160.906 36.1 154.603 40.5 147.464 40.5H144" stroke="#EAEBF0"/>
<rect width="52" height="52" transform="translate(154.5 41.5)" fill="white"/>
<g opacity="0.7" filter="url(#filter1_f_4654_17429)">
<ellipse cx="187.5" cy="58.5" rx="12.5" ry="17.5" fill="#A057E8"/>
</g>
<g opacity="0.7" filter="url(#filter2_f_4654_17429)">
<circle cx="173" cy="70" r="11" fill="#051060"/>
</g>
<g filter="url(#filter3_d_4654_17429)">
<mask id="path-24-inside-3_4654_17429" fill="white">
<path d="M154.5 67.5C154.5 53.1406 166.141 41.5 180.5 41.5C194.859 41.5 206.5 53.1406 206.5 67.5C206.5 81.8594 194.859 93.5 180.5 93.5C166.141 93.5 154.5 81.8594 154.5 67.5Z"/>
</mask>
<path d="M154.5 67.5C154.5 53.1406 166.141 41.5 180.5 41.5C194.859 41.5 206.5 53.1406 206.5 67.5C206.5 81.8594 194.859 93.5 180.5 93.5C166.141 93.5 154.5 81.8594 154.5 67.5Z" fill="url(#paint0_linear_4654_17429)"/>
<path d="M153 66.75C153 51.9764 164.976 40 179.75 40C194.524 40 206.5 51.9764 206.5 66.75V67.5C206.5 53.969 194.859 43 180.5 43H180.5C166.969 43 156 53.969 156 67.5L153 66.75ZM156 67.5M206.5 93.5H154.5H206.5M179.75 93.5C164.976 93.5 153 81.5236 153 66.75C153 51.9764 164.976 40 179.75 40L180.5 43C166.969 43 156 53.969 156 67.5V67.5C156 81.8594 166.969 93.5 180.5 93.5H179.75ZM180.5 93.5M206.5 41.5V93.5V41.5" fill="white" fill-opacity="0.2" mask="url(#path-24-inside-3_4654_17429)"/>
<g clip-path="url(#clip0_4654_17429)">
<path fill-rule="evenodd" clip-rule="evenodd" d="M187.343 57.2383C192.46 57.2383 196.609 61.3864 196.609 66.5039C196.609 70.8611 193.6 74.5144 189.548 75.5039V81.2373L181.947 75.7705H173.056C170.886 75.7705 168.892 75.0224 167.313 73.7734L169.508 71.5781C170.569 72.3564 171.877 72.8173 173.294 72.8174L173.624 72.8096C176.901 72.6435 179.528 70.0155 179.694 66.7383L179.703 66.4092C179.703 62.8696 176.833 60 173.294 60L172.965 60.0088C169.578 60.1802 166.886 62.9801 166.886 66.4092L166.894 66.7383C166.959 68.0275 167.406 69.2155 168.123 70.1934L165.911 72.4043C164.586 70.8016 163.789 68.7458 163.789 66.5039C163.789 61.3864 167.938 57.2383 173.056 57.2383H187.343ZM166.59 73.1123L166.94 73.4629C166.64 73.1985 166.357 72.915 166.093 72.6143L166.59 73.1123ZM173.294 61.959C175.751 61.959 177.744 63.9518 177.744 66.4092C177.744 68.8664 175.751 70.8584 173.294 70.8584C170.837 70.8582 168.845 68.8663 168.845 66.4092C168.845 63.9519 170.837 61.9591 173.294 61.959ZM172.724 64.2959C172.459 65.0109 171.896 65.5752 171.181 65.8398L169.744 66.3711L171.181 66.9023C171.895 67.167 172.459 67.7306 172.724 68.4453L173.255 69.8818L173.786 68.4453C174.051 67.7304 174.615 67.1669 175.33 66.9023L176.766 66.3711L175.33 65.8398C174.615 65.5752 174.051 65.011 173.786 64.2959L173.255 62.8604L172.724 64.2959ZM183.335 64.3184C183.001 65.2198 182.291 65.931 181.39 66.2646L180.932 66.4336L181.39 66.6035C182.291 66.9371 183.001 67.6476 183.335 68.5488L183.505 69.0068L183.674 68.5488C184.007 67.6474 184.719 66.9372 185.62 66.6035L186.078 66.4336L185.62 66.2646C184.719 65.931 184.007 65.2199 183.674 64.3184L183.505 63.8604L183.335 64.3184ZM190.761 64.3184C190.427 65.2198 189.717 65.931 188.815 66.2646L188.357 66.4336L188.815 66.6035C189.717 66.9371 190.427 67.6476 190.761 68.5488L190.931 69.0068L191.1 68.5488C191.433 67.6474 192.144 66.9372 193.046 66.6035L193.504 66.4336L193.046 66.2646C192.144 65.931 191.433 65.2199 191.1 64.3184L190.931 63.8604L190.761 64.3184Z" fill="white"/>
</g>
</g>
<path d="M180.001 28.5C184.669 28.5001 189.08 29.8609 192.793 32.208C195.795 34.1056 198.911 36.1803 202.165 37.7725C205.426 39.3679 208.865 40.4999 212.538 40.5H211.536C208.076 40.5 204.808 39.3614 201.572 37.8203C199.955 37.05 198.356 36.1848 196.748 35.3164C195.144 34.4503 193.53 33.5809 191.899 32.8154C188.463 31.2019 184.454 30.5 180.001 30.5C175.548 30.5 171.537 31.2017 168.101 32.8154C166.47 33.5809 164.856 34.4503 163.252 35.3164C161.644 36.1848 160.045 37.05 158.428 37.8203C155.192 39.3614 151.924 40.5 148.464 40.5H147.464C151.137 40.5 154.576 39.3678 157.836 37.7725C161.09 36.1803 164.206 34.1056 167.208 32.208C170.922 29.8609 175.332 28.5 180.001 28.5Z" fill="url(#paint1_linear_4654_17429)" stroke="url(#paint2_linear_4654_17429)"/>
<mask id="path-28-inside-4_4654_17429" fill="white">
<path d="M216 40H288V108H216V40Z"/>
</mask>
<path d="M216 40V41H288V40V39H216V40Z" fill="#D0DDFC" mask="url(#path-28-inside-4_4654_17429)"/>
<path d="M256.167 67.3588H252.833L249.125 69.8254C248.575 70.1921 247.833 69.8004 247.833 69.1338V67.3588C245.333 67.3588 243.667 65.6921 243.667 63.1921V58.1921C243.667 55.6921 245.333 54.0254 247.833 54.0254H256.167C258.667 54.0254 260.333 55.6921 260.333 58.1921V63.1921C260.333 65.6921 258.667 67.3588 256.167 67.3588Z" stroke="#5C6172" stroke-width="1.25" stroke-miterlimit="10" stroke-linecap="round" stroke-linejoin="round"/>
<path d="M252 61.8358V61.7073C252 60.9896 252.443 60.6097 252.886 60.3036C253.319 60.0081 253.752 59.6282 253.752 58.9316C253.752 57.9607 252.971 57.1797 252 57.1797C251.029 57.1797 250.248 57.9607 250.248 58.9316" stroke="#5C6172" stroke-width="1.25" stroke-linecap="round" stroke-linejoin="round"/>
<path d="M252 64.0254H252.007" stroke="#5C6172" stroke-width="1.66667" stroke-linecap="round" stroke-linejoin="round"/>
<path d="M240.043 92V83.2727H241.1V87.1591H245.753V83.2727H246.81V92H245.753V88.0966H241.1V92H240.043ZM251.534 92.1364C250.903 92.1364 250.359 91.9972 249.902 91.7188C249.447 91.4375 249.096 91.0455 248.849 90.5426C248.605 90.0369 248.483 89.4489 248.483 88.7784C248.483 88.108 248.605 87.517 248.849 87.0057C249.096 86.4915 249.44 86.0909 249.881 85.804C250.324 85.5142 250.841 85.3693 251.432 85.3693C251.773 85.3693 252.109 85.4261 252.442 85.5398C252.774 85.6534 253.077 85.8381 253.349 86.0938C253.622 86.3466 253.839 86.6818 254.001 87.0994C254.163 87.517 254.244 88.0312 254.244 88.642V89.0682H249.199V88.1989H253.221C253.221 87.8295 253.148 87.5 253 87.2102C252.855 86.9205 252.648 86.6918 252.378 86.5241C252.111 86.3565 251.795 86.2727 251.432 86.2727C251.031 86.2727 250.684 86.3722 250.392 86.571C250.102 86.767 249.879 87.0227 249.723 87.3381C249.567 87.6534 249.488 87.9915 249.488 88.3523V88.9318C249.488 89.4261 249.574 89.8452 249.744 90.1889C249.917 90.5298 250.157 90.7898 250.464 90.9688C250.771 91.1449 251.128 91.233 251.534 91.233C251.798 91.233 252.037 91.196 252.25 91.1222C252.466 91.0455 252.652 90.9318 252.808 90.7812C252.964 90.6278 253.085 90.4375 253.17 90.2102L254.142 90.483C254.04 90.8125 253.868 91.1023 253.626 91.3523C253.385 91.5994 253.086 91.7926 252.731 91.9318C252.376 92.0682 251.977 92.1364 251.534 92.1364ZM256.78 83.2727V92H255.774V83.2727H256.78ZM258.622 94.4545V85.4545H259.593V86.4943H259.713C259.786 86.3807 259.889 86.2358 260.019 86.0597C260.153 85.8807 260.343 85.7216 260.59 85.5824C260.84 85.4403 261.178 85.3693 261.605 85.3693C262.156 85.3693 262.642 85.5071 263.062 85.7827C263.482 86.0582 263.811 86.4489 264.046 86.9545C264.282 87.4602 264.4 88.0568 264.4 88.7443C264.4 89.4375 264.282 90.0384 264.046 90.5469C263.811 91.0526 263.484 91.4446 263.066 91.723C262.649 91.9986 262.167 92.1364 261.622 92.1364C261.201 92.1364 260.865 92.0668 260.612 91.9276C260.359 91.7855 260.164 91.625 260.028 91.446C259.892 91.2642 259.786 91.1136 259.713 90.9943H259.627V94.4545H258.622ZM259.61 88.7273C259.61 89.2216 259.683 89.6577 259.828 90.0355C259.972 90.4105 260.184 90.7045 260.463 90.9176C260.741 91.1278 261.082 91.233 261.485 91.233C261.906 91.233 262.257 91.1222 262.538 90.9006C262.822 90.6761 263.035 90.375 263.177 89.9972C263.322 89.6165 263.394 89.1932 263.394 88.7273C263.394 88.267 263.323 87.8523 263.181 87.483C263.042 87.1108 262.83 86.8168 262.546 86.6009C262.265 86.3821 261.911 86.2727 261.485 86.2727C261.076 86.2727 260.732 86.3764 260.454 86.5838C260.176 86.7884 259.965 87.0753 259.823 87.4446C259.681 87.8111 259.61 88.2386 259.61 88.7273Z" fill="#5C6172"/>
<mask id="path-34-inside-5_4654_17429" fill="white">
<path d="M288 40H360V108H288V40Z"/>
</mask>
<path d="M288 40V41H360V40V39H288V40Z" fill="#D0DDFC" mask="url(#path-34-inside-5_4654_17429)"/>
<path d="M323.083 68.4991C327.179 68.4991 330.5 65.1787 330.5 61.0826C330.5 56.9866 327.179 53.666 323.083 53.666C318.987 53.666 315.667 56.9866 315.667 61.0826C315.667 65.1787 318.987 68.4991 323.083 68.4991Z" stroke="#5C6172" stroke-width="1.25" stroke-linecap="round" stroke-linejoin="round"/>
<path d="M332.333 70.3335L328.355 66.3555" stroke="#5C6172" stroke-width="1.25" stroke-linecap="round" stroke-linejoin="round"/>
<path d="M324.681 64.3179H322.016C321.176 64.3179 320.494 63.636 320.494 62.7955V59.3701C320.494 58.5296 320.755 57.8477 321.596 57.8477H323.602C323.805 57.8477 323.999 57.9269 324.141 58.0697L325.981 59.9092C326.124 60.052 326.203 60.2454 326.203 60.4484V62.7955C326.203 63.636 325.521 64.3179 324.681 64.3179Z" stroke="#5C6172" stroke-width="1.25" stroke-linecap="round" stroke-linejoin="round"/>
<path d="M323.919 58.0312V59.2917C323.919 59.741 324.284 60.1059 324.733 60.1059H326.027" stroke="#5C6172" stroke-width="1.25" stroke-linecap="round" stroke-linejoin="round"/>
<path d="M308.841 84.2102V83.2727H315.387V84.2102H312.642V92H311.586V84.2102H308.841ZM316.202 92V85.4545H317.173V86.4432H317.241C317.361 86.1193 317.577 85.8565 317.889 85.6548C318.202 85.4531 318.554 85.3523 318.946 85.3523C319.02 85.3523 319.112 85.3537 319.223 85.3565C319.334 85.3594 319.418 85.3636 319.474 85.3693V86.392C319.44 86.3835 319.362 86.3707 319.24 86.3537C319.121 86.3338 318.994 86.3239 318.861 86.3239C318.543 86.3239 318.259 86.3906 318.009 86.5241C317.761 86.6548 317.565 86.8366 317.42 87.0696C317.278 87.2997 317.207 87.5625 317.207 87.858V92H316.202ZM322.593 92.1534C322.178 92.1534 321.801 92.0753 321.463 91.919C321.125 91.7599 320.857 91.5312 320.658 91.233C320.459 90.9318 320.36 90.5682 320.36 90.142C320.36 89.767 320.434 89.4631 320.581 89.2301C320.729 88.9943 320.926 88.8097 321.174 88.6761C321.421 88.5426 321.694 88.4432 321.992 88.3778C322.293 88.3097 322.596 88.2557 322.9 88.2159C323.297 88.1648 323.62 88.1264 323.867 88.1009C324.117 88.0724 324.299 88.0256 324.412 87.9602C324.529 87.8949 324.587 87.7812 324.587 87.6193V87.5852C324.587 87.1648 324.472 86.8381 324.242 86.6051C324.015 86.3722 323.669 86.2557 323.206 86.2557C322.726 86.2557 322.35 86.3608 322.077 86.571C321.804 86.7812 321.613 87.0057 321.502 87.2443L320.547 86.9034C320.718 86.5057 320.945 86.196 321.229 85.9744C321.516 85.75 321.828 85.5937 322.167 85.5057C322.507 85.4148 322.843 85.3693 323.172 85.3693C323.382 85.3693 323.624 85.3949 323.897 85.446C324.172 85.4943 324.438 85.5952 324.694 85.7486C324.952 85.902 325.167 86.1335 325.337 86.4432C325.507 86.7528 325.593 87.1676 325.593 87.6875V92H324.587V91.1136H324.536C324.468 91.2557 324.354 91.4077 324.195 91.5696C324.036 91.7315 323.824 91.8693 323.56 91.983C323.296 92.0966 322.973 92.1534 322.593 92.1534ZM322.746 91.25C323.144 91.25 323.479 91.1719 323.752 91.0156C324.027 90.8594 324.235 90.6577 324.374 90.4105C324.516 90.1634 324.587 89.9034 324.587 89.6307V88.7102C324.544 88.7614 324.451 88.8082 324.306 88.8509C324.164 88.8906 323.999 88.9261 323.811 88.9574C323.627 88.9858 323.446 89.0114 323.27 89.0341C323.097 89.054 322.956 89.071 322.848 89.0852C322.587 89.1193 322.343 89.1747 322.115 89.2514C321.891 89.3253 321.709 89.4375 321.57 89.5881C321.434 89.7358 321.365 89.9375 321.365 90.1932C321.365 90.5426 321.495 90.8068 321.753 90.9858C322.015 91.1619 322.346 91.25 322.746 91.25ZM330.087 92.1364C329.474 92.1364 328.945 91.9915 328.502 91.7017C328.059 91.4119 327.718 91.0128 327.479 90.5043C327.241 89.9957 327.121 89.4148 327.121 88.7614C327.121 88.0966 327.244 87.5099 327.488 87.0014C327.735 86.4901 328.079 86.0909 328.519 85.804C328.962 85.5142 329.479 85.3693 330.07 85.3693C330.531 85.3693 330.945 85.4545 331.315 85.625C331.684 85.7955 331.987 86.0341 332.222 86.3409C332.458 86.6477 332.604 87.0057 332.661 87.4148H331.656C331.579 87.1165 331.408 86.8523 331.144 86.6222C330.883 86.3892 330.531 86.2727 330.087 86.2727C329.695 86.2727 329.352 86.375 329.056 86.5795C328.763 86.7812 328.535 87.0668 328.37 87.4361C328.208 87.8026 328.127 88.233 328.127 88.7273C328.127 89.233 328.207 89.6733 328.366 90.0483C328.528 90.4233 328.755 90.7145 329.048 90.9219C329.343 91.1293 329.69 91.233 330.087 91.233C330.349 91.233 330.586 91.1875 330.799 91.0966C331.012 91.0057 331.192 90.875 331.34 90.7045C331.488 90.5341 331.593 90.3295 331.656 90.0909H332.661C332.604 90.4773 332.464 90.8253 332.239 91.1349C332.018 91.4418 331.724 91.6861 331.357 91.8679C330.994 92.0469 330.57 92.1364 330.087 92.1364ZM335.069 89.6136L335.052 88.3693H335.256L338.12 85.4545H339.364L336.313 88.5398H336.228L335.069 89.6136ZM334.131 92V83.2727H335.137V92H334.131ZM338.29 92L335.734 88.7614L336.45 88.0625L339.569 92H338.29Z" fill="#5C6172"/>
</g>
<defs>
<filter id="filter0_d_4654_17429" x="-24" y="0" width="408" height="129" filterUnits="userSpaceOnUse" color-interpolation-filters="sRGB">
<feFlood flood-opacity="0" result="BackgroundImageFix"/>
<feColorMatrix in="SourceAlpha" type="matrix" values="0 0 0 0 0 0 0 0 0 0 0 0 0 0 0 0 0 0 127 0" result="hardAlpha"/>
<feOffset dy="-4"/>
<feGaussianBlur stdDeviation="12"/>
<feComposite in2="hardAlpha" operator="out"/>
<feColorMatrix type="matrix" values="0 0 0 0 0 0 0 0 0 0 0 0 0 0 0 0 0 0 0.1 0"/>
<feBlend mode="normal" in2="BackgroundImageFix" result="effect1_dropShadow_4654_17429"/>
<feBlend mode="normal" in="SourceGraphic" in2="effect1_dropShadow_4654_17429" result="shape"/>
</filter>
<filter id="filter1_f_4654_17429" x="146" y="12" width="83" height="93" filterUnits="userSpaceOnUse" color-interpolation-filters="sRGB">
<feFlood flood-opacity="0" result="BackgroundImageFix"/>
<feBlend mode="normal" in="SourceGraphic" in2="BackgroundImageFix" result="shape"/>
<feGaussianBlur stdDeviation="14.5" result="effect1_foregroundBlur_4654_17429"/>
</filter>
<filter id="filter2_f_4654_17429" x="133" y="30" width="80" height="80" filterUnits="userSpaceOnUse" color-interpolation-filters="sRGB">
<feFlood flood-opacity="0" result="BackgroundImageFix"/>
<feBlend mode="normal" in="SourceGraphic" in2="BackgroundImageFix" result="shape"/>
<feGaussianBlur stdDeviation="14.5" result="effect1_foregroundBlur_4654_17429"/>
</filter>
<filter id="filter3_d_4654_17429" x="110.697" y="0.299999" width="139.607" height="139.607" filterUnits="userSpaceOnUse" color-interpolation-filters="sRGB">
<feFlood flood-opacity="0" result="BackgroundImageFix"/>
<feColorMatrix in="SourceAlpha" type="matrix" values="0 0 0 0 0 0 0 0 0 0 0 0 0 0 0 0 0 0 127 0" result="hardAlpha"/>
<feOffset dy="2.60339"/>
<feGaussianBlur stdDeviation="21.9017"/>
<feComposite in2="hardAlpha" operator="out"/>
<feColorMatrix type="matrix" values="0 0 0 0 0.2 0 0 0 0 0.584314 0 0 0 0 1 0 0 0 0.25 0"/>
<feBlend mode="normal" in2="BackgroundImageFix" result="effect1_dropShadow_4654_17429"/>
<feBlend mode="normal" in="SourceGraphic" in2="effect1_dropShadow_4654_17429" result="shape"/>
</filter>
<linearGradient id="paint0_linear_4654_17429" x1="154.5" y1="41.5" x2="211.573" y2="47.8415" gradientUnits="userSpaceOnUse">
<stop stop-color="#10183A"/>
<stop offset="1" stop-color="#112266"/>
</linearGradient>
<linearGradient id="paint1_linear_4654_17429" x1="144" y1="34.5" x2="216" y2="34.5" gradientUnits="userSpaceOnUse">
<stop stop-color="#E6DDFE"/>
<stop offset="0.274038" stop-color="#7454F2"/>
<stop offset="0.778846" stop-color="#B098FB"/>
<stop offset="1" stop-color="#E6DDFE"/>
</linearGradient>
<linearGradient id="paint2_linear_4654_17429" x1="144" y1="34.5" x2="216" y2="34.5" gradientUnits="userSpaceOnUse">
<stop stop-color="#E6DDFE"/>
<stop offset="0.274038" stop-color="#7454F2"/>
<stop offset="0.778846" stop-color="#B098FB"/>
<stop offset="1" stop-color="#E6DDFE"/>
</linearGradient>
<clipPath id="clip0_4654_17429">
<rect width="38" height="37" fill="white" transform="translate(161.5 49)"/>
</clipPath>
</defs>
</svg>
