<svg width="384" height="102" viewBox="0 0 384 102" fill="none" xmlns="http://www.w3.org/2000/svg">
<g filter="url(#filter0_d_4307_17021)">
<rect width="384" height="78" transform="translate(0 16)" fill="#333333"/>
<path d="M42.8666 44.5078H57.0332" stroke="#ECEDF3" stroke-width="1.3" stroke-miterlimit="10" stroke-linecap="round" stroke-linejoin="round"/>
<path d="M57.0332 42.5673V48.5257C57.0082 50.9007 56.3582 51.5007 53.8832 51.5007H46.0166C43.4999 51.5007 42.8666 50.8757 42.8666 48.3923V42.5673C42.8666 40.3173 43.3916 39.5923 45.3666 39.4757C45.5666 39.4673 45.7833 39.459 46.0166 39.459H53.8832C56.3999 39.459 57.0332 40.084 57.0332 42.5673Z" stroke="#ECEDF3" stroke-width="1.3" stroke-linecap="round" stroke-linejoin="round"/>
<path d="M59.5332 39.6083V45.4333C59.5332 47.6833 59.0082 48.4083 57.0332 48.525V42.5667C57.0332 40.0833 56.3999 39.4583 53.8832 39.4583H46.0166C45.7833 39.4583 45.5666 39.4667 45.3666 39.475C45.3916 37.1 46.0416 36.5 48.5166 36.5H56.3832C58.8999 36.5 59.5332 37.125 59.5332 39.6083Z" stroke="#ECEDF3" stroke-width="1.3" stroke-linecap="round" stroke-linejoin="round"/>
<path d="M45.575 48.8418H46.7166" stroke="#ECEDF3" stroke-width="1.3" stroke-miterlimit="10" stroke-linecap="round" stroke-linejoin="round"/>
<path d="M49.058 48.8418H51.9247" stroke="#ECEDF3" stroke-width="1.3" stroke-miterlimit="10" stroke-linecap="round" stroke-linejoin="round"/>
<path d="M28.325 73H26.0806V65.7273H28.4244C29.1299 65.7273 29.7336 65.8729 30.2355 66.1641C30.7374 66.4529 31.1221 66.8684 31.3896 67.4105C31.6571 67.9503 31.7909 68.5966 31.7909 69.3494C31.7909 70.107 31.6559 70.7592 31.386 71.3061C31.1161 71.8506 30.7232 72.2696 30.2071 72.5632C29.691 72.8544 29.0636 73 28.325 73ZM26.9613 72.2188H28.2681C28.8695 72.2188 29.3678 72.1027 29.7632 71.8707C30.1585 71.6387 30.4533 71.3085 30.6474 70.88C30.8415 70.4515 30.9386 69.9413 30.9386 69.3494C30.9386 68.7623 30.8427 68.2569 30.6509 67.8331C30.4592 67.407 30.1727 67.0803 29.7916 66.853C29.4104 66.6233 28.9357 66.5085 28.3676 66.5085H26.9613V72.2188ZM34.7596 73.1278C34.414 73.1278 34.1003 73.0627 33.8186 72.9325C33.5368 72.8 33.3131 72.6094 33.1474 72.3608C32.9817 72.1098 32.8988 71.8068 32.8988 71.4517C32.8988 71.1392 32.9604 70.8859 33.0835 70.6918C33.2066 70.4953 33.3711 70.3414 33.5771 70.2301C33.783 70.1188 34.0103 70.036 34.2589 69.9815C34.5098 69.9247 34.762 69.8797 35.0153 69.8466C35.3467 69.804 35.6154 69.772 35.8214 69.7507C36.0297 69.727 36.1812 69.688 36.2759 69.6335C36.373 69.5791 36.4215 69.4844 36.4215 69.3494V69.321C36.4215 68.9706 36.3257 68.6984 36.1339 68.5043C35.9445 68.3101 35.6569 68.2131 35.271 68.2131C34.8709 68.2131 34.5572 68.3007 34.3299 68.4759C34.1027 68.651 33.9428 68.8381 33.8505 69.0369L33.0551 68.7528C33.1971 68.4214 33.3865 68.1634 33.6232 67.9787C33.8624 67.7917 34.1228 67.6615 34.4045 67.5881C34.6886 67.5123 34.9679 67.4744 35.2426 67.4744C35.4178 67.4744 35.619 67.4957 35.8463 67.5384C36.0759 67.5786 36.2973 67.6626 36.5103 67.7905C36.7258 67.9183 36.9045 68.1113 37.0465 68.3693C37.1886 68.6274 37.2596 68.973 37.2596 69.4062V73H36.4215V72.2614H36.3789C36.3221 72.3797 36.2274 72.5064 36.0948 72.6413C35.9623 72.7763 35.7859 72.8911 35.5657 72.9858C35.3455 73.0805 35.0768 73.1278 34.7596 73.1278ZM34.8875 72.375C35.2189 72.375 35.4982 72.3099 35.7255 72.1797C35.9552 72.0495 36.128 71.8814 36.244 71.6754C36.3624 71.4695 36.4215 71.2528 36.4215 71.0256V70.2585C36.386 70.3011 36.3079 70.3402 36.1872 70.3757C36.0688 70.4089 35.9315 70.4384 35.7752 70.4645C35.6214 70.4882 35.471 70.5095 35.3242 70.5284C35.1798 70.545 35.0626 70.5592 34.9727 70.571C34.7549 70.5994 34.5513 70.6456 34.3619 70.7095C34.1749 70.7711 34.0233 70.8646 33.9073 70.9901C33.7937 71.1132 33.7369 71.2812 33.7369 71.4943C33.7369 71.7855 33.8446 72.0057 34.06 72.1548C34.2778 72.3016 34.5536 72.375 34.8875 72.375ZM42.6529 68.767L41.9001 68.9801C41.8527 68.8546 41.7829 68.7327 41.6905 68.6143C41.6006 68.4936 41.4775 68.3942 41.3212 68.3161C41.165 68.2379 40.9649 68.1989 40.7211 68.1989C40.3873 68.1989 40.1091 68.2758 39.8866 68.4297C39.6664 68.5812 39.5563 68.7741 39.5563 69.0085C39.5563 69.2169 39.6321 69.3814 39.7836 69.5021C39.9351 69.6229 40.1718 69.7235 40.4938 69.804L41.3035 70.0028C41.7912 70.1212 42.1546 70.3023 42.3937 70.5462C42.6328 70.7876 42.7523 71.099 42.7523 71.4801C42.7523 71.7926 42.6624 72.072 42.4824 72.3182C42.3049 72.5644 42.0563 72.7585 41.7367 72.9006C41.4171 73.0426 41.0454 73.1136 40.6216 73.1136C40.0653 73.1136 39.6048 72.9929 39.2403 72.7514C38.8757 72.5099 38.6448 72.1572 38.5478 71.6932L39.3432 71.4943C39.419 71.7879 39.5622 72.008 39.7729 72.1548C39.986 72.3016 40.2642 72.375 40.6074 72.375C40.9981 72.375 41.3082 72.2921 41.5378 72.1264C41.7698 71.9583 41.8859 71.7571 41.8859 71.5227C41.8859 71.3333 41.8196 71.1747 41.687 71.0469C41.5544 70.9167 41.3508 70.8196 41.0762 70.7557L40.1671 70.5426C39.6676 70.4242 39.3006 70.2408 39.0663 69.9922C38.8342 69.7412 38.7182 69.4276 38.7182 69.0511C38.7182 68.7434 38.8047 68.4711 38.9775 68.2344C39.1527 67.9976 39.3906 67.8118 39.6913 67.6768C39.9943 67.5419 40.3376 67.4744 40.7211 67.4744C41.2609 67.4744 41.6846 67.5928 41.9924 67.8295C42.3025 68.0663 42.5227 68.3788 42.6529 68.767ZM44.8519 69.7188V73H44.0139V65.7273H44.8519V68.3977H44.923C45.0508 68.116 45.2426 67.8923 45.4982 67.7266C45.7563 67.5585 46.0996 67.4744 46.5281 67.4744C46.8998 67.4744 47.2253 67.549 47.5046 67.6982C47.784 67.8449 48.0006 68.071 48.1545 68.3764C48.3107 68.6795 48.3889 69.0653 48.3889 69.5341V73H47.5508V69.5909C47.5508 69.1577 47.4384 68.8227 47.2134 68.5859C46.9909 68.3468 46.682 68.2273 46.2866 68.2273C46.012 68.2273 45.7658 68.2853 45.548 68.4013C45.3325 68.5173 45.1621 68.6866 45.0366 68.9091C44.9135 69.1316 44.8519 69.4015 44.8519 69.7188ZM50.0357 73V65.7273H50.8738V68.4119H50.9448C51.0064 68.3172 51.0916 68.1965 51.2005 68.0497C51.3118 67.9006 51.4704 67.768 51.6763 67.652C51.8847 67.5336 52.1664 67.4744 52.5215 67.4744C52.9808 67.4744 53.3856 67.5893 53.736 67.8189C54.0864 68.0485 54.3598 68.3741 54.5563 68.7955C54.7528 69.2169 54.8511 69.714 54.8511 70.2869C54.8511 70.8646 54.7528 71.3653 54.5563 71.7891C54.3598 72.2105 54.0876 72.5372 53.7395 72.7692C53.3915 72.9988 52.9903 73.1136 52.5357 73.1136C52.1853 73.1136 51.9048 73.0556 51.6941 72.9396C51.4834 72.8213 51.3212 72.6875 51.2076 72.5384C51.0939 72.3868 51.0064 72.2614 50.9448 72.1619H50.8454V73H50.0357ZM50.8596 70.2727C50.8596 70.6847 50.9199 71.0481 51.0407 71.3629C51.1614 71.6754 51.3378 71.9205 51.5698 72.098C51.8018 72.2732 52.0859 72.3608 52.4221 72.3608C52.7725 72.3608 53.0648 72.2685 53.2992 72.0838C53.5359 71.8968 53.7135 71.6458 53.8319 71.331C53.9526 71.0137 54.013 70.661 54.013 70.2727C54.013 69.8892 53.9538 69.5436 53.8354 69.2358C53.7194 68.9257 53.5431 68.6806 53.3063 68.5007C53.0719 68.3184 52.7772 68.2273 52.4221 68.2273C52.0812 68.2273 51.7947 68.3137 51.5627 68.4865C51.3307 68.657 51.1555 68.8961 51.0371 69.2038C50.9188 69.5092 50.8596 69.8655 50.8596 70.2727ZM58.3489 73.1136C57.8565 73.1136 57.4244 72.9964 57.0528 72.7621C56.6834 72.5277 56.3946 72.1998 56.1863 71.7784C55.9803 71.357 55.8773 70.8646 55.8773 70.3011C55.8773 69.733 55.9803 69.237 56.1863 68.8132C56.3946 68.3894 56.6834 68.0604 57.0528 67.826C57.4244 67.5916 57.8565 67.4744 58.3489 67.4744C58.8413 67.4744 59.2722 67.5916 59.6415 67.826C60.0132 68.0604 60.302 68.3894 60.508 68.8132C60.7163 69.237 60.8205 69.733 60.8205 70.3011C60.8205 70.8646 60.7163 71.357 60.508 71.7784C60.302 72.1998 60.0132 72.5277 59.6415 72.7621C59.2722 72.9964 58.8413 73.1136 58.3489 73.1136ZM58.3489 72.3608C58.723 72.3608 59.0307 72.2649 59.2722 72.0732C59.5137 71.8814 59.6924 71.6293 59.8084 71.3168C59.9244 71.0043 59.9824 70.6657 59.9824 70.3011C59.9824 69.9366 59.9244 69.5968 59.8084 69.282C59.6924 68.9671 59.5137 68.7126 59.2722 68.5185C59.0307 68.3243 58.723 68.2273 58.3489 68.2273C57.9749 68.2273 57.6671 68.3243 57.4256 68.5185C57.1841 68.7126 57.0054 68.9671 56.8894 69.282C56.7734 69.5968 56.7154 69.9366 56.7154 70.3011C56.7154 70.6657 56.7734 71.0043 56.8894 71.3168C57.0054 71.6293 57.1841 71.8814 57.4256 72.0732C57.6671 72.2649 57.9749 72.3608 58.3489 72.3608ZM63.7049 73.1278C63.3593 73.1278 63.0456 73.0627 62.7639 72.9325C62.4821 72.8 62.2584 72.6094 62.0927 72.3608C61.927 72.1098 61.8441 71.8068 61.8441 71.4517C61.8441 71.1392 61.9057 70.8859 62.0288 70.6918C62.1519 70.4953 62.3164 70.3414 62.5224 70.2301C62.7284 70.1188 62.9556 70.036 63.2042 69.9815C63.4552 69.9247 63.7073 69.8797 63.9606 69.8466C64.292 69.804 64.5607 69.772 64.7667 69.7507C64.975 69.727 65.1266 69.688 65.2213 69.6335C65.3183 69.5791 65.3669 69.4844 65.3669 69.3494V69.321C65.3669 68.9706 65.271 68.6984 65.0792 68.5043C64.8898 68.3101 64.6022 68.2131 64.2163 68.2131C63.8162 68.2131 63.5025 68.3007 63.2752 68.4759C63.048 68.651 62.8882 68.8381 62.7958 69.0369L62.0004 68.7528C62.1424 68.4214 62.3318 68.1634 62.5686 67.9787C62.8077 67.7917 63.0681 67.6615 63.3498 67.5881C63.6339 67.5123 63.9133 67.4744 64.1879 67.4744C64.3631 67.4744 64.5643 67.4957 64.7916 67.5384C65.0212 67.5786 65.2426 67.6626 65.4556 67.7905C65.6711 67.9183 65.8498 68.1113 65.9919 68.3693C66.1339 68.6274 66.2049 68.973 66.2049 69.4062V73H65.3669V72.2614H65.3242C65.2674 72.3797 65.1727 72.5064 65.0402 72.6413C64.9076 72.7763 64.7312 72.8911 64.511 72.9858C64.2909 73.0805 64.0222 73.1278 63.7049 73.1278ZM63.8328 72.375C64.1642 72.375 64.4436 72.3099 64.6708 72.1797C64.9005 72.0495 65.0733 71.8814 65.1893 71.6754C65.3077 71.4695 65.3669 71.2528 65.3669 71.0256V70.2585C65.3313 70.3011 65.2532 70.3402 65.1325 70.3757C65.0141 70.4089 64.8768 70.4384 64.7205 70.4645C64.5667 70.4882 64.4163 70.5095 64.2696 70.5284C64.1251 70.545 64.008 70.5592 63.918 70.571C63.7002 70.5994 63.4966 70.6456 63.3072 70.7095C63.1202 70.7711 62.9687 70.8646 62.8527 70.9901C62.739 71.1132 62.6822 71.2812 62.6822 71.4943C62.6822 71.7855 62.7899 72.0057 63.0053 72.1548C63.2232 72.3016 63.499 72.375 63.8328 72.375ZM67.7346 73V67.5455H68.5442V68.3693H68.6011C68.7005 68.0994 68.8804 67.8804 69.1408 67.7124C69.4012 67.5443 69.6948 67.4602 70.0215 67.4602C70.0831 67.4602 70.16 67.4614 70.2523 67.4638C70.3447 67.4661 70.4145 67.4697 70.4618 67.4744V68.3267C70.4334 68.3196 70.3683 68.3089 70.2665 68.2947C70.1671 68.2782 70.0618 68.2699 69.9505 68.2699C69.6853 68.2699 69.4486 68.3255 69.2403 68.4368C69.0343 68.5457 68.8709 68.6972 68.7502 68.8913C68.6318 69.0831 68.5726 69.3021 68.5726 69.5483V73H67.7346ZM73.3489 73.1136C72.8944 73.1136 72.4931 72.9988 72.1451 72.7692C71.7971 72.5372 71.5248 72.2105 71.3283 71.7891C71.1318 71.3653 71.0336 70.8646 71.0336 70.2869C71.0336 69.714 71.1318 69.2169 71.3283 68.7955C71.5248 68.3741 71.7983 68.0485 72.1486 67.8189C72.499 67.5893 72.9038 67.4744 73.3631 67.4744C73.7182 67.4744 73.9988 67.5336 74.2047 67.652C74.4131 67.768 74.5717 67.9006 74.6806 68.0497C74.7919 68.1965 74.8783 68.3172 74.9398 68.4119H75.0109V65.7273H75.8489V73H75.0393V72.1619H74.9398C74.8783 72.2614 74.7907 72.3868 74.677 72.5384C74.5634 72.6875 74.4012 72.8213 74.1905 72.9396C73.9798 73.0556 73.6993 73.1136 73.3489 73.1136ZM73.4626 72.3608C73.7987 72.3608 74.0828 72.2732 74.3148 72.098C74.5468 71.9205 74.7232 71.6754 74.8439 71.3629C74.9647 71.0481 75.0251 70.6847 75.0251 70.2727C75.0251 69.8655 74.9659 69.5092 74.8475 69.2038C74.7291 68.8961 74.5539 68.657 74.3219 68.4865C74.0899 68.3137 73.8035 68.2273 73.4626 68.2273C73.1074 68.2273 72.8115 68.3184 72.5748 68.5007C72.3404 68.6806 72.164 68.9257 72.0457 69.2358C71.9297 69.5436 71.8716 69.8892 71.8716 70.2727C71.8716 70.661 71.9308 71.0137 72.0492 71.331C72.1699 71.6458 72.3475 71.8968 72.5819 72.0838C72.8186 72.2685 73.1122 72.3608 73.4626 72.3608Z" fill="#ECEDF3"/>
<g clip-path="url(#clip0_4307_17021)">
<path d="M113.6 49.5V37.5C113.6 36.3917 114.492 35.5 115.6 35.5H128.85H128.6C127.492 35.5 126.6 36.3917 126.6 37.5V49.5C126.6 51.1583 125.258 52.5 123.6 52.5H116.6C114.942 52.5 113.6 51.1583 113.6 49.5Z" stroke="#ECEDF3" stroke-width="1.25" stroke-linecap="round" stroke-linejoin="round"/>
<path d="M120.1 49C119.55 49 119.1 49.45 119.1 50C119.1 50.55 119.55 51 120.1 51C120.65 51 121.1 50.55 121.1 50C121.1 49.45 120.65 49 120.1 49Z" fill="#ECEDF3"/>
<path d="M128.6 35.5C129.7 35.5 130.6 36.4 130.6 37.5V40C130.6 41.1 129.7 42 128.6 42H126.6V37.5C126.6 36.4 127.5 35.5 128.6 35.5Z" stroke="#ECEDF3" stroke-width="1.25" stroke-linecap="round" stroke-linejoin="round"/>
<path d="M117.65 40H122.55" stroke="#ECEDF3" stroke-width="1.25" stroke-linecap="round" stroke-linejoin="round"/>
<path d="M117.65 42.166H122.55" stroke="#ECEDF3" stroke-width="1.25" stroke-linecap="round" stroke-linejoin="round"/>
<path d="M117.65 40H118.458C119.658 40 120.625 40.9667 120.625 42.1667C120.625 43.3667 119.658 44.3333 118.458 44.3333H117.65L120.625 46.5" stroke="#ECEDF3" stroke-width="1.25" stroke-linecap="round" stroke-linejoin="round"/>
</g>
<path d="M103.458 67.5455C103.415 67.1856 103.242 66.9062 102.939 66.7074C102.636 66.5085 102.265 66.4091 101.824 66.4091C101.502 66.4091 101.221 66.4612 100.979 66.5653C100.74 66.6695 100.553 66.8127 100.418 66.995C100.286 67.1773 100.219 67.3845 100.219 67.6165C100.219 67.8106 100.265 67.9775 100.358 68.1172C100.452 68.2545 100.573 68.3693 100.72 68.4616C100.867 68.5516 101.021 68.6262 101.182 68.6854C101.343 68.7422 101.491 68.7884 101.626 68.8239L102.364 69.0227C102.554 69.0724 102.764 69.1411 102.996 69.2287C103.231 69.3163 103.454 69.4358 103.667 69.5874C103.883 69.7365 104.06 69.9283 104.2 70.1626C104.34 70.397 104.41 70.6847 104.41 71.0256C104.41 71.4186 104.307 71.7737 104.101 72.0909C103.897 72.4081 103.599 72.6603 103.206 72.8473C102.815 73.0343 102.341 73.1278 101.782 73.1278C101.261 73.1278 100.81 73.0438 100.429 72.8757C100.05 72.7076 99.7517 72.4732 99.5339 72.1726C99.3185 71.8719 99.1966 71.5227 99.1682 71.125H100.077C100.101 71.3996 100.193 71.6269 100.354 71.8068C100.518 71.9844 100.724 72.117 100.972 72.2045C101.223 72.2898 101.493 72.3324 101.782 72.3324C102.118 72.3324 102.42 72.2779 102.687 72.169C102.955 72.0578 103.167 71.9039 103.323 71.7074C103.479 71.5085 103.557 71.2765 103.557 71.0114C103.557 70.7699 103.49 70.5734 103.355 70.4219C103.22 70.2704 103.042 70.1473 102.822 70.0526C102.602 69.9579 102.364 69.875 102.108 69.804L101.214 69.5483C100.645 69.3849 100.196 69.1518 99.8642 68.8487C99.5327 68.5457 99.367 68.1491 99.367 67.6591C99.367 67.2519 99.4771 66.8968 99.6973 66.5938C99.9198 66.2884 100.218 66.0516 100.592 65.8835C100.969 65.7131 101.389 65.6278 101.853 65.6278C102.322 65.6278 102.738 65.7119 103.103 65.88C103.467 66.0457 103.756 66.273 103.969 66.5618C104.185 66.8506 104.298 67.1785 104.31 67.5455H103.458ZM105.744 73V67.5455H106.554V68.3977H106.625C106.738 68.1065 106.922 67.8804 107.175 67.7195C107.428 67.5561 107.733 67.4744 108.088 67.4744C108.448 67.4744 108.747 67.5561 108.986 67.7195C109.228 67.8804 109.416 68.1065 109.551 68.3977H109.608C109.747 68.116 109.957 67.8923 110.236 67.7266C110.516 67.5585 110.851 67.4744 111.241 67.4744C111.729 67.4744 112.128 67.6271 112.438 67.9325C112.748 68.2356 112.903 68.7079 112.903 69.3494V73H112.065V69.3494C112.065 68.947 111.955 68.6593 111.735 68.4865C111.515 68.3137 111.255 68.2273 110.957 68.2273C110.574 68.2273 110.276 68.3433 110.066 68.5753C109.855 68.8049 109.75 69.0961 109.75 69.4489V73H108.897V69.2642C108.897 68.9541 108.797 68.7043 108.596 68.5149C108.394 68.3232 108.135 68.2273 107.818 68.2273C107.6 68.2273 107.396 68.2853 107.207 68.4013C107.02 68.5173 106.869 68.6783 106.752 68.8842C106.639 69.0878 106.582 69.3234 106.582 69.5909V73H105.744ZM116.04 73.1278C115.695 73.1278 115.381 73.0627 115.099 72.9325C114.818 72.8 114.594 72.6094 114.428 72.3608C114.263 72.1098 114.18 71.8068 114.18 71.4517C114.18 71.1392 114.241 70.8859 114.364 70.6918C114.487 70.4953 114.652 70.3414 114.858 70.2301C115.064 70.1188 115.291 70.036 115.54 69.9815C115.791 69.9247 116.043 69.8797 116.296 69.8466C116.628 69.804 116.896 69.772 117.102 69.7507C117.311 69.727 117.462 69.688 117.557 69.6335C117.654 69.5791 117.702 69.4844 117.702 69.3494V69.321C117.702 68.9706 117.607 68.6984 117.415 68.5043C117.225 68.3101 116.938 68.2131 116.552 68.2131C116.152 68.2131 115.838 68.3007 115.611 68.4759C115.384 68.651 115.224 68.8381 115.131 69.0369L114.336 68.7528C114.478 68.4214 114.667 68.1634 114.904 67.9787C115.143 67.7917 115.404 67.6615 115.685 67.5881C115.969 67.5123 116.249 67.4744 116.523 67.4744C116.699 67.4744 116.9 67.4957 117.127 67.5384C117.357 67.5786 117.578 67.6626 117.791 67.7905C118.007 67.9183 118.185 68.1113 118.327 68.3693C118.469 68.6274 118.54 68.973 118.54 69.4062V73H117.702V72.2614H117.66C117.603 72.3797 117.508 72.5064 117.376 72.6413C117.243 72.7763 117.067 72.8911 116.847 72.9858C116.626 73.0805 116.358 73.1278 116.04 73.1278ZM116.168 72.375C116.5 72.375 116.779 72.3099 117.006 72.1797C117.236 72.0495 117.409 71.8814 117.525 71.6754C117.643 71.4695 117.702 71.2528 117.702 71.0256V70.2585C117.667 70.3011 117.589 70.3402 117.468 70.3757C117.35 70.4089 117.212 70.4384 117.056 70.4645C116.902 70.4882 116.752 70.5095 116.605 70.5284C116.461 70.545 116.344 70.5592 116.254 70.571C116.036 70.5994 115.832 70.6456 115.643 70.7095C115.456 70.7711 115.304 70.8646 115.188 70.9901C115.075 71.1132 115.018 71.2812 115.018 71.4943C115.018 71.7855 115.125 72.0057 115.341 72.1548C115.559 72.3016 115.835 72.375 116.168 72.375ZM120.07 73V67.5455H120.88V68.3693H120.937C121.036 68.0994 121.216 67.8804 121.476 67.7124C121.737 67.5443 122.03 67.4602 122.357 67.4602C122.419 67.4602 122.496 67.4614 122.588 67.4638C122.68 67.4661 122.75 67.4697 122.797 67.4744V68.3267C122.769 68.3196 122.704 68.3089 122.602 68.2947C122.503 68.2782 122.397 68.2699 122.286 68.2699C122.021 68.2699 121.784 68.3255 121.576 68.4368C121.37 68.5457 121.207 68.6972 121.086 68.8913C120.967 69.0831 120.908 69.3021 120.908 69.5483V73H120.07ZM126.505 67.5455V68.2557H123.678V67.5455H126.505ZM124.502 66.2386H125.34V71.4375C125.34 71.6742 125.374 71.8518 125.443 71.9702C125.514 72.0862 125.604 72.1643 125.713 72.2045C125.824 72.2424 125.941 72.2614 126.064 72.2614C126.157 72.2614 126.233 72.2566 126.292 72.2472C126.351 72.2353 126.398 72.2259 126.434 72.2188L126.604 72.9716C126.547 72.9929 126.468 73.0142 126.366 73.0355C126.265 73.0592 126.135 73.071 125.979 73.071C125.742 73.071 125.51 73.0201 125.283 72.9183C125.058 72.8165 124.871 72.6615 124.722 72.4531C124.575 72.2448 124.502 71.982 124.502 71.6648V66.2386ZM127.996 73V65.7273H130.454C131.024 65.7273 131.491 65.8303 131.853 66.0362C132.217 66.2398 132.487 66.5156 132.662 66.8636C132.838 67.2116 132.925 67.5999 132.925 68.0284C132.925 68.4569 132.838 68.8464 132.662 69.1967C132.49 69.5471 132.222 69.8265 131.86 70.0348C131.498 70.2408 131.034 70.3438 130.468 70.3438H128.707V69.5625H130.439C130.83 69.5625 131.144 69.495 131.381 69.3601C131.617 69.2251 131.789 69.0429 131.895 68.8132C132.004 68.5812 132.059 68.3196 132.059 68.0284C132.059 67.7372 132.004 67.4768 131.895 67.2472C131.789 67.0175 131.616 66.8376 131.377 66.7074C131.138 66.5748 130.821 66.5085 130.425 66.5085H128.877V73H127.996ZM135.835 73.1278C135.49 73.1278 135.176 73.0627 134.894 72.9325C134.613 72.8 134.389 72.6094 134.223 72.3608C134.057 72.1098 133.975 71.8068 133.975 71.4517C133.975 71.1392 134.036 70.8859 134.159 70.6918C134.282 70.4953 134.447 70.3414 134.653 70.2301C134.859 70.1188 135.086 70.036 135.335 69.9815C135.586 69.9247 135.838 69.8797 136.091 69.8466C136.423 69.804 136.691 69.772 136.897 69.7507C137.106 69.727 137.257 69.688 137.352 69.6335C137.449 69.5791 137.497 69.4844 137.497 69.3494V69.321C137.497 68.9706 137.401 68.6984 137.21 68.5043C137.02 68.3101 136.733 68.2131 136.347 68.2131C135.947 68.2131 135.633 68.3007 135.406 68.4759C135.178 68.651 135.019 68.8381 134.926 69.0369L134.131 68.7528C134.273 68.4214 134.462 68.1634 134.699 67.9787C134.938 67.7917 135.199 67.6615 135.48 67.5881C135.764 67.5123 136.044 67.4744 136.318 67.4744C136.494 67.4744 136.695 67.4957 136.922 67.5384C137.152 67.5786 137.373 67.6626 137.586 67.7905C137.802 67.9183 137.98 68.1113 138.122 68.3693C138.264 68.6274 138.335 68.973 138.335 69.4062V73H137.497V72.2614H137.455C137.398 72.3797 137.303 72.5064 137.171 72.6413C137.038 72.7763 136.862 72.8911 136.642 72.9858C136.421 73.0805 136.153 73.1278 135.835 73.1278ZM135.963 72.375C136.295 72.375 136.574 72.3099 136.801 72.1797C137.031 72.0495 137.204 71.8814 137.32 71.6754C137.438 71.4695 137.497 71.2528 137.497 71.0256V70.2585C137.462 70.3011 137.384 70.3402 137.263 70.3757C137.145 70.4089 137.007 70.4384 136.851 70.4645C136.697 70.4882 136.547 70.5095 136.4 70.5284C136.256 70.545 136.138 70.5592 136.048 70.571C135.831 70.5994 135.627 70.6456 135.438 70.7095C135.251 70.7711 135.099 70.8646 134.983 70.9901C134.87 71.1132 134.813 71.2812 134.813 71.4943C134.813 71.7855 134.92 72.0057 135.136 72.1548C135.354 72.3016 135.629 72.375 135.963 72.375ZM140.21 75.0455C140.067 75.0455 139.941 75.0336 139.83 75.0099C139.718 74.9886 139.641 74.9673 139.599 74.946L139.812 74.2074C140.015 74.2595 140.195 74.2784 140.352 74.2642C140.508 74.25 140.646 74.1802 140.767 74.0547C140.89 73.9316 141.003 73.7315 141.104 73.4545L141.261 73.0284L139.244 67.5455H140.153L141.658 71.892H141.715L143.221 67.5455H144.13L141.815 73.7955C141.71 74.0772 141.581 74.3104 141.428 74.495C141.274 74.6821 141.095 74.8205 140.891 74.9105C140.69 75.0005 140.463 75.0455 140.21 75.0455Z" fill="#ECEDF3"/>
<path d="M192 52.3327C196.583 52.3327 200.333 48.5827 200.333 43.9993C200.333 39.416 196.583 35.666 192 35.666C187.417 35.666 183.667 39.416 183.667 43.9993C183.667 48.5827 187.417 52.3327 192 52.3327Z" stroke="#ECEDF3" stroke-width="1.3" stroke-linecap="round" stroke-linejoin="round"/>
<path d="M188.667 44H195.333" stroke="#ECEDF3" stroke-width="1.3" stroke-linecap="round" stroke-linejoin="round"/>
<path d="M192 47.3327V40.666" stroke="#ECEDF3" stroke-width="1.3" stroke-linecap="round" stroke-linejoin="round"/>
<path d="M183.179 73H182.256L184.926 65.7273H185.835L188.506 73H187.582L185.409 66.8778H185.352L183.179 73ZM183.52 70.1591H187.241V70.9403H183.52V70.1591ZM191.585 73.1136C191.13 73.1136 190.729 72.9988 190.381 72.7692C190.033 72.5372 189.76 72.2105 189.564 71.7891C189.367 71.3653 189.269 70.8646 189.269 70.2869C189.269 69.714 189.367 69.2169 189.564 68.7955C189.76 68.3741 190.034 68.0485 190.384 67.8189C190.735 67.5893 191.139 67.4744 191.599 67.4744C191.954 67.4744 192.234 67.5336 192.44 67.652C192.649 67.768 192.807 67.9006 192.916 68.0497C193.027 68.1965 193.114 68.3172 193.175 68.4119H193.246V65.7273H194.085V73H193.275V72.1619H193.175C193.114 72.2614 193.026 72.3868 192.913 72.5384C192.799 72.6875 192.637 72.8213 192.426 72.9396C192.215 73.0556 191.935 73.1136 191.585 73.1136ZM191.698 72.3608C192.034 72.3608 192.318 72.2732 192.55 72.098C192.782 71.9205 192.959 71.6754 193.08 71.3629C193.2 71.0481 193.261 70.6847 193.261 70.2727C193.261 69.8655 193.201 69.5092 193.083 69.2038C192.965 68.8961 192.79 68.657 192.558 68.4865C192.326 68.3137 192.039 68.2273 191.698 68.2273C191.343 68.2273 191.047 68.3184 190.81 68.5007C190.576 68.6806 190.4 68.9257 190.281 69.2358C190.165 69.5436 190.107 69.8892 190.107 70.2727C190.107 70.661 190.166 71.0137 190.285 71.331C190.406 71.6458 190.583 71.8968 190.817 72.0838C191.054 72.2685 191.348 72.3608 191.698 72.3608ZM197.795 73.1136C197.341 73.1136 196.94 72.9988 196.592 72.7692C196.244 72.5372 195.971 72.2105 195.775 71.7891C195.578 71.3653 195.48 70.8646 195.48 70.2869C195.48 69.714 195.578 69.2169 195.775 68.7955C195.971 68.3741 196.245 68.0485 196.595 67.8189C196.946 67.5893 197.35 67.4744 197.81 67.4744C198.165 67.4744 198.445 67.5336 198.651 67.652C198.86 67.768 199.018 67.9006 199.127 68.0497C199.238 68.1965 199.325 68.3172 199.386 68.4119H199.457V65.7273H200.295V73H199.486V72.1619H199.386C199.325 72.2614 199.237 72.3868 199.124 72.5384C199.01 72.6875 198.848 72.8213 198.637 72.9396C198.426 73.0556 198.146 73.1136 197.795 73.1136ZM197.909 72.3608C198.245 72.3608 198.529 72.2732 198.761 72.098C198.993 71.9205 199.17 71.6754 199.29 71.3629C199.411 71.0481 199.472 70.6847 199.472 70.2727C199.472 69.8655 199.412 69.5092 199.294 69.2038C199.176 68.8961 199 68.657 198.768 68.4865C198.536 68.3137 198.25 68.2273 197.909 68.2273C197.554 68.2273 197.258 68.3184 197.021 68.5007C196.787 68.6806 196.611 68.9257 196.492 69.2358C196.376 69.5436 196.318 69.8892 196.318 70.2727C196.318 70.661 196.377 71.0137 196.496 71.331C196.616 71.6458 196.794 71.8968 197.028 72.0838C197.265 72.2685 197.559 72.3608 197.909 72.3608Z" fill="#ECEDF3"/>
<path d="M259.9 35.666H264.9C269.067 35.666 270.733 37.3327 270.733 41.4993V46.4993C270.733 50.666 269.067 52.3327 264.9 52.3327H259.9C255.733 52.3327 254.067 50.666 254.067 46.4993V41.4993C254.067 37.3327 255.733 35.666 259.9 35.666Z" stroke="#ECEDF3" stroke-width="1.3" stroke-linecap="round" stroke-linejoin="round"/>
<path d="M259.542 46.7254L264.992 41.2754" stroke="#ECEDF3" stroke-width="1.3" stroke-linecap="round" stroke-linejoin="round"/>
<path d="M259.883 42.6418C260.449 42.6418 260.908 42.1829 260.908 41.6168C260.908 41.0507 260.449 40.5918 259.883 40.5918C259.317 40.5918 258.858 41.0507 258.858 41.6168C258.858 42.1829 259.317 42.6418 259.883 42.6418Z" stroke="#ECEDF3" stroke-width="1.3" stroke-linecap="round" stroke-linejoin="round"/>
<path d="M265.333 47.4074C265.899 47.4074 266.358 46.9485 266.358 46.3824C266.358 45.8163 265.899 45.3574 265.333 45.3574C264.767 45.3574 264.308 45.8163 264.308 46.3824C264.308 46.9485 264.767 47.4074 265.333 47.4074Z" stroke="#ECEDF3" stroke-width="1.3" stroke-linecap="round" stroke-linejoin="round"/>
<path d="M245.281 73V65.7273H249.67V66.5085H246.161V68.9659H249.443V69.7472H246.161V72.2188H249.727V73H245.281ZM251.769 67.5455L253.075 69.7756L254.382 67.5455H255.348L253.587 70.2727L255.348 73H254.382L253.075 70.8835L251.769 73H250.803L252.536 70.2727L250.803 67.5455H251.769ZM256.544 75.0455V67.5455H257.354V68.4119H257.453C257.515 68.3172 257.6 68.1965 257.709 68.0497C257.82 67.9006 257.979 67.768 258.185 67.652C258.393 67.5336 258.675 67.4744 259.03 67.4744C259.489 67.4744 259.894 67.5893 260.244 67.8189C260.595 68.0485 260.868 68.3741 261.064 68.7955C261.261 69.2169 261.359 69.714 261.359 70.2869C261.359 70.8646 261.261 71.3653 261.064 71.7891C260.868 72.2105 260.596 72.5372 260.248 72.7692C259.9 72.9988 259.498 73.1136 259.044 73.1136C258.694 73.1136 258.413 73.0556 258.202 72.9396C257.992 72.8213 257.829 72.6875 257.716 72.5384C257.602 72.3868 257.515 72.2614 257.453 72.1619H257.382V75.0455H256.544ZM257.368 70.2727C257.368 70.6847 257.428 71.0481 257.549 71.3629C257.67 71.6754 257.846 71.9205 258.078 72.098C258.31 72.2732 258.594 72.3608 258.93 72.3608C259.281 72.3608 259.573 72.2685 259.807 72.0838C260.044 71.8968 260.222 71.6458 260.34 71.331C260.461 71.0137 260.521 70.661 260.521 70.2727C260.521 69.8892 260.462 69.5436 260.344 69.2358C260.228 68.9257 260.051 68.6806 259.814 68.5007C259.58 68.3184 259.285 68.2273 258.93 68.2273C258.589 68.2273 258.303 68.3137 258.071 68.4865C257.839 68.657 257.664 68.8961 257.545 69.2038C257.427 69.5092 257.368 69.8655 257.368 70.2727ZM263.476 65.7273V73H262.638V65.7273H263.476ZM267.227 73.1136C266.734 73.1136 266.302 72.9964 265.93 72.7621C265.561 72.5277 265.272 72.1998 265.064 71.7784C264.858 71.357 264.755 70.8646 264.755 70.3011C264.755 69.733 264.858 69.237 265.064 68.8132C265.272 68.3894 265.561 68.0604 265.93 67.826C266.302 67.5916 266.734 67.4744 267.227 67.4744C267.719 67.4744 268.15 67.5916 268.519 67.826C268.891 68.0604 269.18 68.3894 269.386 68.8132C269.594 69.237 269.698 69.733 269.698 70.3011C269.698 70.8646 269.594 71.357 269.386 71.7784C269.18 72.1998 268.891 72.5277 268.519 72.7621C268.15 72.9964 267.719 73.1136 267.227 73.1136ZM267.227 72.3608C267.601 72.3608 267.908 72.2649 268.15 72.0732C268.391 71.8814 268.57 71.6293 268.686 71.3168C268.802 71.0043 268.86 70.6657 268.86 70.3011C268.86 69.9366 268.802 69.5968 268.686 69.282C268.57 68.9671 268.391 68.7126 268.15 68.5185C267.908 68.3243 267.601 68.2273 267.227 68.2273C266.853 68.2273 266.545 68.3243 266.303 68.5185C266.062 68.7126 265.883 68.9671 265.767 69.282C265.651 69.5968 265.593 69.9366 265.593 70.3011C265.593 70.6657 265.651 71.0043 265.767 71.3168C265.883 71.6293 266.062 71.8814 266.303 72.0732C266.545 72.2649 266.853 72.3608 267.227 72.3608ZM270.977 73V67.5455H271.787V68.3693H271.844C271.943 68.0994 272.123 67.8804 272.384 67.7124C272.644 67.5443 272.938 67.4602 273.264 67.4602C273.326 67.4602 273.403 67.4614 273.495 67.4638C273.588 67.4661 273.657 67.4697 273.705 67.4744V68.3267C273.676 68.3196 273.611 68.3089 273.509 68.2947C273.41 68.2782 273.305 68.2699 273.193 68.2699C272.928 68.2699 272.692 68.3255 272.483 68.4368C272.277 68.5457 272.114 68.6972 271.993 68.8913C271.875 69.0831 271.816 69.3021 271.816 69.5483V73H270.977ZM276.819 73.1136C276.294 73.1136 275.84 72.9976 275.459 72.7656C275.08 72.5312 274.788 72.2045 274.582 71.7855C274.378 71.3641 274.277 70.8741 274.277 70.3153C274.277 69.7566 274.378 69.2642 274.582 68.8381C274.788 68.4096 275.074 68.0758 275.441 67.8366C275.811 67.5952 276.241 67.4744 276.734 67.4744C277.018 67.4744 277.299 67.5218 277.576 67.6165C277.852 67.7112 278.105 67.8651 278.332 68.0781C278.559 68.2888 278.74 68.5682 278.875 68.9162C279.01 69.2642 279.078 69.6927 279.078 70.2017V70.5568H274.873V69.8324H278.225C278.225 69.5246 278.164 69.25 278.041 69.0085C277.92 68.767 277.747 68.5765 277.522 68.4368C277.3 68.2971 277.037 68.2273 276.734 68.2273C276.4 68.2273 276.111 68.3101 275.867 68.4759C275.626 68.6392 275.44 68.8523 275.31 69.1151C275.18 69.3778 275.115 69.6596 275.115 69.9602V70.4432C275.115 70.8551 275.186 71.2043 275.328 71.4908C275.472 71.7749 275.672 71.9915 275.928 72.1406C276.183 72.2874 276.481 72.3608 276.819 72.3608C277.039 72.3608 277.238 72.33 277.416 72.2685C277.596 72.2045 277.751 72.1098 277.881 71.9844C278.011 71.8565 278.112 71.6979 278.183 71.5085L278.992 71.7358C278.907 72.0104 278.764 72.2519 278.563 72.4602C278.361 72.6662 278.113 72.8272 277.817 72.9432C277.521 73.0568 277.188 73.1136 276.819 73.1136Z" fill="#ECEDF3"/>
<g clip-path="url(#clip1_4307_17021)">
<ellipse cx="326.133" cy="44.0007" rx="1.66667" ry="1.66667" fill="#ECEDF3"/>
<circle cx="332.8" cy="44.0007" r="1.66667" fill="#ECEDF3"/>
<circle cx="339.467" cy="44.0007" r="1.66667" fill="#ECEDF3"/>
</g>
<path d="M321.181 65.7273H322.232L324.703 71.7642H324.789L327.26 65.7273H328.311V73H327.487V67.4744H327.416L325.144 73H324.348L322.075 67.4744H322.004V73H321.181V65.7273ZM332.179 73.1136C331.687 73.1136 331.255 72.9964 330.883 72.7621C330.514 72.5277 330.225 72.1998 330.017 71.7784C329.811 71.357 329.708 70.8646 329.708 70.3011C329.708 69.733 329.811 69.237 330.017 68.8132C330.225 68.3894 330.514 68.0604 330.883 67.826C331.255 67.5916 331.687 67.4744 332.179 67.4744C332.672 67.4744 333.103 67.5916 333.472 67.826C333.844 68.0604 334.132 68.3894 334.338 68.8132C334.547 69.237 334.651 69.733 334.651 70.3011C334.651 70.8646 334.547 71.357 334.338 71.7784C334.132 72.1998 333.844 72.5277 333.472 72.7621C333.103 72.9964 332.672 73.1136 332.179 73.1136ZM332.179 72.3608C332.553 72.3608 332.861 72.2649 333.103 72.0732C333.344 71.8814 333.523 71.6293 333.639 71.3168C333.755 71.0043 333.813 70.6657 333.813 70.3011C333.813 69.9366 333.755 69.5968 333.639 69.282C333.523 68.9671 333.344 68.7126 333.103 68.5185C332.861 68.3243 332.553 68.2273 332.179 68.2273C331.805 68.2273 331.498 68.3243 331.256 68.5185C331.015 68.7126 330.836 68.9671 330.72 69.282C330.604 69.5968 330.546 69.9366 330.546 70.3011C330.546 70.6657 330.604 71.0043 330.72 71.3168C330.836 71.6293 331.015 71.8814 331.256 72.0732C331.498 72.2649 331.805 72.3608 332.179 72.3608ZM335.93 73V67.5455H336.74V68.3693H336.797C336.896 68.0994 337.076 67.8804 337.337 67.7124C337.597 67.5443 337.89 67.4602 338.217 67.4602C338.279 67.4602 338.356 67.4614 338.448 67.4638C338.54 67.4661 338.61 67.4697 338.658 67.4744V68.3267C338.629 68.3196 338.564 68.3089 338.462 68.2947C338.363 68.2782 338.257 68.2699 338.146 68.2699C337.881 68.2699 337.644 68.3255 337.436 68.4368C337.23 68.5457 337.067 68.6972 336.946 68.8913C336.828 69.0831 336.768 69.3021 336.768 69.5483V73H335.93ZM341.772 73.1136C341.246 73.1136 340.793 72.9976 340.412 72.7656C340.033 72.5312 339.741 72.2045 339.535 71.7855C339.331 71.3641 339.229 70.8741 339.229 70.3153C339.229 69.7566 339.331 69.2642 339.535 68.8381C339.741 68.4096 340.027 68.0758 340.394 67.8366C340.763 67.5952 341.194 67.4744 341.687 67.4744C341.971 67.4744 342.251 67.5218 342.528 67.6165C342.805 67.7112 343.057 67.8651 343.285 68.0781C343.512 68.2888 343.693 68.5682 343.828 68.9162C343.963 69.2642 344.03 69.6927 344.03 70.2017V70.5568H339.826V69.8324H343.178C343.178 69.5246 343.117 69.25 342.993 69.0085C342.873 68.767 342.7 68.5765 342.475 68.4368C342.252 68.2971 341.99 68.2273 341.687 68.2273C341.353 68.2273 341.064 68.3101 340.82 68.4759C340.579 68.6392 340.393 68.8523 340.263 69.1151C340.132 69.3778 340.067 69.6596 340.067 69.9602V70.4432C340.067 70.8551 340.138 71.2043 340.28 71.4908C340.425 71.7749 340.625 71.9915 340.881 72.1406C341.136 72.2874 341.433 72.3608 341.772 72.3608C341.992 72.3608 342.191 72.33 342.368 72.2685C342.548 72.2045 342.703 72.1098 342.834 71.9844C342.964 71.8565 343.064 71.6979 343.136 71.5085L343.945 71.7358C343.86 72.0104 343.717 72.2519 343.515 72.4602C343.314 72.6662 343.066 72.8272 342.77 72.9432C342.474 73.0568 342.141 73.1136 341.772 73.1136Z" fill="#ECEDF3"/>
</g>
<defs>
<filter id="filter0_d_4307_17021" x="0" y="0" width="384" height="102" filterUnits="userSpaceOnUse" color-interpolation-filters="sRGB">
<feFlood flood-opacity="0" result="BackgroundImageFix"/>
<feColorMatrix in="SourceAlpha" type="matrix" values="0 0 0 0 0 0 0 0 0 0 0 0 0 0 0 0 0 0 127 0" result="hardAlpha"/>
<feOffset dy="-4"/>
<feGaussianBlur stdDeviation="6"/>
<feComposite in2="hardAlpha" operator="out"/>
<feColorMatrix type="matrix" values="0 0 0 0 0 0 0 0 0 0 0 0 0 0 0 0 0 0 0.1 0"/>
<feBlend mode="normal" in2="BackgroundImageFix" result="effect1_dropShadow_4307_17021"/>
<feBlend mode="normal" in="SourceGraphic" in2="effect1_dropShadow_4307_17021" result="shape"/>
</filter>
<clipPath id="clip0_4307_17021">
<rect width="20" height="20" fill="white" transform="translate(111.6 34)"/>
</clipPath>
<clipPath id="clip1_4307_17021">
<rect width="20" height="20" fill="white" transform="translate(322.8 34)"/>
</clipPath>
</defs>
</svg>
